<?xml version="1.0" encoding="utf-8"?>
<svg version="1.1" id="a3d65ca7-3888-4ee8-abb8-66e644473d6f"
	 xmlns="http://www.w3.org/2000/svg" xmlns:xlink="http://www.w3.org/1999/xlink" x="0px" y="0px" viewBox="0 0 512 512"
	 style="enable-background:new 0 0 512 512;" xml:space="preserve">
<style type="text/css">
	.st0{fill:#417598;}
	.st1{fill:#417598;stroke:#417598;stroke-width:5;stroke-miterlimit:10;}
	.st2{fill:#FFFFFF;stroke:#417598;stroke-width:5;stroke-miterlimit:10;}
</style>
<path class="st0" d="M96.5,483.8h-5.2c-0.5,0-1-0.1-1.5-0.5c-0.4-0.3-0.7-0.7-0.8-1.1l-4.7-12H61.9l-4.7,12
	c-0.2,0.4-0.5,0.8-0.8,1.1c-0.4,0.3-0.9,0.5-1.5,0.5h-5.2l20-49.9h6.9L96.5,483.8z M63.8,465.2h18.7l-7.8-20.3
	c-0.6-1.5-1.1-3.1-1.5-4.7c-0.2,1-0.5,1.8-0.7,2.6s-0.5,1.5-0.7,2.1L63.8,465.2z"/>
<path class="st0" d="M101.8,483.8v-35.3h3.6c0.5-0.1,1,0.1,1.4,0.4c0.3,0.4,0.5,0.8,0.5,1.3l0.4,5.5c1-2.2,2.6-4.2,4.5-5.8
	c2.5-1.9,5.8-2.5,8.9-1.8c0.8,0.2,1.5,0.5,2.2,0.9l-0.8,4.6c-0.1,0.5-0.6,0.9-1.1,0.9c-0.5,0-1-0.1-1.5-0.3
	c-0.9-0.3-1.9-0.4-2.8-0.3c-2-0.1-3.9,0.6-5.4,1.9c-1.6,1.5-2.9,3.4-3.6,5.5v22.5H101.8z"/>
<path class="st0" d="M140.6,484.3c-2.4,0.2-4.7-0.7-6.4-2.3c-1.5-1.6-2.2-3.8-2.2-6.7v-21.6h-4.2c-0.3,0-0.7-0.1-0.9-0.3
	c-0.3-0.3-0.4-0.6-0.4-1v-2.5l5.8-0.7l1.4-10.9c0-0.3,0.2-0.6,0.4-0.9c0.3-0.2,0.6-0.3,1-0.3h3.1v12.2h10.1v4.5h-10.1v21.2
	c-0.1,1.2,0.3,2.4,1.1,3.3c0.7,0.7,1.8,1.1,2.8,1.1c0.6,0,1.1-0.1,1.7-0.3c0.4-0.2,0.8-0.3,1.2-0.6c0.4-0.2,0.6-0.4,0.9-0.6
	c0.2-0.1,0.4-0.2,0.6-0.3c0.4,0,0.7,0.3,0.9,0.6l1.8,3c-1.1,1-2.4,1.8-3.9,2.4C143.8,484.1,142.2,484.4,140.6,484.3z"/>
<path class="st0" d="M164.2,437.4c0,0.6-0.1,1.2-0.4,1.7c-0.2,0.5-0.6,1-1,1.4c-0.4,0.4-0.9,0.7-1.4,1c-0.5,0.2-1.1,0.4-1.7,0.4
	c-0.6,0-1.2-0.1-1.7-0.4c-1.1-0.5-1.9-1.3-2.4-2.4c-0.2-0.5-0.4-1.1-0.4-1.7c0-0.6,0.1-1.2,0.4-1.7c0.4-1.1,1.3-1.9,2.4-2.4
	c0.5-0.2,1.1-0.4,1.7-0.4c0.6,0,1.2,0.1,1.7,0.4c0.5,0.2,1,0.5,1.4,1c0.4,0.4,0.8,0.9,1,1.4C164,436.2,164.2,436.8,164.2,437.4z
	 M162.8,448.5v35.3h-6.2v-35.3H162.8z"/>
<path class="st0" d="M175.1,483.8v-30l-3.9-0.5c-0.4-0.1-0.8-0.3-1.2-0.5c-0.3-0.3-0.5-0.7-0.5-1.1v-2.5h5.6v-3.4
	c0-1.8,0.3-3.6,0.9-5.4c0.5-1.5,1.3-2.9,2.4-4c1.1-1.1,2.4-1.9,3.8-2.5c1.6-0.6,3.3-0.9,5-0.8c1.5,0,3,0.2,4.4,0.7l-0.1,3.1
	c0,0.4-0.2,0.7-0.6,0.8c-0.5,0.1-1,0.2-1.6,0.1h-1.1c-1,0-2,0.1-2.9,0.4c-0.8,0.3-1.6,0.7-2.2,1.4c-0.7,0.7-1.2,1.5-1.4,2.5
	c-0.4,1.2-0.5,2.5-0.5,3.8v3.2h10.2v4.5h-10v30.1L175.1,483.8z"/>
<path class="st0" d="M223.1,483.8h-2.8c-0.5,0-1-0.1-1.5-0.3c-0.4-0.3-0.7-0.7-0.7-1.2l-0.7-3.3c-0.9,0.8-1.8,1.6-2.7,2.2
	c-0.9,0.7-1.8,1.2-2.8,1.7c-1,0.5-2,0.8-3.1,1c-1.2,0.2-2.4,0.4-3.7,0.4c-1.3,0-2.6-0.2-3.9-0.6c-1.1-0.4-2.2-0.9-3.1-1.7
	c-0.9-0.8-1.6-1.8-2.1-2.9c-0.5-1.3-0.8-2.7-0.8-4.2c0-1.4,0.4-2.8,1.1-4c0.9-1.4,2.2-2.6,3.7-3.4c2.1-1.2,4.4-2,6.7-2.5
	c3.3-0.7,6.7-1,10.1-1v-2.8c0-2.8-0.6-4.8-1.8-6.2c-1.3-1.5-3.2-2.3-5.2-2.1c-1.3,0-2.6,0.2-3.8,0.6c-0.9,0.3-1.8,0.8-2.7,1.3
	c-0.7,0.5-1.4,0.9-1.9,1.3c-0.5,0.4-1,0.6-1.6,0.6c-0.4,0-0.8-0.1-1.1-0.3c-0.3-0.2-0.6-0.5-0.8-0.8l-1.1-2c1.8-1.8,4-3.2,6.3-4.2
	c2.4-1,4.9-1.4,7.5-1.4c1.8,0,3.6,0.3,5.3,1c1.5,0.6,2.8,1.5,3.9,2.7c1.1,1.2,1.9,2.7,2.4,4.2c0.5,1.8,0.8,3.6,0.8,5.4V483.8z
	 M207,480c1,0,2-0.1,3-0.3c0.9-0.2,1.7-0.5,2.6-0.9c0.8-0.4,1.6-0.9,2.3-1.5c0.8-0.6,1.5-1.3,2.1-2v-7.3c-2.4,0-4.9,0.1-7.3,0.5
	c-1.7,0.3-3.3,0.7-4.9,1.4c-1.1,0.4-2,1.2-2.7,2.1c-0.6,0.8-0.9,1.7-0.9,2.7c0,0.8,0.1,1.7,0.5,2.4c0.3,0.6,0.7,1.2,1.2,1.7
	c0.5,0.4,1.2,0.8,1.8,1C205.5,479.9,206.2,480,207,480L207,480z"/>
<path class="st0" d="M256.6,454.8c-0.2,0.2-0.3,0.4-0.6,0.6c-0.2,0.2-0.5,0.2-0.8,0.2c-0.4,0-0.8-0.2-1.1-0.4
	c-0.4-0.3-0.9-0.6-1.6-1c-0.7-0.4-1.5-0.7-2.3-1c-1.1-0.3-2.2-0.5-3.3-0.4c-1.6,0-3.1,0.3-4.6,0.9c-1.3,0.6-2.4,1.5-3.3,2.7
	c-0.9,1.3-1.6,2.7-2,4.2c-0.5,1.8-0.7,3.7-0.7,5.5c0,1.9,0.2,3.8,0.7,5.7c0.4,1.5,1.1,2.9,2.1,4.2c0.9,1.1,2,2,3.2,2.6
	c1.3,0.6,2.8,0.9,4.3,0.9c1.3,0,2.5-0.1,3.7-0.5c0.9-0.3,1.7-0.7,2.4-1.2c0.6-0.4,1.1-0.8,1.6-1.2c0.3-0.3,0.8-0.5,1.2-0.5
	c0.5,0,0.9,0.2,1.2,0.6l1.8,2.3c-1.5,1.9-3.5,3.3-5.8,4.1c-2.3,0.9-4.8,1.3-7.3,1.3c-2.1,0-4.2-0.4-6.1-1.2c-1.9-0.8-3.6-2-4.9-3.5
	c-1.5-1.7-2.6-3.6-3.3-5.7c-0.8-2.5-1.3-5.1-1.2-7.7c0-2.5,0.3-4.9,1.1-7.3c0.7-2.1,1.8-4.1,3.2-5.8c1.4-1.6,3.2-2.9,5.2-3.8
	c2.3-0.9,4.7-1.4,7.1-1.4c2.2,0,4.5,0.4,6.5,1.2c1.9,0.8,3.6,1.9,5.1,3.4L256.6,454.8z"/>
<path class="st0" d="M275.7,484.3c-2.4,0.2-4.7-0.7-6.4-2.3c-1.5-1.6-2.2-3.8-2.2-6.7v-21.6h-4.3c-0.3,0-0.7-0.1-0.9-0.3
	c-0.3-0.3-0.4-0.6-0.4-1v-2.5l5.8-0.7l1.4-10.9c0-0.3,0.2-0.6,0.5-0.9c0.3-0.2,0.6-0.4,1-0.3h3.1v12.2h10.1v4.5h-10.1v21.2
	c-0.1,1.2,0.3,2.4,1.1,3.3c0.7,0.7,1.7,1.1,2.8,1.1c0.6,0,1.1-0.1,1.7-0.3c0.4-0.2,0.8-0.3,1.2-0.6c0.4-0.2,0.6-0.4,0.9-0.6
	c0.2-0.1,0.4-0.2,0.6-0.3c0.4,0,0.7,0.3,0.9,0.6l1.8,3c-1.1,1-2.4,1.8-3.9,2.4C278.9,484.1,277.3,484.4,275.7,484.3z"/>
<path class="st0" d="M330.2,484v-18.2h-16.9V484h-15.4v-47.9h15.4v17.5h16.9v-17.5h15.4V484H330.2z"/>
<path class="st0" d="M397.4,479.7c-4.1,3.4-10,5.2-17.6,5.2s-13.5-1.7-17.7-5.2c-4.2-3.4-6.2-8.4-6.2-15v-28.6h15.4v28.4
	c-0.1,2.3,0.7,4.6,2.2,6.4c3.6,3.2,9,3.2,12.6,0c1.5-1.8,2.3-4.1,2.2-6.4v-28.5h15.4v28.6C403.6,471.3,401.5,476.3,397.4,479.7z"/>
<path class="st0" d="M452.5,437.6c2,0.9,3.6,2.4,4.8,4.2c1.2,1.8,1.8,3.9,1.8,6.1c0,5.9-2.7,9.6-8,11.1v0.3c6.1,1.4,9.1,5.4,9.1,12
	c0,2.3-0.6,4.7-1.9,6.6c-1.2,1.9-3,3.5-5,4.5c-2.2,1.1-4.6,1.6-7,1.6h-32.4v-47.9h31.9C448.1,436.1,450.4,436.6,452.5,437.6z
	 M429.3,454.8h10.6c1,0,1.9-0.4,2.5-1.1c0.7-0.7,1-1.7,1-2.7v-0.7c0-1-0.3-1.9-1-2.6c-0.6-0.7-1.6-1.1-2.5-1.1h-10.6V454.8z
	 M429.3,472.9H441c1,0,1.9-0.4,2.5-1.1c0.7-0.7,1-1.7,1-2.7v-0.7c0-1-0.3-2-1-2.7c-0.7-0.7-1.6-1.1-2.5-1.1h-11.7V472.9z"/>
<path class="st1" d="M411,284.4V146.8c0-12.3-6.6-23.6-17.2-29.8L273.4,48.2c-10.6-6.1-23.8-6.1-34.4,0L118.5,117
	c-10.6,6.1-17.2,17.5-17.2,29.8v137.6c0,12.3,6.6,23.6,17.2,29.8L239,383c10.6,6.1,23.8,6.1,34.4,0l120.4-68.8
	C404.4,308,411,296.7,411,284.4z"/>
<path class="st2" d="M256.2,402.6c-8.7,0-17.2-2.3-24.7-6.6l-120.4-68.8c-15.3-8.8-24.7-25.1-24.8-42.8V146.8
	c0-17.6,9.4-33.9,24.7-42.7l120.5-68.8c15.3-8.8,34.1-8.8,49.3,0L401.2,104c15.3,8.8,24.7,25.1,24.8,42.8v137.7
	c0,17.6-9.5,33.9-24.7,42.7L280.8,396C273.3,400.3,264.8,402.6,256.2,402.6z M256.2,58.7c-3.4,0-6.7,0.9-9.7,2.6L126,130
	c-6,3.5-9.6,9.9-9.6,16.8v137.6c0,6.9,3.7,13.3,9.7,16.8L246.4,370c6,3.5,13.4,3.5,19.5,0l120.5-68.8c6-3.5,9.6-9.9,9.6-16.8V146.8
	c0-6.9-3.7-13.3-9.7-16.8L265.9,61.2C263,59.5,259.6,58.6,256.2,58.7L256.2,58.7z M411,284.4L411,284.4z"/>
</svg>
