<svg id="Layer_1" data-name="Layer 1" xmlns="http://www.w3.org/2000/svg" viewBox="0 0 428.84 476.84"><defs><style>.cls-1{fill:#417598;}.cls-2{fill:#fff;}</style></defs><path class="cls-1" d="M56.17,466.97h-5.2a2.25977,2.25977,0,0,1-1.5-.5,2.09686,2.09686,0,0,1-.8-1.1l-4.7-12H21.57l-4.7,12a4.44043,4.44043,0,0,1-.8,1.1,2.45636,2.45636,0,0,1-1.5.5H9.37l20-49.9h6.9Zm-32.7-18.6h18.7l-7.8-20.3a36.76314,36.76314,0,0,1-1.5-4.7c-.2,1-.5,1.8-.7,2.6s-.5,1.5-.7,2.1Zm38,18.6v-35.3h3.6a1.79205,1.79205,0,0,1,1.4.4,2.10612,2.10612,0,0,1,.5,1.3l.4,5.5a16.851,16.851,0,0,1,4.5-5.8,10.80343,10.80343,0,0,1,8.9-1.8,8.4886,8.4886,0,0,1,2.2.9l-.8,4.6a1.17167,1.17167,0,0,1-1.1.9,4.01294,4.01294,0,0,1-1.5-.3,6.72,6.72,0,0,0-2.8-.3,7.62669,7.62669,0,0,0-5.4,1.9,13.519,13.519,0,0,0-3.6,5.5v22.5h-6.3Zm38.8.5a8.34692,8.34692,0,0,1-6.4-2.3c-1.5-1.6-2.2-3.8-2.2-6.7v-21.6h-4.2a1.3961,1.3961,0,0,1-.9-.3,1.28387,1.28387,0,0,1-.4-1v-2.5l5.8-.7,1.4-10.9a1.797,1.797,0,0,1,.4-.9,1.68935,1.68935,0,0,1,1-.3h3.1v12.2h10.1v4.5H97.87v21.2a4.42924,4.42924,0,0,0,1.1,3.3,4.10543,4.10543,0,0,0,2.8,1.1,5.0796,5.0796,0,0,0,1.7-.3,6.72005,6.72005,0,0,0,1.2-.6,7.01823,7.01823,0,0,0,.9-.6l.6-.3a1.14923,1.14923,0,0,1,.9.6l1.8,3a12.79958,12.79958,0,0,1-3.9,2.4,12.49026,12.49026,0,0,1-4.7.7Zm23.6-46.9a3.287,3.287,0,0,1-.4,1.7,4.50774,4.50774,0,0,1-1,1.4,7.09846,7.09846,0,0,1-1.4,1,4.71078,4.71078,0,0,1-1.7.4,3.287,3.287,0,0,1-1.7-.4,4.71623,4.71623,0,0,1-2.8-4.1,3.287,3.287,0,0,1,.4-1.7,4.34879,4.34879,0,0,1,2.4-2.4,4.71079,4.71079,0,0,1,1.7-.4,4.48251,4.48251,0,0,1,3.1,1.4,4.50774,4.50774,0,0,1,1,1.4A4.71121,4.71121,0,0,1,123.87,420.57Zm-1.4,11.1v35.3h-6.2v-35.3Zm12.3,35.3v-30l-3.9-.5a6.11563,6.11563,0,0,1-1.2-.5,1.60582,1.60582,0,0,1-.5-1.1v-2.5h5.6v-3.4a16.98786,16.98786,0,0,1,.9-5.4,10.20489,10.20489,0,0,1,2.4-4,11.947,11.947,0,0,1,3.8-2.5,12.22086,12.22086,0,0,1,5-.8,13.08185,13.08185,0,0,1,4.4.7l-.1,3.1a.76038.76038,0,0,1-.6.8,4.19325,4.19325,0,0,1-1.6.1h-1.1a9.24642,9.24642,0,0,0-2.9.4,5.17808,5.17808,0,0,0-2.2,1.4,4.80477,4.80477,0,0,0-1.4,2.5,12.03011,12.03011,0,0,0-.5,3.8v3.2h10.2v4.5h-10v30.1l-6.3.1Zm48,0h-2.8a4.01293,4.01293,0,0,1-1.5-.3,1.52492,1.52492,0,0,1-.7-1.2l-.7-3.3a26.0919,26.0919,0,0,1-2.7,2.2,16.0903,16.0903,0,0,1-2.8,1.7,11.24407,11.24407,0,0,1-3.1,1,22.06,22.06,0,0,1-3.7.4,13.20022,13.20022,0,0,1-3.9-.6,9.40687,9.40687,0,0,1-3.1-1.7,8.64154,8.64154,0,0,1-2.1-2.9,11.62288,11.62288,0,0,1-.8-4.2,8.01665,8.01665,0,0,1,1.1-4,10.08645,10.08645,0,0,1,3.7-3.4,23.6231,23.6231,0,0,1,6.7-2.5,48.73562,48.73562,0,0,1,10.1-1v-2.8c0-2.8-.6-4.8-1.8-6.2a6.047,6.047,0,0,0-5.2-2.1,12.0884,12.0884,0,0,0-3.8.6,16.63524,16.63524,0,0,0-2.7,1.3c-.7.5-1.4.9-1.9,1.3a2.45193,2.45193,0,0,1-1.6.6,2.016,2.016,0,0,1-1.1-.3,3.04362,3.04362,0,0,1-.8-.8l-1.1-2a20.44236,20.44236,0,0,1,6.3-4.2,19.21926,19.21926,0,0,1,7.5-1.4,13.85863,13.85863,0,0,1,5.3,1,10.53717,10.53717,0,0,1,3.9,2.7,11.77067,11.77067,0,0,1,2.4,4.2,20.17422,20.17422,0,0,1,.8,5.4v22.5Zm-16.1-3.8a15.264,15.264,0,0,0,3-.3,13.38389,13.38389,0,0,0,2.6-.9,11.35463,11.35463,0,0,0,2.3-1.5,13.36166,13.36166,0,0,0,2.1-2v-7.3a44.79583,44.79583,0,0,0-7.3.5,21.0841,21.0841,0,0,0-4.9,1.4,6.21126,6.21126,0,0,0-2.7,2.1,4.38758,4.38758,0,0,0-.9,2.7,4.93967,4.93967,0,0,0,.5,2.4,6.56948,6.56948,0,0,0,1.2,1.7,6.36905,6.36905,0,0,0,1.8,1,17.85227,17.85227,0,0,0,2.3.2Zm49.6-25.2a3.39357,3.39357,0,0,1-.6.6,1.07743,1.07743,0,0,1-.8.2,2.09714,2.09714,0,0,1-1.1-.4,15.76531,15.76531,0,0,0-1.6-1,15.955,15.955,0,0,0-2.3-1,9.34913,9.34913,0,0,0-3.3-.4,12.158,12.158,0,0,0-4.6.9,8.57741,8.57741,0,0,0-3.3,2.7,13.52231,13.52231,0,0,0-2,4.2,20.7502,20.7502,0,0,0-.7,5.5,22.24382,22.24382,0,0,0,.7,5.7,11.85444,11.85444,0,0,0,2.1,4.2,9.923,9.923,0,0,0,3.2,2.6,10.35622,10.35622,0,0,0,4.3.9,11.41531,11.41531,0,0,0,3.7-.5,8.98872,8.98872,0,0,0,2.4-1.2c.6-.4,1.1-.8,1.6-1.2a1.84512,1.84512,0,0,1,1.2-.5,1.42557,1.42557,0,0,1,1.2.6l1.8,2.3a12.62006,12.62006,0,0,1-5.8,4.1,20.06837,20.06837,0,0,1-7.3,1.3,15.79713,15.79713,0,0,1-6.1-1.2,13.33187,13.33187,0,0,1-4.9-3.5,16.364,16.364,0,0,1-3.3-5.7,25.04284,25.04284,0,0,1-.1-15,18.2949,18.2949,0,0,1,3.2-5.8,15.21351,15.21351,0,0,1,5.2-3.8,19.51414,19.51414,0,0,1,7.1-1.4,17.84845,17.84845,0,0,1,6.5,1.2,15.7202,15.7202,0,0,1,5.1,3.4l-1.5,2.2Zm19.1,29.5a8.34689,8.34689,0,0,1-6.4-2.3c-1.5-1.6-2.2-3.8-2.2-6.7v-21.6h-4.3a1.39606,1.39606,0,0,1-.9-.3,1.28389,1.28389,0,0,1-.4-1v-2.5l5.8-.7,1.4-10.9a1.38245,1.38245,0,0,1,.5-.9,1.20867,1.20867,0,0,1,1-.3h3.1v12.2h10.1v4.5h-10.1v21.2a4.42919,4.42919,0,0,0,1.1,3.3,3.92789,3.92789,0,0,0,2.8,1.1,5.0797,5.0797,0,0,0,1.7-.3,6.72088,6.72088,0,0,0,1.2-.6,7.01823,7.01823,0,0,0,.9-.6l.6-.3a1.1492,1.1492,0,0,1,.9.6l1.8,3a12.79963,12.79963,0,0,1-3.9,2.4,12.49025,12.49025,0,0,1-4.7.7Zm54.5-.3v-18.2h-16.9v18.2h-15.4v-47.9h15.4v17.5h16.9v-17.5h15.4v47.9Zm67.2-4.3c-4.1,3.4-10,5.2-17.6,5.2s-13.5-1.7-17.7-5.2c-4.2-3.4-6.2-8.4-6.2-15v-28.6h15.4v28.4a8.52531,8.52531,0,1,0,17,0v-28.5h15.4v28.6C363.27,454.47,361.17,459.47,357.07,462.87Zm55.1-42.1a11.48689,11.48689,0,0,1,4.8,4.2,10.90256,10.90256,0,0,1,1.8,6.1c0,5.9-2.7,9.6-8,11.1v.3c6.1,1.4,9.1,5.4,9.1,12a11.817,11.817,0,0,1-1.9,6.6,12.75217,12.75217,0,0,1-5,4.5,15.59668,15.59668,0,0,1-7,1.6h-32.4v-47.9h31.9a15.60342,15.60342,0,0,1,6.7,1.5Zm-23.2,17.2h10.6a3.2501,3.2501,0,0,0,2.5-1.1,3.77529,3.77529,0,0,0,1-2.7v-.7a3.54136,3.54136,0,0,0-1-2.6,3.40805,3.40805,0,0,0-2.5-1.1h-10.6v8.2Zm0,18.1h11.7a3.25011,3.25011,0,0,0,2.5-1.1,3.77533,3.77533,0,0,0,1-2.7v-.7a3.77529,3.77529,0,0,0-1-2.7,3.58053,3.58053,0,0,0-2.5-1.1h-11.7v8.3Z"/><path class="cls-1" d="M370.67,267.57V129.97a34.56055,34.56055,0,0,0-17.2-29.8l-120.4-68.8a34.61972,34.61972,0,0,0-34.4,0l-120.5,68.8a34.43849,34.43849,0,0,0-17.2,29.8v137.6a34.56051,34.56051,0,0,0,17.2,29.8l120.5,68.8a34.61972,34.61972,0,0,0,34.4,0l120.4-68.8a34.56056,34.56056,0,0,0,17.2-29.8Z"/><path class="cls-1" d="M215.87207,373.24805a36.98553,36.98553,0,0,1-18.44922-4.91114L76.93018,299.541a37.2188,37.2188,0,0,1-18.46-31.97071V129.97021A36.96219,36.96219,0,0,1,76.92285,98.00293L197.43018,29.19922a37.10375,37.10375,0,0,1,36.8872.0039L354.71,97.99951a37.21923,37.21923,0,0,1,18.46,31.9707v137.6001a37.2092,37.2092,0,0,1-18.43847,31.958l-120.4209,68.8125A36.97581,36.97581,0,0,1,215.87207,373.24805Zm-.00391-343.95752A31.97268,31.97268,0,0,0,199.917,33.53711L79.40967,102.34082a31.94512,31.94512,0,0,0-15.93946,27.62939v137.6001a32.19079,32.19079,0,0,0,15.96192,27.6416L199.90967,363.999a32.09055,32.09055,0,0,0,31.91357.00391l120.40625-68.80371a32.18016,32.18016,0,0,0,15.94043-27.62891V129.97021A32.191,32.191,0,0,0,352.208,102.32812L231.83008,33.54053A32.00108,32.00108,0,0,0,215.86816,29.29053Z"/><path class="cls-2" d="M215.87,385.77a49.64535,49.64535,0,0,1-24.7-6.6l-120.4-68.8a49.60877,49.60877,0,0,1-24.8-42.8V129.97a49.26516,49.26516,0,0,1,24.7-42.7l120.5-68.8a49.33193,49.33193,0,0,1,49.3,0l120.4,68.7a49.60878,49.60878,0,0,1,24.8,42.8v137.7a49.47547,49.47547,0,0,1-24.7,42.7l-120.5,68.8a49.5551,49.5551,0,0,1-24.6,6.6Zm0-343.9a19.585,19.585,0,0,0-9.7,2.6l-120.5,68.7a19.38961,19.38961,0,0,0-9.6,16.8v137.6a19.48328,19.48328,0,0,0,9.7,16.8l120.3,68.8a19.41941,19.41941,0,0,0,19.5,0l120.5-68.8a19.38962,19.38962,0,0,0,9.6-16.8V129.97a19.48332,19.48332,0,0,0-9.7-16.8l-120.4-68.8a18.25679,18.25679,0,0,0-9.7-2.5h0Zm154.8,225.7Z"/><path class="cls-1" d="M215.87012,388.26953a52.25226,52.25226,0,0,1-25.94336-6.93066L69.52979,312.541a52.31347,52.31347,0,0,1-26.05958-44.957V129.97021A51.89172,51.89172,0,0,1,69.42334,85.103L189.93018,16.29932a51.96532,51.96532,0,0,1,51.79248.00732l120.38672,68.6919a52.3165,52.3165,0,0,1,26.06054,44.95751V267.66992a52.03472,52.03472,0,0,1-25.94726,44.86426L241.709,381.34082A52.05519,52.05519,0,0,1,215.87012,388.26953Zm-.0166-373.87988a47.0005,47.0005,0,0,0-23.437,6.24756L71.90967,89.44092a46.87593,46.87593,0,0,0-23.43946,40.52929v137.6001A47.28835,47.28835,0,0,0,72.0166,308.20312L192.41016,376.999a46.83355,46.83355,0,0,0,46.8164.002l120.50391-68.80176a47.01228,47.01228,0,0,0,23.43945-40.5293V129.97021a47.29242,47.29242,0,0,0-23.5459-40.6333L239.23047,20.6416A46.6443,46.6443,0,0,0,215.85352,14.38965Zm-.06934,343.88867a21.75977,21.75977,0,0,1-10.97412-2.94922L84.52881,286.54a22.0582,22.0582,0,0,1-10.959-18.96973V129.97021a22.00019,22.00019,0,0,1,10.84034-18.96L204.93164,42.29834A21.94825,21.94825,0,0,1,215.834,39.37012a20.90314,20.90314,0,0,1,11.001,2.84326L347.21,110.99951a22.0586,22.0586,0,0,1,10.96,18.9707v137.6001a21.99815,21.99815,0,0,1-10.83984,18.959L226.80957,355.34082A22.16177,22.16177,0,0,1,215.78418,358.27832Zm.08594-313.9082a17.00128,17.00128,0,0,0-8.46778,2.2749L86.9082,115.3418a16.97273,16.97273,0,0,0-8.33838,14.62841v137.6001a17.03314,17.03314,0,0,0,8.46,14.64063L207.311,351a17.024,17.024,0,0,0,17.01513.001l120.50488-68.80176a16.97413,16.97413,0,0,0,8.33887-14.62891V129.97021a17.03149,17.03149,0,0,0-8.46-14.64062L224.33008,46.54053a15.787,15.787,0,0,0-8.38672-2.17139Z"/></svg>
