<svg id="Layer_1" data-name="Layer 1" xmlns="http://www.w3.org/2000/svg" viewBox="0 0 853 208"><defs><style>.cls-1{fill:#fff;}.cls-2{fill:#417598;}.cls-3{fill:none;}</style></defs><path class="cls-1" d="M171.54217,47.63543,109.43727,12.199a24.223,24.223,0,0,0-24.14894-.00227L23.125,47.68908a24.18091,24.18091,0,0,0-12.09122,20.907V139.577a24.39364,24.39364,0,0,0,12.14638,20.96039l62.1049,35.4883a24.159,24.159,0,0,0,24.1502.001l62.16182-35.49132a24.25124,24.25124,0,0,0,12.09122-20.907V68.59608A24.39577,24.39577,0,0,0,171.54217,47.63543ZM91.68154,184.84724l-62.047-35.48477a11.37866,11.37866,0,0,1-5.65318-9.78551V68.59608a11.3488,11.3488,0,0,1,5.592-9.78048l62.17089-35.445a11.322,11.322,0,0,1,5.624-1.51052,10.78286,10.78286,0,0,1,5.67484,1.46669l62.09533,35.48326a11.37891,11.37891,0,0,1,5.65368,9.786V139.577a11.3477,11.3477,0,0,1-5.59172,9.78L103.03,184.85329a11.43219,11.43219,0,0,1-5.68744,1.5153A11.22476,11.22476,0,0,1,91.68154,184.84724Z"/><path class="cls-2" d="M186.26754,68.58878a26.98745,26.98745,0,0,0-13.4433-23.1913L110.72286,9.96284a26.80623,26.80623,0,0,0-26.7171-.00378L21.84243,45.45138a26.7683,26.7683,0,0,0-13.3879,23.1447V139.584a26.98585,26.98585,0,0,0,13.44281,23.191L84.004,198.26436a26.73784,26.73784,0,0,0,26.71181.001l62.16686-35.49384a26.84205,26.84205,0,0,0,13.38487-23.14318Zm-2.57924,71.03956a24.25124,24.25124,0,0,1-12.09122,20.907l-62.16182,35.49132a24.159,24.159,0,0,1-24.1502-.001l-62.1049-35.4883A24.39364,24.39364,0,0,1,11.03378,139.577V68.59608A24.18091,24.18091,0,0,1,23.125,47.68908L85.28833,12.19675a24.223,24.223,0,0,1,24.14894.00227l62.1049,35.43641A24.39577,24.39577,0,0,1,183.6883,68.59608Z"/><path class="cls-2" d="M165.20035,149.35693a11.3477,11.3477,0,0,0,5.59172-9.78V68.59608a11.37891,11.37891,0,0,0-5.65368-9.786L103.04306,23.3268a10.78286,10.78286,0,0,0-5.67484-1.46669,11.322,11.322,0,0,0-5.624,1.51052L29.57336,58.8156a11.3488,11.3488,0,0,0-5.592,9.78048V139.577a11.37866,11.37866,0,0,0,5.65318,9.78551l62.047,35.48477a11.22476,11.22476,0,0,0,5.661,1.52135,11.43219,11.43219,0,0,0,5.68744-1.5153Z"/><path class="cls-3" d="M817.33994,96.22623a5.72911,5.72911,0,0,0,1.51754-4.09737V91.06657a5.37427,5.37427,0,0,0-1.51754-3.94566,5.17163,5.17163,0,0,0-3.79384-1.66926H797.46022V97.89549H813.5461A4.932,4.932,0,0,0,817.33994,96.22623Z"/><path class="cls-3" d="M257.06474,75.73937c-.30353,1.51754-.75877,2.73155-1.0623,3.94566s-.75877,2.2763-1.0622,3.18679l-12.1404,30.806h28.378L259.341,82.87182A55.799,55.799,0,0,1,257.06474,75.73937Z"/><path class="cls-3" d="M456.77285,120.81028a9.42591,9.42591,0,0,0-4.09737,3.18689,6.6586,6.6586,0,0,0-1.36573,4.09737,7.49542,7.49542,0,0,0,.75877,3.642,9.96789,9.96789,0,0,0,1.821,2.57983,9.6636,9.6636,0,0,0,2.73164,1.51754,27.08122,27.08122,0,0,0,3.49032.30352,23.16552,23.16552,0,0,0,4.55252-.45524,20.30725,20.30725,0,0,0,3.94566-1.36582A17.22774,17.22774,0,0,0,472.1,132.0401a20.27809,20.27809,0,0,0,3.18689-3.03507V117.927a67.97626,67.97626,0,0,0-11.07811.75877A31.99937,31.99937,0,0,0,456.77285,120.81028Z"/><path class="cls-3" d="M815.21535,112.76735H797.46013V125.3629l.00009.00009h17.75513a4.93212,4.93212,0,0,0,3.79385-1.66935,5.72914,5.72914,0,0,0,1.51753-4.09737V118.534a5.72918,5.72918,0,0,0-1.51753-4.09737A5.43346,5.43346,0,0,0,815.21535,112.76735Z"/><path class="cls-2" d="M422.47652,66.1789a18.13212,18.13212,0,0,0-5.76672,3.79384,15.48675,15.48675,0,0,0-3.642,6.07016,25.78078,25.78078,0,0,0-1.36582,8.19474v5.15958h-8.49818v3.79384a2.437,2.437,0,0,0,.75877,1.66935,9.28266,9.28266,0,0,0,1.82107.75877l5.91834.75877V141.9041l9.56047-.15171v-45.678H436.4378V89.2455H420.95889V84.38936a18.2573,18.2573,0,0,1,.75877-5.76663,7.29123,7.29123,0,0,1,2.12459-3.79384,7.85752,7.85752,0,0,1,3.3386-2.1245,14.03115,14.03115,0,0,1,4.40081-.60706H433.251a6.36334,6.36334,0,0,0,2.428-.15171,1.154,1.154,0,0,0,.91058-1.214l.15171-4.70443a19.85172,19.85172,0,0,0-6.67711-1.06229A18.54683,18.54683,0,0,0,422.47652,66.1789Z"/><path class="cls-2" d="M479.53593,93.19116a15.99086,15.99086,0,0,0-5.91844-4.09738,21.03139,21.03139,0,0,0-8.04294-1.51753A29.16566,29.16566,0,0,0,454.193,89.70074a31.02185,31.02185,0,0,0-9.56048,6.37368l1.66926,3.03508a4.61949,4.61949,0,0,0,1.214,1.214,3.05917,3.05917,0,0,0,1.66935.45525,3.72111,3.72111,0,0,0,2.428-.91049c.75877-.60705,1.82107-1.214,2.88336-1.97278a25.24206,25.24206,0,0,1,4.09737-1.97278,18.343,18.343,0,0,1,5.76663-.91058,9.17692,9.17692,0,0,1,7.89122,3.18688c1.821,2.1246,2.73155,5.15967,2.73155,9.40876v4.24909a73.95935,73.95935,0,0,0-15.32719,1.51754,35.84874,35.84874,0,0,0-10.16744,3.79384,15.30683,15.30683,0,0,0-5.61491,5.15958,12.16591,12.16591,0,0,0-1.66935,6.07015,17.63824,17.63824,0,0,0,1.21411,6.37368,13.11394,13.11394,0,0,0,3.18679,4.4009,14.27731,14.27731,0,0,0,4.70443,2.57984,20.03293,20.03293,0,0,0,5.91834.91048,33.47683,33.47683,0,0,0,5.61491-.607,17.06319,17.06319,0,0,0,4.70433-1.51754,24.42,24.42,0,0,0,4.24919-2.57983,39.59921,39.59921,0,0,0,4.09728-3.3386l1.06229,5.00785a2.314,2.314,0,0,0,1.0623,1.82107,6.09072,6.09072,0,0,0,2.2763.45524H484.392V107.75949a30.61468,30.61468,0,0,0-1.214-8.19465A17.86314,17.86314,0,0,0,479.53593,93.19116ZM475.28684,129.005A20.27809,20.27809,0,0,1,472.1,132.0401a17.22774,17.22774,0,0,1-3.49032,2.27631,20.30725,20.30725,0,0,1-3.94566,1.36582,23.16552,23.16552,0,0,1-4.55252.45524,27.08122,27.08122,0,0,1-3.49032-.30352,9.6636,9.6636,0,0,1-2.73164-1.51754,9.96789,9.96789,0,0,1-1.821-2.57983,7.49542,7.49542,0,0,1-.75877-3.642,6.6586,6.6586,0,0,1,1.36573-4.09737,9.42591,9.42591,0,0,1,4.09737-3.18689,31.99937,31.99937,0,0,1,7.43588-2.1245,67.97626,67.97626,0,0,1,11.07811-.75877Z"/><path class="cls-2" d="M393.03624,66.786a6.80295,6.80295,0,0,0-4.70434-2.12459,7.14869,7.14869,0,0,0-2.57983.60705,6.59974,6.59974,0,0,0-3.64213,3.642,4.9882,4.9882,0,0,0-.607,2.57983,7.15692,7.15692,0,0,0,4.24909,6.222,4.988,4.988,0,0,0,2.57983.607,7.14855,7.14855,0,0,0,2.57974-.607,10.77561,10.77561,0,0,0,2.1246-1.51754,6.84214,6.84214,0,0,0,1.51753-2.12459,4.98791,4.98791,0,0,0,.607-2.57984,7.14893,7.14893,0,0,0-.607-2.57983A6.84063,6.84063,0,0,0,393.03624,66.786Z"/><path class="cls-2" d="M830.54254,104.72441v-.45524c8.04294-2.27631,12.14031-7.89122,12.14031-16.84464a16.5452,16.5452,0,0,0-2.73155-9.257,17.43252,17.43252,0,0,0-7.28417-6.37368v.00009a23.67883,23.67883,0,0,0-10.16752-2.27631H774.0901v72.69h49.16828a23.66927,23.66927,0,0,0,10.62277-2.428,19.35223,19.35223,0,0,0,7.58769-6.82892,17.93294,17.93294,0,0,0,2.88327-10.01581C844.35211,112.91916,839.79949,106.849,830.54254,104.72441ZM797.46022,85.45165H813.5461a5.17163,5.17163,0,0,1,3.79384,1.66926,5.37427,5.37427,0,0,1,1.51754,3.94566v1.06229a5.72911,5.72911,0,0,1-1.51754,4.09737,4.932,4.932,0,0,1-3.79384,1.66926H797.46022Zm23.06651,34.14462a5.72914,5.72914,0,0,1-1.51753,4.09737,4.93212,4.93212,0,0,1-3.79385,1.66935H797.46022l-.00009-.00009V112.76735h17.75522a5.43346,5.43346,0,0,1,3.79385,1.66925,5.72918,5.72918,0,0,1,1.51753,4.09737Z"/><path class="cls-2" d="M368.30038,132.49535l-.91058.45524a10.65242,10.65242,0,0,1-1.36573.91058,10.20416,10.20416,0,0,1-1.82106.91048,7.70706,7.70706,0,0,1-2.57984.45525,6.23016,6.23016,0,0,1-4.24909-1.66926,6.722,6.722,0,0,1-1.66935-5.00786V96.378h15.3272V89.549h-15.3272V71.035H351.0004a2.56351,2.56351,0,0,0-1.51754.45524,2.727,2.727,0,0,0-.60705,1.36582l-2.1245,16.54112-8.8017,1.06229v3.79385a1.94828,1.94828,0,0,0,.607,1.51754,2.11854,2.11854,0,0,0,1.36582.45524h6.37368V129.005c0,4.40089,1.0622,7.7394,3.33851,10.16752a12.66681,12.66681,0,0,0,9.71228,3.49032,18.95431,18.95431,0,0,0,7.13245-1.06229,19.42232,19.42232,0,0,0,5.91835-3.642l-2.73155-4.55262A1.744,1.744,0,0,0,368.30038,132.49535Z"/><path class="cls-2" d="M251.75335,66.1789l-30.35077,75.7252h7.89122a3.72775,3.72775,0,0,0,2.27631-.75877,6.73964,6.73964,0,0,0,1.214-1.66934l7.13245-18.21047h33.9929l7.13236,18.21047a3.18227,3.18227,0,0,0,1.2141,1.66934,3.42959,3.42959,0,0,0,2.27631.75877h7.89112l-30.199-75.7252Zm-8.95351,47.49893,12.1404-30.806c.30343-.91049.75877-1.97278,1.0622-3.18679s.75877-2.42812,1.0623-3.94566a55.799,55.799,0,0,0,2.2763,7.13245l11.83679,30.806Z"/><path class="cls-2" d="M316.24874,90.45951a25.57264,25.57264,0,0,0-6.82893,8.80171l-.607-8.34646a3.19633,3.19633,0,0,0-.75877-1.97279,2.7195,2.7195,0,0,0-2.12459-.607h-5.4631V141.9041h9.56048V107.75949A20.51544,20.51544,0,0,1,315.49,99.413a11.57357,11.57357,0,0,1,8.19474-2.88327,10.19718,10.19718,0,0,1,4.24909.45524,6.09055,6.09055,0,0,0,2.27631.45525,1.778,1.778,0,0,0,1.66925-1.36583l1.21411-6.98064a12.88125,12.88125,0,0,0-3.33861-1.36582A16.39481,16.39481,0,0,0,316.24874,90.45951Z"/><path class="cls-2" d="M573.31978,132.49535l-.91048.45524a10.6477,10.6477,0,0,1-1.36583.91058,10.20116,10.20116,0,0,1-1.82106.91048,7.707,7.707,0,0,1-2.57983.45525,5.96071,5.96071,0,0,1-4.24909-1.66926,6.72153,6.72153,0,0,1-1.66926-5.00786V96.378h15.3271V89.549h-15.3271V71.035h-4.70442a1.83435,1.83435,0,0,0-1.51754.45524,2.098,2.098,0,0,0-.75877,1.36582L551.619,89.39722l-8.8017,1.06229v3.79385a1.94825,1.94825,0,0,0,.607,1.51754,2.1185,2.1185,0,0,0,1.36582.45524h6.52539V129.005c0,4.40089,1.0623,7.7394,3.33861,10.16752a12.66661,12.66661,0,0,0,9.71219,3.49032,18.9541,18.9541,0,0,0,7.13245-1.06229,19.42381,19.42381,0,0,0,5.91843-3.642l-2.73155-4.55262A1.744,1.744,0,0,0,573.31978,132.49535Z"/><rect class="cls-2" x="383.62748" y="88.33501" width="9.40876" height="53.56909"/><path class="cls-2" d="M533.712,130.21913a2.79991,2.79991,0,0,0-1.82106.75877c-.75877.607-1.51754,1.214-2.428,1.82106a13.64039,13.64039,0,0,1-3.64213,1.82107,17.32419,17.32419,0,0,1-5.61491.75877,15.71518,15.71518,0,0,1-6.52539-1.36582,15.05859,15.05859,0,0,1-4.85614-3.94557,17.98912,17.98912,0,0,1-3.1868-6.37368,33.756,33.756,0,0,1-1.06229-8.65,31.48913,31.48913,0,0,1,1.06229-8.34646,20.51888,20.51888,0,0,1,3.03508-6.37368,13.01631,13.01631,0,0,1,5.00786-4.09738,18.44942,18.44942,0,0,1,6.98073-1.36582,14.18913,14.18913,0,0,1,5.00786.60705,24.20977,24.20977,0,0,1,3.49032,1.51754,23.92709,23.92709,0,0,1,2.42811,1.51754,3.18282,3.18282,0,0,0,1.66926.607,1.6349,1.6349,0,0,0,1.214-.30353,5.14931,5.14931,0,0,0,.91058-.91048l-.00009.00009,2.27631-3.3386a23.85643,23.85643,0,0,0-7.73941-5.15967,27.08667,27.08667,0,0,0-9.864-1.82106,29.61267,29.61267,0,0,0-10.77458,2.12459,23.08509,23.08509,0,0,0-7.89113,5.76662,27.7621,27.7621,0,0,0-4.85614,8.80171,38.00276,38.00276,0,0,0,.15172,22.76307,24.83334,24.83334,0,0,0,5.00786,8.65,20.23144,20.23144,0,0,0,7.436,5.31139,23.97381,23.97381,0,0,0,9.25695,1.82106,30.45629,30.45629,0,0,0,11.0781-1.97278,19.15172,19.15172,0,0,0,8.80171-6.222l-2.73155-3.49032A2.16349,2.16349,0,0,0,533.712,130.21913Z"/><polygon class="cls-2" points="647.072 96.074 621.426 96.074 621.426 69.518 598.056 69.518 598.056 142.208 621.426 142.208 621.426 114.588 647.072 114.588 647.072 142.208 670.442 142.208 670.442 69.518 647.072 69.518 647.072 96.074"/><path class="cls-2" d="M735.24115,112.61563a14.30273,14.30273,0,0,1-3.3386,9.71219,14.36923,14.36923,0,0,1-19.121,0,14.30274,14.30274,0,0,1-3.33861-9.71219V69.5175h-23.37v43.40166c0,10.01571,3.03507,17.6034,9.40875,22.76307,6.37368,5.31139,15.32711,7.89122,26.86045,7.89122s20.48677-2.73164,26.70864-7.89122,9.40876-12.74736,9.56048-22.91488V69.36578h-23.37Z"/></svg>
