<svg xmlns="http://www.w3.org/2000/svg" width="147" height="20">
  <path
    d="M39.292 16.81h-1.48a.643.643 0 01-.427-.142.597.597 0 01-.227-.313L35.82 12.94h-6.375l-1.338 3.415a1.263 1.263 0 01-.228.313.7.7 0 01-.427.143h-1.48l5.692-14.203h1.964l5.664 14.203m-9.307-5.294h5.322l-2.22-5.778c-.17-.427-.313-.882-.426-1.338-.057.285-.143.513-.2.74-.056.228-.142.427-.199.598l-2.277 5.778z"
    fill-rule="evenodd"
    fill="#fff"
  />
  <path
    d="M40.8 16.81V6.765h1.025a.51.51 0 01.399.114.6.6 0 01.142.37l.114 1.565a4.797 4.797 0 011.28-1.65c.712-.542 1.651-.712 2.534-.513.227.057.427.142.626.256l-.228 1.31a.334.334 0 01-.313.255c-.142 0-.285-.028-.427-.085a1.912 1.912 0 00-.797-.085 2.17 2.17 0 00-1.537.54 3.848 3.848 0 00-1.024 1.566v6.404H40.8z"
    fill-rule="evenodd"
    fill="#fff"
  />
  <path
    d="M51.844 16.953a2.376 2.376 0 01-1.822-.655c-.427-.455-.626-1.081-.626-1.906V8.244h-1.195c-.086 0-.2-.029-.257-.086a.365.365 0 01-.113-.284v-.712l1.65-.199.399-3.102c0-.086.057-.171.114-.256a.48.48 0 01.284-.086h.883v3.472h2.874v1.281h-2.874v6.034a1.26 1.26 0 00.313.94c.199.199.512.312.797.312.17 0 .313-.028.483-.085.114-.057.228-.085.342-.17.114-.058.17-.115.256-.171l.171-.086c.114 0 .2.086.256.17l.512.855a3.642 3.642 0 01-1.11.683 3.554 3.554 0 01-1.337.199z"
    fill-rule="evenodd"
    fill="#fff"
  />
  <path
    d="M58.56 3.605c0 .17-.028.341-.113.483-.057.143-.171.285-.285.399-.114.114-.256.2-.398.284a1.34 1.34 0 01-.484.114.936.936 0 01-.484-.114 1.34 1.34 0 01-.797-1.167c0-.17.029-.341.114-.483.114-.313.37-.541.683-.683.142-.057.313-.114.484-.114.17 0 .341.028.484.114a.944.944 0 01.398.284c.114.114.228.256.285.399.057.142.114.313.114.484m-.399 3.159V16.81h-1.764V6.764h1.764z"
    fill-rule="evenodd"
    fill="#fff"
  />
  <path
    d="M61.663 16.81V8.273l-1.11-.142c-.114-.029-.228-.085-.342-.142a.457.457 0 01-.142-.313v-.712h1.594v-.968c0-.512.085-1.024.256-1.537.142-.427.37-.825.683-1.138a3.4 3.4 0 011.082-.712c.455-.17.939-.256 1.423-.227.427 0 .854.057 1.252.199l-.028.882c0 .114-.057.2-.171.228-.142.028-.285.057-.456.028h-.313c-.284 0-.569.029-.825.114-.228.086-.455.2-.626.399-.2.199-.342.427-.399.711-.113.342-.142.712-.142 1.082v.91h2.903v1.281h-2.846v8.567l-1.793.029z"
    fill-rule="evenodd"
    fill="#fff"
  />
  <path
    d="M75.325 16.81h-.797c-.143 0-.285-.028-.427-.085-.114-.085-.2-.199-.2-.341l-.199-.94a7.414 7.414 0 01-.768.627c-.256.199-.513.341-.797.484a3.2 3.2 0 01-.883.284c-.341.057-.683.114-1.053.114-.37 0-.74-.057-1.11-.17-.313-.115-.626-.257-.882-.485a2.46 2.46 0 01-.597-.825 3.306 3.306 0 01-.228-1.195c0-.399.114-.797.313-1.139.256-.398.626-.74 1.053-.967a6.725 6.725 0 011.907-.712c.94-.2 1.907-.285 2.874-.285v-.797c0-.797-.17-1.366-.512-1.764a1.72 1.72 0 00-1.48-.598c-.37 0-.74.057-1.081.17-.257.086-.513.229-.769.37-.2.143-.398.257-.54.37a.698.698 0 01-.456.172.574.574 0 01-.313-.086.866.866 0 01-.228-.227l-.313-.57a5.818 5.818 0 011.793-1.195c.683-.285 1.395-.399 2.135-.399.512 0 1.025.086 1.508.285a3 3 0 011.11.769c.313.341.541.768.683 1.195.143.512.228 1.025.228 1.537v6.404h.028m-4.582-1.082c.285 0 .57-.028.854-.085.256-.057.484-.143.74-.256.228-.114.456-.256.655-.427.227-.171.427-.37.597-.57v-2.077c-.683 0-1.394.028-2.077.142-.484.085-.94.2-1.395.399-.313.113-.57.341-.768.597-.171.228-.257.484-.257.769 0 .227.029.484.143.683.085.17.199.341.341.484.143.114.342.227.513.284.227.029.427.057.654.057z"
    fill-rule="evenodd"
    fill="#fff"
  />
  <g>
    <path
      d="M84.86 8.557c-.058.057-.086.114-.172.17-.056.058-.142.058-.227.058a.597.597 0 01-.313-.114 4.478 4.478 0 00-.456-.285c-.199-.114-.427-.2-.654-.285-.313-.085-.626-.142-.94-.113a3.46 3.46 0 00-1.309.256 2.44 2.44 0 00-.939.768 3.85 3.85 0 00-.57 1.196 5.906 5.906 0 00-.198 1.565c0 .54.056 1.082.199 1.622.114.427.313.826.597 1.196.257.313.57.569.911.74.37.17.797.256 1.224.256.37 0 .712-.029 1.053-.142.256-.086.484-.2.683-.342.171-.114.313-.228.456-.341a.525.525 0 01.341-.143c.142 0 .256.057.342.171l.512.655c-.427.54-.996.939-1.65 1.166a5.71 5.71 0 01-2.079.37 4.496 4.496 0 01-1.736-.341 3.797 3.797 0 01-1.394-.996 4.657 4.657 0 01-.94-1.623c-.227-.711-.37-1.451-.341-2.191 0-.712.085-1.395.313-2.078.2-.597.512-1.167.91-1.65a4.33 4.33 0 011.48-1.082 5.555 5.555 0 012.022-.399c.626 0 1.28.114 1.85.342.54.228 1.024.54 1.451.968l-.427.626z"
      fill-rule="evenodd"
      fill="#fff"
    />
  </g>
  <g>
    <path
      d="M90.295 16.953a2.375 2.375 0 01-1.821-.655c-.427-.455-.626-1.081-.626-1.906V8.244h-1.224c-.086 0-.2-.029-.256-.086a.365.365 0 01-.114-.284v-.712l1.65-.199.399-3.102c0-.086.057-.171.142-.256.086-.057.171-.114.285-.086h.882v3.472h2.875v1.281h-2.875v6.034a1.26 1.26 0 00.313.94c.2.199.484.312.797.312.171 0 .313-.028.484-.085.114-.057.228-.085.342-.17.114-.058.17-.115.256-.171l.17-.086c.114 0 .2.086.257.17l.512.855a3.64 3.64 0 01-1.11.683 3.554 3.554 0 01-1.338.199z"
      fill-rule="evenodd"
      fill="#fff"
    />
  </g>
  <g>
    <path
      d="M105.807 16.868v-5.18h-4.81v5.18h-4.383V3.235h4.383v4.98h4.81v-4.98h4.383v13.633h-4.383z"
      fill-rule="evenodd"
      fill="#fff"
    />
  </g>
  <g>
    <path
      d="M124.933 15.644c-1.167.967-2.846 1.48-5.009 1.48-2.163 0-3.842-.484-5.038-1.48-1.195-.968-1.764-2.391-1.764-4.27v-8.14h4.383v8.084a2.68 2.68 0 00.626 1.821c1.024.911 2.561.911 3.586 0a2.68 2.68 0 00.626-1.821V3.206h4.383v8.14c-.028 1.907-.626 3.33-1.793 4.298z"
      fill-rule="evenodd"
      fill="#fff"
    />
  </g>
  <g>
    <path
      d="M140.615 3.661c.57.257 1.025.684 1.367 1.196.341.512.512 1.11.512 1.736 0 1.68-.769 2.732-2.277 3.16v.085c1.736.398 2.59 1.537 2.59 3.415 0 .655-.171 1.338-.541 1.879-.341.54-.854.996-1.423 1.28a4.436 4.436 0 01-1.992.456h-9.222V3.235h9.08c.654 0 1.309.142 1.906.426m-6.603 4.896h3.017a.926.926 0 00.712-.313c.199-.2.284-.484.284-.769v-.199c0-.285-.085-.54-.284-.74a.972.972 0 00-.712-.313h-3.017v2.334m0 5.151h3.33a.926.926 0 00.712-.313c.199-.199.285-.483.285-.768v-.2c0-.284-.086-.569-.285-.768a1.018 1.018 0 00-.712-.313h-3.33v2.362z"
      fill-rule="evenodd"
      fill="#fff"
    />
  </g>
  <g>
    <path
      d="M18.97 13.674V6.806c0-.613-.327-1.179-.858-1.485l-6.01-3.434a1.717 1.717 0 00-1.716 0L4.376 5.32c-.53.306-.858.872-.858 1.485v6.868c0 .613.327 1.179.858 1.485l6.01 3.434a1.717 1.717 0 001.717 0l6.01-3.434c.53-.306.857-.872.858-1.485z"
      stroke="#fff"
      stroke-width="2"
      stroke-line-join="round"
      stroke-miterlimit="2"
      stroke-linecap="round"
      fill="none"
    />
  </g>
</svg>
