<?xml version='1.0' encoding='utf-8'?>
<!-- Generator: imaengine 6.0   -->
<svg xmlns:xlink="http://www.w3.org/1999/xlink" xmlns="http://www.w3.org/2000/svg" viewBox="0,0,23,23" style="enable-background:new 0 0 23 23;" version="1.1">
<defs/>
<g id="layer0" visibility="hidden">
<path d="M0,0L23,0L23,23L0,23L0,0Z" fill="#F3F3F3"/>
<path d="M1,1L11,1L11,11L1,11L1,1Z" fill="#F35325"/>
<path d="M12,1L22,1L22,11L12,11L12,1Z" fill="#81BC06"/>
<path d="M1,12L11,12L11,22L1,22L1,12Z" fill="#05A6F0"/>
<path d="M12,12L22,12L22,22L12,22L12,12Z" fill="#FFBA08"/>
</g>
<g id="layer1">
<g transform="matrix(1 0 0 1 2.43635 1.79954)">
<path d="M2.928,4.128C2.90667,4.34133 2.888,4.528 2.872,4.688C2.856,4.848 2.84267,5.01067 2.832,5.176C2.82133,5.34133 2.81067,5.52267 2.8,5.72C2.78933,5.91733 2.784,6.16 2.784,6.448C3.06133,6.17067 3.34933,5.984 3.648,5.888C3.94667,5.792 4.32,5.744 4.768,5.744C5.86667,5.744 6.736,6.12267 7.376,6.88C8.016,7.63733 8.336,8.624 8.336,9.84C8.336,10.48 8.24267,11.072 8.056,11.616C7.86933,12.16 7.62133,12.6347 7.312,13.04C6.98133,13.4453 6.58667,13.7493 6.128,13.952C5.66933,14.1547 5.152,14.256 4.576,14.256C3.75467,14.256 3.09867,14.0427 2.608,13.616C2.52267,13.9573 2.272,14.128 1.856,14.128C1.32267,14.128 1.056,13.8027 1.056,13.152C1.056,13.0773 1.056,13.008 1.056,12.944C1.056,12.88 1.06133,12.8267 1.072,12.784C1.072,12.6667 1.072,12.5493 1.072,12.432C1.072,12.3147 1.07733,12.1973 1.088,12.08L1.136,10.912C1.136,10.6987 1.14133,10.4453 1.152,10.152C1.16267,9.85867 1.168,9.60533 1.168,9.392L1.136,5.344C1.12533,5.056 1.10667,4.86133 1.08,4.76C1.05333,4.65867 1.008,4.608 0.944,4.608C0.901333,4.608 0.778667,4.62933 0.576,4.672C0.522667,4.68267 0.469333,4.688 0.416,4.688C0.362667,4.688 0.309333,4.688 0.256,4.688C-0.256,4.688 -0.512,4.45867 -0.512,4C-0.512,3.52 -0.224,3.28 0.352,3.28C0.405333,3.28 0.466667,3.28 0.536,3.28C0.605333,3.28 0.661333,3.28533 0.704,3.296L1.008,3.344C1.02933,3.344 1.056,3.34667 1.088,3.352C1.12,3.35733 1.14667,3.36 1.168,3.36C1.22133,3.37067 1.26667,3.376 1.304,3.376C1.34133,3.376 1.376,3.376 1.408,3.376C1.45067,3.376 1.51467,3.37067 1.6,3.36C1.68533,3.34933 1.776,3.33333 1.872,3.312C2.032,3.28 2.18667,3.264 2.336,3.264C2.73067,3.264 2.928,3.47733 2.928,3.904L2.928,4.128ZM2.912,8.56C2.83733,8.85867 2.8,9.296 2.8,9.872C2.8,10.8107 2.87467,11.472 3.024,11.856C3.312,12.5067 3.82933,12.832 4.576,12.832C5.20533,12.832 5.69867,12.576 6.056,12.064C6.41333,11.552 6.592,10.864 6.592,10C6.592,9.11467 6.42133,8.42133 6.08,7.92C5.73867,7.41867 5.26933,7.168 4.672,7.168C4.45867,7.168 4.256,7.20267 4.064,7.272C3.872,7.34133 3.696,7.43733 3.536,7.56C3.376,7.68267 3.24267,7.82933 3.136,8C3.02933,8.17067 2.95467,8.35733 2.912,8.56L2.912,8.56Z" fill-rule="evenodd" fill="#211663"/>
<path d="M11.952,4.128C11.9307,4.34133 11.912,4.528 11.896,4.688C11.88,4.848 11.8667,5.01067 11.856,5.176C11.8453,5.34133 11.8347,5.52267 11.824,5.72C11.8133,5.91733 11.808,6.16 11.808,6.448C12.0853,6.17067 12.3733,5.984 12.672,5.888C12.9707,5.792 13.344,5.744 13.792,5.744C14.8907,5.744 15.76,6.12267 16.4,6.88C17.04,7.63733 17.36,8.624 17.36,9.84C17.36,10.48 17.2667,11.072 17.08,11.616C16.8933,12.16 16.6453,12.6347 16.336,13.04C16.0053,13.4453 15.6107,13.7493 15.152,13.952C14.6933,14.1547 14.176,14.256 13.6,14.256C12.7787,14.256 12.1227,14.0427 11.632,13.616C11.5467,13.9573 11.296,14.128 10.88,14.128C10.3467,14.128 10.08,13.8027 10.08,13.152C10.08,13.0773 10.08,13.008 10.08,12.944C10.08,12.88 10.0853,12.8267 10.096,12.784C10.096,12.6667 10.096,12.5493 10.096,12.432C10.096,12.3147 10.1013,12.1973 10.112,12.08L10.16,10.912C10.16,10.6987 10.1653,10.4453 10.176,10.152C10.1867,9.85867 10.192,9.60533 10.192,9.392L10.16,5.344C10.1493,5.056 10.1307,4.86133 10.104,4.76C10.0773,4.65867 10.032,4.608 9.968,4.608C9.92533,4.608 9.80267,4.62933 9.6,4.672C9.54667,4.68267 9.49333,4.688 9.44,4.688C9.38667,4.688 9.33333,4.688 9.28,4.688C8.768,4.688 8.512,4.45867 8.512,4C8.512,3.52 8.8,3.28 9.376,3.28C9.42933,3.28 9.49067,3.28 9.56,3.28C9.62933,3.28 9.68533,3.28533 9.728,3.296L10.032,3.344C10.0533,3.344 10.08,3.34667 10.112,3.352C10.144,3.35733 10.1707,3.36 10.192,3.36C10.2453,3.37067 10.2907,3.376 10.328,3.376C10.3653,3.376 10.4,3.376 10.432,3.376C10.4747,3.376 10.5387,3.37067 10.624,3.36C10.7093,3.34933 10.8,3.33333 10.896,3.312C11.056,3.28 11.2107,3.264 11.36,3.264C11.7547,3.264 11.952,3.47733 11.952,3.904L11.952,4.128ZM11.936,8.56C11.8613,8.85867 11.824,9.296 11.824,9.872C11.824,10.8107 11.8987,11.472 12.048,11.856C12.336,12.5067 12.8533,12.832 13.6,12.832C14.2293,12.832 14.7227,12.576 15.08,12.064C15.4373,11.552 15.616,10.864 15.616,10C15.616,9.11467 15.4453,8.42133 15.104,7.92C14.7627,7.41867 14.2933,7.168 13.696,7.168C13.4827,7.168 13.28,7.20267 13.088,7.272C12.896,7.34133 12.72,7.43733 12.56,7.56C12.4,7.68267 12.2667,7.82933 12.16,8C12.0533,8.17067 11.9787,8.35733 11.936,8.56L11.936,8.56Z" fill-rule="evenodd" fill="#211663"/>
</g>
</g>
</svg>
