<?xml version='1.0' encoding='utf-8'?>
<!-- Generator: imaengine 6.0   -->
<svg xmlns:xlink="http://www.w3.org/1999/xlink" xmlns="http://www.w3.org/2000/svg" viewBox="0,0,400,400" style="enable-background:new 0 0 400 400;" version="1.1">
<defs/>
<g id="layer0">
<path d="M226.089,182.594L266.574,182.594L226.089,182.594L226.089,182.594ZM177.892,182.594L218.377,182.594L177.892,182.594L177.892,182.594ZM130.66,182.594L171.145,182.594L130.66,182.594L130.66,182.594ZM83.4272,182.594L122.948,182.594L83.4272,182.594L83.4272,182.594ZM35.2307,182.594L75.7158,182.594L35.2307,182.594L35.2307,182.594ZM83.4272,138.254L122.948,138.254L83.4272,138.254L83.4272,138.254ZM130.66,138.254L171.145,138.254L130.66,138.254L130.66,138.254ZM177.892,138.254L218.377,138.254L177.892,138.254L177.892,138.254ZM177.892,93.9129L218.377,93.9129L177.892,93.9129L177.892,93.9129Z" stroke="#066DA5" stroke-width="36.6294" fill="#000000"/>
<path d="M395.741,184.522C395.741,184.522 378.39,168.136 342.724,173.919C338.869,145.965 308.987,129.578 308.987,129.578C308.987,129.578 281.033,163.316 301.275,200.909C295.492,203.801 285.853,207.657 271.394,207.657L6.31279,207.657C1.49314,225.971 1.49314,347.427 134.516,347.427C229.945,347.427 301.275,303.086 335.013,222.116C385.137,225.971 395.741,184.522 395.741,184.522L395.741,184.522L395.741,184.522Z" fill="#066DA5"/>
</g>
</svg>
