<?xml version='1.0' encoding='utf-8'?>
<!-- Generator: imaengine 6.0   -->
<svg xmlns:xlink="http://www.w3.org/1999/xlink" xmlns="http://www.w3.org/2000/svg" viewBox="0,0,34,34" style="enable-background:new 0 0 34 34;" version="1.1">
<defs/>
<g id="layer0">
<path d="M21.4188,12.48L22.4188,12.48L25.2688,9.63002L25.4088,8.42003C22.0895,5.49032 17.4927,4.48223 13.252,5.75403C9.01128,7.02583 5.72796,10.3972 4.56875,14.67C4.88625,14.5399 5.23795,14.5188 5.56875,14.61L11.2688,13.67C11.2688,13.67 11.5588,13.19 11.7088,13.22C14.2443,10.4354 18.5113,10.1109 21.4388,12.48L21.4188,12.48L21.4188,12.48Z" fill="#EA4335"/>
<path d="M29.3288,14.67C28.6737,12.2576 27.3287,10.089 25.4588,8.43003L21.4588,12.43C23.1478,13.8101 24.1099,15.8892 24.0688,18.07L24.0688,18.78C26.0354,18.7793 27.63,20.3734 27.63,22.34C27.63,24.3066 26.0354,25.9007 24.0688,25.9L16.9488,25.9L16.2388,26.62L16.2388,30.89L16.9488,31.6L24.0688,31.6C28.1511,31.6318 31.7726,28.9864 32.9839,25.0877C34.1952,21.1891 32.7104,16.9572 29.3288,14.67L29.3288,14.67L29.3288,14.67Z" fill="#4285F4"/>
<path d="M9.81878,31.56L16.9388,31.56L16.9388,25.86L9.81878,25.86C9.31148,25.8599 8.81017,25.7508 8.34878,25.54L7.34878,25.85L4.47875,28.7L4.22875,29.7C5.83818,30.9153 7.80198,31.5688 9.81878,31.56L9.81878,31.56L9.81878,31.56Z" fill="#34A853"/>
<path d="M9.81878,13.07C5.86383,13.0936 2.36047,15.6265 1.09828,19.3746C-0.163905,23.1228 1.09373,27.2589 4.22875,29.67L8.35878,25.54C6.91578,24.8881 6.07682,23.3615 6.30004,21.7939C6.52327,20.2263 7.75498,18.9945 9.32258,18.7713C10.8902,18.5481 12.4168,19.387 13.0688,20.83L17.1988,16.7C15.4416,14.4028 12.711,13.0597 9.81878,13.07L9.81878,13.07L9.81878,13.07Z" fill="#FBBC05"/>
</g>
</svg>
