<?xml version='1.0' encoding='utf-8'?>
<!-- Generator: imaengine 6.0   -->
<svg xmlns:xlink="http://www.w3.org/1999/xlink" xmlns="http://www.w3.org/2000/svg" viewBox="0,0,100,100" style="enable-background:new 0 0 100 100;" version="1.1">
<defs/>
<g id="layer0">
<path d="M76.938,10.2298L97.7975,54.3498L76.938,98.4596L59.188,98.4596L80.038,54.3498L59.188,10.2298L76.938,10.2298L76.938,10.2298L76.938,10.2298Z" fill="#40B4E5"/>
<path d="M59.188,98.4596L38.328,54.3498L59.188,10.2298L76.938,10.2298L56.088,54.3498L76.938,98.4596L59.188,98.4596L59.188,98.4596L59.188,98.4596Z" fill="#003764"/>
<path d="M49.798,30.0798L40.418,10.2298L22.668,10.2298L40.928,48.8598L49.798,30.0798L49.798,30.0798L49.798,30.0798ZM40.928,59.8298L22.668,98.4596L40.418,98.4596L49.798,78.6098L40.928,59.8298L40.928,59.8298L40.928,59.8298Z" fill="#40B4E5"/>
<path d="M22.668,98.4596L1.80796,54.3498L22.668,10.2298L40.418,10.2298L19.558,54.3498L40.418,98.4596L22.668,98.4596L22.668,98.4596L22.668,98.4596Z" fill="#003764"/>
</g>
</svg>
