<svg xmlns="http://www.w3.org/2000/svg" version="1.0" width="512.000000pt" height="512.000000pt" viewBox="0 0 512.000000 512.000000" preserveAspectRatio="xMidYMid meet">

<g transform="translate(0.000000,512.000000) scale(0.100000,-0.100000)" fill="#9232a9" stroke="none">
<path d="M3745 4884 c-268 -47 -454 -155 -624 -359 -171 -207 -245 -377 -411 -935 -43 -146 -83 -277 -89 -292 l-11 -28 -657 0 -658 0 -23 57 c-13 31 -37 136 -52 232 -49 296 -78 363 -175 414 -30 16 -58 21 -115 21 -64 0 -83 -4 -127 -28 -30 -16 -64 -46 -80 -69 -27 -38 -28 -47 -31 -170 l-4 -129 -31 6 c-94 17 -229 27 -277 22 -144 -17 -238 -115 -240 -250 0 -59 27 -112 75 -144 50 -32 169 -69 248 -77 37 -4 69 -10 71 -14 3 -4 -29 -64 -70 -133 -50 -85 -77 -143 -84 -178 -11 -60 -14 -1775 -3 -2287 l6 -323 2228 0 2228 0 3 1358 4 1357 32 100 c77 231 108 484 99 783 -6 191 -19 266 -76 421 -161 441 -481 663 -950 660 -69 0 -162 -7 -206 -15z m441 -63 c357 -73 597 -323 700 -729 46 -181 50 -502 9 -737 -34 -195 -165 -675 -211 -771 -37 -78 -148 -164 -213 -164 -62 0 -152 79 -172 152 -22 83 -12 105 161 353 123 176 144 211 135 225 -15 25 -39 1 -126 -129 -77 -115 -99 -140 -123 -145 -15 -3 -205 -6 -421 -6 l-393 0 -30 38 c-16 20 -70 98 -121 172 -96 141 -117 163 -127 135 -9 -24 2 -43 126 -220 137 -195 170 -252 170 -295 0 -129 -114 -233 -222 -201 -47 14 -116 67 -145 110 -31 46 -57 118 -117 326 -36 128 -56 180 -66 180 -23 0 -23 -30 0 -131 12 -52 20 -98 17 -101 -9 -8 -507 -17 -507 -9 0 3 16 39 36 78 74 146 120 280 258 743 133 449 223 639 387 821 119 132 203 193 343 248 207 83 431 102 652 57z m-3158 -905 c15 -8 35 -22 44 -33 25 -27 64 -177 93 -358 24 -149 31 -170 89 -302 59 -132 136 -279 172 -330 l16 -23 -213 1 c-118 0 -234 4 -258 7 l-45 7 -23 95 c-13 52 -33 115 -46 140 -34 70 -61 78 -278 90 -199 10 -218 14 -296 54 -70 35 -87 62 -81 130 5 61 38 113 92 147 28 18 44 20 176 16 82 -3 179 -12 223 -22 43 -9 80 -15 82 -13 2 2 -3 32 -10 68 -19 86 -19 223 -1 258 33 63 101 95 184 87 30 -3 66 -12 80 -19z m1800 -1748 c181 -75 317 -208 393 -387 27 -63 28 -72 29 -234 0 -159 -1 -171 -26 -230 -82 -195 -233 -340 -414 -398 -93 -30 -254 -37 -354 -14 -259 57 -458 270 -503 535 -48 285 98 565 362 696 115 57 150 63 315 60 119 -2 142 -5 198 -28z"/>
<path d="M3489 4536 c-33 -23 -69 -78 -69 -105 0 -25 38 -10 50 19 13 31 54 60 85 60 9 0 25 5 36 11 16 8 18 13 8 25 -18 22 -70 17 -110 -10z"/>
<path d="M4497 4523 c-31 -8 -13 -27 33 -35 46 -8 86 -38 101 -76 11 -28 33 -24 37 5 4 27 -43 82 -85 99 -33 14 -53 16 -86 7z"/>
<path d="M3525 4236 c-17 -7 -43 -28 -58 -45 -53 -64 -29 -179 45 -217 127 -66 254 62 192 192 -31 66 -116 99 -179 70z m128 -57 c16 -23 17 -30 7 -50 -17 -31 -29 -39 -62 -39 -17 0 -33 9 -42 22 -20 28 -20 48 0 76 22 31 70 26 97 -9z"/>
<path d="M4432 4220 c-93 -57 -96 -178 -7 -245 49 -38 101 -43 145 -13 46 31 80 83 80 122 0 50 -39 108 -90 134 -55 27 -85 28 -128 2z m71 -82 l21 -28 -21 -27 c-26 -36 -59 -41 -89 -12 -28 26 -31 55 -7 81 24 27 71 20 96 -14z"/>
<path d="M4012 4189 c-63 -12 -139 -57 -171 -101 -26 -35 -39 -71 -55 -149 -5 -23 -14 -29 -72 -43 -100 -25 -221 -92 -202 -111 3 -3 30 8 60 24 96 52 228 88 228 64 0 -5 -26 -21 -58 -38 -66 -34 -187 -145 -181 -164 3 -9 24 4 59 36 69 63 147 113 177 113 13 0 23 -3 23 -6 0 -3 -26 -32 -59 -63 -59 -57 -115 -149 -108 -179 2 -13 9 -8 23 17 32 57 107 153 136 175 l28 20 22 -21 c103 -94 285 -97 411 -7 26 19 51 34 55 34 16 0 121 -101 158 -152 38 -52 57 -53 31 -1 -25 48 -80 110 -129 148 -80 60 -54 75 47 26 33 -16 84 -47 114 -70 76 -57 87 -51 20 12 -36 34 -83 66 -132 88 -43 18 -77 38 -77 43 0 16 123 -2 196 -28 83 -30 102 -33 85 -12 -15 18 -89 45 -191 70 l-85 21 -7 45 c-4 25 -24 67 -44 97 -60 87 -188 135 -302 112z m174 -67 c73 -38 124 -113 124 -184 -1 -76 -71 -166 -147 -187 -62 -18 -159 -13 -201 8 -81 41 -122 105 -122 189 0 148 200 249 346 174z"/>
<path d="M4000 4070 c-39 -39 -37 -67 9 -114 42 -43 53 -79 25 -90 -32 -12 -55 -6 -64 19 -11 29 -25 32 -34 9 -7 -19 18 -64 37 -64 6 -1 57 -1 111 -2 92 -1 100 0 118 22 16 19 17 26 6 42 -15 23 -34 20 -30 -5 4 -21 -19 -31 -53 -23 -38 10 -32 45 16 97 32 35 39 48 34 69 -4 14 -7 26 -8 26 -50 37 -136 45 -167 14z m104 -36 c23 -9 20 -31 -5 -45 -37 -19 -89 18 -62 44 8 9 46 9 67 1z"/>
<path d="M2543 2091 c-18 -11 -35 -31 -38 -43 -7 -30 -10 -144 -7 -241 2 -72 4 -81 31 -108 55 -55 151 -33 171 40 5 20 10 96 10 168 0 131 0 133 -27 163 -37 41 -94 50 -140 21z"/>
<path d="M2185 1814 c-93 -100 -110 -333 -35 -493 38 -80 139 -182 231 -231 63 -35 66 -35 207 -38 l143 -4 75 36 c139 66 256 204 283 334 26 124 7 281 -44 362 -31 49 -51 60 -108 60 -38 0 -49 -5 -71 -31 -32 -37 -33 -69 -5 -161 63 -206 -57 -381 -261 -382 -106 0 -207 64 -251 159 -26 56 -25 168 1 235 28 72 26 111 -9 149 -25 27 -36 31 -80 31 -43 0 -56 -5 -76 -26z"/>
</g>
</svg>
