<svg id="Layer_1" data-name="Layer 1" xmlns="http://www.w3.org/2000/svg" viewBox="0 0 419.64001 115.79238"><defs><style>.cls-1{fill:none;}.cls-2{fill:#fff;}</style></defs><path class="cls-1" d="M230.49951,31.085q2.46762-2.31811,2.46857-6.73944a9.021,9.021,0,0,0-2.46857-6.80395q-2.469-2.38248-7.57623-2.38275h-3.7348V33.40316h4.24963Q228.0315,33.40316,230.49951,31.085Z"/><path class="cls-1" d="M268.26917,55.85867a5.80707,5.80707,0,0,0,0,7.664,4.7846,4.7846,0,0,0,7.09887,0A5.45869,5.45869,0,0,0,276.812,59.697l-.00006.00007a5.50479,5.50479,0,0,0-1.44385-3.83844,4.76143,4.76143,0,0,0-7.09887,0Z"/><polygon class="cls-1" points="304.228 18.25 300.45 26.964 307.963 26.964 304.228 18.25"/><path class="cls-1" d="M154.16284,54.60714h-2.1416v5.655H154.548a3.35185,3.35185,0,0,0,2.55085-.75733h.00006a3.23789,3.23789,0,0,0,.67358-2.21411,2.34472,2.34472,0,0,0-.87823-2.06909A4.82538,4.82538,0,0,0,154.16284,54.60714Z"/><path class="cls-1" d="M164.57764,31.58633a8.54908,8.54908,0,0,0,.60827-.60828,9.74194,9.74194,0,0,0,2.57556-6.82574,9.81907,9.81907,0,0,0-2.57556-6.84687,8.49158,8.49158,0,0,0-12.66369,0,9.81676,9.81676,0,0,0-2.576,6.84687,9.73966,9.73966,0,0,0,2.576,6.82574A8.53537,8.53537,0,0,0,164.57764,31.58633Z"/><path class="cls-1" d="M109.76611,55.85867a5.80859,5.80859,0,0,0,0,7.664,4.785,4.785,0,0,0,7.09888,0A5.45869,5.45869,0,0,0,118.3089,59.697l-.00006.00007a5.50483,5.50483,0,0,0-1.44385-3.83844,4.76112,4.76112,0,0,0-7.09888,0Z"/><path class="cls-1" d="M327.39178,54.65548H325.299V64.88265h2.38172a5.56476,5.56476,0,0,0,3.95874-1.2998,4.93391,4.93391,0,0,0,1.38366-3.77729,5.05772,5.05772,0,0,0-1.38366-3.81475A5.9206,5.9206,0,0,0,327.39178,54.65548Z"/><polygon class="cls-1" points="41.829 60.597 39.717 58.488 29.51 48.28 37.675 48.28 43.8 54.405 49.926 60.53 49.994 60.597 62.243 60.597 62.243 48.349 62.174 48.28 56.049 42.155 49.926 36.032 49.926 27.868 60.133 38.073 62.243 40.183 62.243 35.965 62.243 26.727 62.243 14.407 49.926 14.407 36.466 14.407 48.785 26.727 40.619 26.727 28.368 14.475 28.301 14.407 16.052 14.407 16.052 14.41 16.052 26.655 16.121 26.727 28.368 38.972 28.368 47.138 16.052 34.821 16.052 48.28 16.052 60.597 28.368 60.597 37.609 60.597 41.829 60.597"/><polygon class="cls-1" points="346.475 56.388 344.358 61.273 348.569 61.273 346.475 56.388"/><path class="cls-1" d="M383.12268,55.85867a5.80694,5.80694,0,0,0,0,7.664,4.78505,4.78505,0,0,0,7.09888,0,5.807,5.807,0,0,0,0-7.664,4.76116,4.76116,0,0,0-7.09888,0Z"/><path class="cls-2" d="M103.90594,39.67068q6.93247.001,12.04139-5.7522l-4.29254-4.42175a9.88184,9.88184,0,0,1-8.07081,3.90643,8.35643,8.35643,0,0,1-6.1383-2.53265,9.07712,9.07712,0,0,1-2.53314-6.7182,8.60022,8.60022,0,0,1,2.683-6.65412,9.20742,9.20742,0,0,1,6.46082-2.468,9.75735,9.75735,0,0,1,7.89874,3.94941l4.16388-4.72211A15.84994,15.84994,0,0,0,103.756,8.634a15.40059,15.40059,0,0,0-11.18286,4.46411,14.93619,14.93619,0,0,0-4.57214,11.14,14.79561,14.79561,0,0,0,4.48633,11.0542A15.66986,15.66986,0,0,0,103.90594,39.67068Z"/><polygon class="cls-2" points="140.717 33.36 127.924 33.36 127.924 9.321 121.228 9.321 121.228 39.327 140.717 39.327 140.717 33.36"/><path class="cls-2" d="M170.03668,35.18478a14.82409,14.82409,0,0,0,4.55048-11.05365A14.826,14.826,0,0,0,170.03668,13.077a16.34895,16.34895,0,0,0-22.40863,0,14.82368,14.82368,0,0,0-4.55,11.05414,14.82172,14.82172,0,0,0,4.55,11.05365A16.35029,16.35029,0,0,0,170.03668,35.18478ZM152.52222,17.30544a8.49158,8.49158,0,0,1,12.66369,0,9.81907,9.81907,0,0,1,2.57556,6.84687,9.74194,9.74194,0,0,1-2.57556,6.82574,8.53524,8.53524,0,0,1-12.66369,0,9.73966,9.73966,0,0,1-2.576-6.82574A9.81676,9.81676,0,0,1,152.52222,17.30544Z"/><path class="cls-2" d="M201.93237,36.12911q3.60572-3.4974,3.60565-10.02356V9.32088h-6.69647v16.5702a8.91775,8.91775,0,0,1-1.653,5.688,5.42523,5.42523,0,0,1-4.48737,2.082,5.48129,5.48129,0,0,1-4.50653-2.082,8.82849,8.82849,0,0,1-1.67413-5.688V9.32088h-6.697V26.10555q-.00074,6.483,3.62738,10.00238A13.92264,13.92264,0,0,0,201.93237,36.12911Z"/><path class="cls-2" d="M235.5224,35.24941q4.18562-4.078,4.18555-11.07538-.00147-6.99783-4.293-10.92547-4.29309-3.92761-12.32-3.92768H212.491v30.0066h10.25976Q231.33737,39.32793,235.5224,35.24941ZM219.18848,15.1589h3.7348q5.10726.00027,7.57623,2.38275a9.021,9.021,0,0,1,2.46857,6.804q-.001,4.42135-2.46857,6.73944-2.468,2.31813-7.0614,2.31812h-4.24963Z"/><polygon class="cls-2" points="263.533 20.525 277.828 39.327 284.525 39.327 284.525 9.321 277.828 9.321 277.828 28.638 263.103 9.321 256.836 9.321 256.836 39.327 263.533 39.327 263.533 20.525"/><path class="cls-2" d="M297.91724,32.84548h12.57843l2.79,6.482h7.12646L307.4472,9.321h-6.4815l-12.965,30.00653h7.12647Zm6.31091-14.5957,3.73486,8.71435h-7.51312Z"/><polygon class="cls-2" points="327.709 39.327 334.407 39.327 334.407 15.116 342.906 15.116 342.906 9.321 319.21 9.321 319.21 15.116 327.709 15.116 327.709 39.327"/><rect class="cls-2" x="347.79883" y="9.32088" width="6.69751" height="30.00659"/><polygon class="cls-2" points="375.788 39.327 387.852 9.321 380.596 9.321 372.955 28.424 365.314 9.321 358.059 9.321 370.122 39.327 375.788 39.327"/><polygon class="cls-2" points="413.521 33.403 398.11 33.403 398.11 27.179 411.547 27.179 411.547 21.469 398.11 21.469 398.11 15.288 413.049 15.288 413.049 9.321 391.413 9.321 391.413 39.327 413.521 39.327 413.521 33.403"/><path class="cls-2" d="M90.04443,66.25967a9.078,9.078,0,0,0,12.792-1.088l-2.40638-2.47839a5.53967,5.53967,0,0,1-4.52386,2.18939,4.68456,4.68456,0,0,1-3.441-1.42016,5.08676,5.08676,0,0,1-1.41968-3.76538,4.8208,4.8208,0,0,1,1.504-3.72992A5.1601,5.1601,0,0,1,96.171,54.58352a5.46868,5.46868,0,0,1,4.42767,2.214l2.33393-2.647a8.8853,8.8853,0,0,0-6.93024-3.15295,8.631,8.631,0,0,0-6.26843,2.50305A8.88943,8.88943,0,0,0,89.686,65.94088Q89.861,66.10494,90.04443,66.25967Z"/><path class="cls-2" d="M107.023,53.48873a8.80152,8.80152,0,0,0,0,12.392,9.16255,9.16255,0,0,0,12.5611,0,8.8004,8.8004,0,0,0,0-12.392A9.16255,9.16255,0,0,0,107.023,53.48873Zm9.842,2.36994a5.50483,5.50483,0,0,1,1.44385,3.83844l.00006-.00007a5.45869,5.45869,0,0,1-1.44391,3.82563,4.785,4.785,0,0,1-7.09888,0,5.80859,5.80859,0,0,1,0-7.664,4.76112,4.76112,0,0,1,7.09888,0Z"/><polygon class="cls-2" points="134.72 60.623 130.388 51.383 125.311 51.383 125.311 68.203 129.065 68.203 129.065 57.615 133.589 66.808 135.827 66.808 140.375 57.615 140.375 68.203 144.128 68.203 144.128 51.383 139.075 51.383 134.72 60.623"/><path class="cls-2" d="M159.85388,52.88717q-1.76907-1.504-5.64276-1.504h-5.94348V68.20333h3.7536v-4.6925h2.23822q3.72923,0,5.54657-1.44385a5.47275,5.47275,0,0,0,1.81665-4.55933A5.73275,5.73275,0,0,0,159.85388,52.88717Zm-2.755,6.61761h-.00006a3.35185,3.35185,0,0,1-2.55085.75733h-2.52673v-5.655h2.1416a4.82538,4.82538,0,0,1,2.73139.61444,2.34472,2.34472,0,0,1,.87823,2.06909A3.23789,3.23789,0,0,1,157.09888,59.50478Z"/><path class="cls-2" d="M171.53625,65.0267A3.07337,3.07337,0,0,1,169.00952,63.86a4.95281,4.95281,0,0,1-.93835-3.18842V51.38314h-3.7536v9.40863a7.4537,7.4537,0,0,0,2.03314,5.60675,7.80172,7.80172,0,0,0,10.35937.01184,7.46793,7.46793,0,0,0,2.02124-5.61859V51.38314h-3.75409v9.28833a4.99718,4.99718,0,0,1-.92608,3.18848A3.04031,3.04031,0,0,1,171.53625,65.0267Z"/><polygon class="cls-2" points="189.752 68.203 189.752 54.632 194.517 54.632 194.517 51.383 181.233 51.383 181.233 54.632 185.998 54.632 185.998 68.203 189.752 68.203"/><rect class="cls-2" x="197.25964" y="51.38314" width="3.75458" height="16.82019"/><polygon class="cls-2" points="205.151 68.203 208.906 68.203 208.906 57.663 216.919 68.203 220.673 68.203 220.673 51.383 216.919 51.383 216.919 62.212 208.665 51.383 205.151 51.383 205.151 68.203"/><path class="cls-2" d="M232.80042,54.46316a5.58682,5.58682,0,0,1,2.05725.37274,7.46336,7.46336,0,0,1,2.082,1.36005l1.94879-2.81574a9.1509,9.1509,0,0,0-6.29218-2.38269,8.528,8.528,0,0,0-6.18463,2.50305,8.88881,8.88881,0,0,0-.04834,12.44031,8.554,8.554,0,0,0,6.22016,2.45471,8.83027,8.83027,0,0,0,6.93023-2.791V59.63692h-3.77728v4.62049a6.45148,6.45148,0,0,1-3.2486.74554,4.54514,4.54514,0,0,1-3.35717-1.432,5.81136,5.81136,0,0,1,.06018-7.65216A4.92682,4.92682,0,0,1,232.80042,54.46316Z"/><polygon class="cls-2" points="252.966 61.61 260.377 61.61 260.377 58.313 252.966 58.313 252.966 54.68 260.762 54.68 260.762 51.383 249.211 51.383 249.211 68.203 252.966 68.203 252.966 61.61"/><path class="cls-2" d="M265.52649,53.48873a8.79915,8.79915,0,0,0,0,12.392,9.16193,9.16193,0,0,0,12.56061,0,8.80163,8.80163,0,0,0,0-12.392A9.16193,9.16193,0,0,0,265.52649,53.48873Zm9.84155,2.36994a5.50479,5.50479,0,0,1,1.44385,3.83844l.00006-.00007a5.45869,5.45869,0,0,1-1.44391,3.82563,4.7846,4.7846,0,0,1-7.09887,0,5.80707,5.80707,0,0,1,0-7.664,4.76143,4.76143,0,0,1,7.09887,0Z"/><path class="cls-2" d="M283.57355,51.38314v9.40863a7.45177,7.45177,0,0,0,2.03363,5.60675,7.80171,7.80171,0,0,0,10.35931.01184,7.4695,7.4695,0,0,0,2.02179-5.61859V51.38314H294.2337v9.28833a4.99672,4.99672,0,0,1-.926,3.18848,3.04038,3.04038,0,0,1-2.51489,1.16675A3.07457,3.07457,0,0,1,288.26605,63.86a4.953,4.953,0,0,1-.93793-3.18842V51.38314Z"/><polygon class="cls-2" points="305.399 51.383 301.885 51.383 301.885 68.203 305.639 68.203 305.639 57.663 313.653 68.203 317.406 68.203 317.406 51.383 313.653 51.383 313.653 62.212 305.399 51.383"/><path class="cls-2" d="M327.48846,51.38314h-5.944V68.20333h5.75171q4.81275.00092,7.159-2.28607a8.2668,8.2668,0,0,0,2.34625-6.20837,7.88817,7.88817,0,0,0-2.40643-6.12446Q331.98858,51.38315,327.48846,51.38314Zm4.151,12.19971a5.56476,5.56476,0,0,1-3.95874,1.2998H325.299V54.65548h2.09277a5.9206,5.9206,0,0,1,4.24769,1.33533,5.05772,5.05772,0,0,1,1.38366,3.81475A4.93391,4.93391,0,0,1,331.63947,63.58285Z"/><path class="cls-2" d="M341.3736,68.20333l1.56414-3.6333h7.05054l1.56415,3.6333h3.99426l-7.26654-16.82019h-3.6333l-7.26752,16.82019Zm5.10174-11.815,2.09375,4.88476h-4.21118Z"/><polygon class="cls-2" points="359.638 68.203 363.392 68.203 363.392 54.632 368.157 54.632 368.157 51.383 354.873 51.383 354.873 54.632 359.638 54.632 359.638 68.203"/><rect class="cls-2" x="370.89832" y="51.38314" width="3.75458" height="16.82019"/><path class="cls-2" d="M380.37994,53.48873a8.79917,8.79917,0,0,0,0,12.392,9.162,9.162,0,0,0,12.56067,0,8.80161,8.80161,0,0,0,0-12.392A9.162,9.162,0,0,0,380.37994,53.48873Zm9.84162,2.36994a5.807,5.807,0,0,1,0,7.664,4.78505,4.78505,0,0,1-7.09888,0,5.80694,5.80694,0,0,1,0-7.664,4.76116,4.76116,0,0,1,7.09888,0Z"/><polygon class="cls-2" points="410.434 51.383 410.434 62.212 402.181 51.383 398.667 51.383 398.667 68.203 402.421 68.203 402.421 57.663 410.434 68.203 414.188 68.203 414.188 51.383 410.434 51.383"/><polygon class="cls-2" points="28.368 60.597 16.052 60.597 16.052 48.28 6.812 48.28 6.812 69.837 28.368 69.837 28.368 60.597"/><polygon class="cls-2" points="62.243 48.349 62.243 60.597 49.994 60.597 49.926 60.53 49.926 69.837 71.482 69.837 71.482 48.28 62.174 48.28 62.243 48.349"/><polygon class="cls-2" points="16.052 26.655 16.052 14.41 16.052 14.407 28.301 14.407 28.368 14.475 28.368 5.168 6.812 5.168 6.812 26.727 16.121 26.727 16.052 26.655"/><polygon class="cls-2" points="62.243 14.407 62.243 26.727 71.482 26.727 71.482 5.168 49.926 5.168 49.926 14.407 62.243 14.407"/><polygon class="cls-2" points="40.619 26.727 48.785 26.727 36.466 14.407 49.926 14.407 49.926 5.168 28.368 5.168 28.368 14.475 40.619 26.727"/><polygon class="cls-2" points="43.8 54.405 37.675 48.28 29.51 48.28 39.717 58.488 41.829 60.597 37.609 60.597 28.368 60.597 28.368 69.837 49.926 69.837 49.926 60.53 43.8 54.405"/><polygon class="cls-2" points="62.243 35.965 62.243 40.183 60.133 38.073 49.926 27.868 49.926 36.032 56.049 42.155 62.174 48.28 71.482 48.28 71.482 26.727 62.243 26.727 62.243 35.965"/><polygon class="cls-2" points="16.052 34.821 28.368 47.138 28.368 38.972 16.121 26.727 6.812 26.727 6.812 48.28 16.052 48.28 16.052 34.821"/><path class="cls-2" d="M6.81207,110.83248h407.3758V81.08675H6.81207ZM316.22223,89.14974H327.506v2.76251h-4.14325v10.85633h-2.9964V91.91225h-4.14416Zm-14.47107,6.80945a6.92186,6.92186,0,0,1,7.10126-7.04236,7.027,7.027,0,0,1,5.36969,2.10108l-1.9065,2.19842a5.02636,5.02636,0,0,0-3.48285-1.537,4.03445,4.03445,0,0,0-3.94867,4.24146v.03839a4.04424,4.04424,0,0,0,3.94867,4.27985,4.91539,4.91539,0,0,0,3.58014-1.595l1.9065,1.92621a6.962,6.962,0,0,1-5.58393,2.43225,6.87444,6.87444,0,0,1-6.98431-7.004Zm-12.91534-6.80945H299.1084V91.815h-7.2959v2.76343h6.42029v2.66522H291.8125v2.85975h7.39319v2.66522H288.83582Zm-10.93116,9.66919a3.35946,3.35946,0,0,0,2.49024,1.36212c1.12915,0,1.82885-.681,1.82885-2.25641v-8.7749h3.074v8.91052a4.94579,4.94579,0,0,1-1.28351,3.63813,4.86775,4.86775,0,0,1-3.54077,1.26477,5.56689,5.56689,0,0,1-4.45575-2.04309Zm-17.56378-2.85974a7.24069,7.24069,0,0,1,14.47479-.03839v.03839a7.24067,7.24067,0,0,1-14.47479.03925Zm-13.94629-6.80945h6.22571a5.42724,5.42724,0,0,1,3.96924,1.38172,4.27505,4.27505,0,0,1,1.16748,3.11236v.03931a4.23022,4.23022,0,0,1-2.9187,4.22186l3.32751,4.86359h-3.50244l-2.91876-4.35749H249.391v4.35749h-2.9964Zm-13.47943,0h5.56427c3.249,0,5.21442,1.92621,5.21442,4.70832v.0393c0,3.15167-2.45191,4.786-5.50629,4.786h-2.276v4.08527h-2.9964Zm-22.65985,6.80945a6.99046,6.99046,0,0,1,7.14014-7.04236,7.481,7.481,0,0,1,5.35095,1.86725l-1.88782,2.276a5.01331,5.01331,0,0,0-3.56042-1.38074,4.09064,4.09064,0,0,0-3.91034,4.24146v.03839a4.08045,4.08045,0,0,0,4.12457,4.31915,4.78293,4.78293,0,0,0,2.82141-.81671v-1.9458h-3.016V94.92825h5.915v5.91418a8.841,8.841,0,0,1-5.81775,2.16,6.81658,6.81658,0,0,1-7.15979-7.004Zm-15.2489-6.80945h2.76251l6.38141,8.38574V89.14974h2.95709v13.61884h-2.54877l-6.59515-8.6579v8.6579h-2.95709Zm-6.88568,0h2.99591v13.61884h-2.99591Zm-14.19928,0h11.2843v2.76251h-4.14417v10.85633h-2.99591V91.91225h-4.14422Zm-8.4596-.09729h2.76294l5.83649,13.71613h-3.13245l-1.24511-3.05438H163.9248l-1.24511,3.05438h-3.05438Zm-19.19854.09729h6.32293a4.91736,4.91736,0,0,1,3.56049,1.20679,3.1231,3.1231,0,0,1,.93359,2.31439v.03931a3.1666,3.1666,0,0,1-1.79,2.93744c1.57581.60339,2.54871,1.51733,2.54871,3.34625v.03924c0,2.4903-2.02344,3.73542-5.097,3.73542h-6.47869Zm-15.40516,0h2.99634v7.70471c0,2.218,1.10907,3.36585,2.93744,3.36585,1.82892,0,2.93793-1.1095,2.93793-3.26856v-7.802h2.99634V96.8348c0,4.12457-2.31531,6.148-5.97309,6.148-3.65728,0-5.895-2.04309-5.895-6.05072Zm-15.22973,6.80945a6.92186,6.92186,0,0,1,7.10126-7.04236,7.0265,7.0265,0,0,1,5.36975,2.10108l-1.90656,2.19842a5.02618,5.02618,0,0,0-3.48236-1.537,4.03518,4.03518,0,0,0-3.94958,4.24146v.03839a4.04439,4.04439,0,0,0,3.94958,4.27985,4.91516,4.91516,0,0,0,3.57965-1.595l1.90656,1.92621a6.96259,6.96259,0,0,1-5.5835,2.43225,6.87459,6.87459,0,0,1-6.9848-7.004Zm-15.2489-6.80945H103.142l6.38147,8.38574V89.14974h2.95709v13.61884h-2.54877l-6.59521-8.6579v8.6579h-2.957Zm-6.88568,0h2.99591v13.61884H93.49384Z"/><path class="cls-2" d="M240.6582,93.95535V93.916c0-1.34241-.93359-2.06177-2.43133-2.06177h-2.31531v4.1629h2.37329A2.10835,2.10835,0,0,0,240.6582,93.95535Z"/><polygon class="cls-2" points="166.804 92.652 164.995 97.069 168.614 97.069 166.804 92.652"/><path class="cls-2" d="M154.10364,93.21633V93.177c0-.89526-.70026-1.40039-1.965-1.40039h-2.95709V94.656H151.944C153.26727,94.656,154.10364,94.22756,154.10364,93.21633Z"/><path class="cls-2" d="M254.72137,93.8384v-.03833c0-1.28442-.89434-1.9458-2.35369-1.9458H249.391v3.91034h3.03473C253.88507,95.76461,254.72137,94.98629,254.72137,93.8384Z"/><path class="cls-2" d="M154.8623,98.66366v-.03931c0-.91394-.6806-1.478-2.21759-1.478h-3.46319v2.99543H152.742C154.06482,100.14175,154.8623,99.675,154.8623,98.66366Z"/><path class="cls-2" d="M267.59741,100.239a4.07309,4.07309,0,0,0,4.08624-4.2406v-.03925a4.137,4.137,0,0,0-4.12457-4.27985,4.07249,4.07249,0,0,0-4.08526,4.24146v.03839A4.13681,4.13681,0,0,0,267.59741,100.239Z"/></svg>