<?xml version='1.0' encoding='utf-8'?>
<!-- Generator: imaengine 6.0   -->
<svg xmlns:xlink="http://www.w3.org/1999/xlink" xmlns="http://www.w3.org/2000/svg" viewBox="0,0,389,389" style="enable-background:new 0 0 389 389;" version="1.1">
<defs/>
<g id="layer0">
<g transform="matrix(1.15276 0 0 1.15276 -28.3483 -30.0701)">
<path d="M72.8,250.7L24.8,250.7L24.8,363.3L137,363.3L137,314.9L72.8,314.9L72.8,250.7L72.8,250.7Z" fill="#0086FF"/>
<path d="M314.1,251.2L314.1,314.9L249.8,314.9L249.8,363.3L362,363.3L362,250.7L313.5,250.7L314.1,251.2L314.1,251.2Z" fill="#0086FF"/>
<path d="M24.9,138.6L73.4,138.6L72.9,138.1L72.9,74.5L137.2,74.5L137.2,26L24.9,26L24.9,138.6L24.9,138.6Z" fill="#0086FF"/>
<path d="M249.9,26L249.9,74.4L314.2,74.4L314.2,138.6L362.2,138.6L362.2,26C362.1,26 249.9,26 249.9,26L249.9,26Z" fill="#0086FF"/>
<path d="M243.5,138.6L179.2,74.4L249.8,74.4L249.8,26L137.1,26L137.1,74.4L201.4,138.6L243.5,138.6L243.5,138.6Z" fill="#93EAFF"/>
<path d="M185.6,250.7L143.4,250.7L196.6,303.9L207.1,314.9L137,314.9L137,363.3L249.8,363.3L249.8,314.3L217.7,282.7L185.6,250.7L185.6,250.7Z" fill="#93EAFF"/>
<path d="M314.1,138.6L314.1,208.6L303,197.5L249.8,144.3L249.8,187L281.4,218.6L313.5,250.7L362,250.7L362,138.6L314.1,138.6L314.1,138.6L314.1,138.6Z" fill="#93EAFF"/>
<path d="M137.1,202.3L73.3,138.6L24.9,138.6L24.9,250.6L72.9,250.6L72.9,180.6L137.2,244.8L137.2,202.3L137.1,202.3Z" fill="#93EAFF"/>
</g>
</g>
</svg>
