<?xml version="1.0" encoding="utf-8"?>
<!-- Generator: Adobe Illustrator 26.1.0, SVG Export Plug-In . SVG Version: 6.00 Build 0)  -->
<svg version="1.1" id="a" xmlns="http://www.w3.org/2000/svg" xmlns:xlink="http://www.w3.org/1999/xlink" x="0px" y="0px"
	 viewBox="0 0 419.6 115.8" style="enable-background:new 0 0 419.6 115.8;" xml:space="preserve">
<style type="text/css">
	.st0{fill:#0086FF;}
	.st1{fill:#FFFFFF;}
	.st2{fill:#93EAFF;}
</style>
<rect x="6.8" y="81.1" class="st0" width="407.4" height="29.7"/>
<path class="st1" d="M93.5,89.1h3v13.6h-3V89.1z"/>
<path class="st1" d="M100.4,89.1h2.8l6.4,8.4v-8.4h3v13.6h-2.5l-6.6-8.7v8.7h-3V89.1C100.5,89.1,100.4,89.1,100.4,89.1z"/>
<path class="st1" d="M115.6,96L115.6,96c-0.1-3.9,3-7,6.8-7.1h0.3c2-0.1,4,0.7,5.4,2.1l-1.9,2.2c-0.9-0.9-2.2-1.5-3.5-1.5
	c-2.2,0-4,1.9-4,4.1v0.1l0,0c-0.1,2.2,1.6,4.1,3.8,4.3h0.1c1.4,0,2.7-0.6,3.6-1.6l1.9,1.9c-1.4,1.6-3.4,2.5-5.6,2.4
	C118.7,103,115.6,99.9,115.6,96C115.6,96.2,115.6,96.1,115.6,96z"/>
<path class="st1" d="M130.9,96.9v-7.8h3v7.7c0,2.2,1.1,3.4,2.9,3.4s2.9-1.1,2.9-3.3v-7.8h3v7.7c0,4.1-2.3,6.1-6,6.1
	C133.1,103,130.9,100.9,130.9,96.9z"/>
<path class="st1" d="M146.3,89.1h6.3c1.3-0.1,2.6,0.3,3.6,1.2c0.6,0.6,1,1.4,0.9,2.3l0,0c0,1.2-0.7,2.4-1.8,2.9
	c1.6,0.6,2.5,1.5,2.5,3.3l0,0c0,2.5-2,3.7-5.1,3.7h-6.5L146.3,89.1z M151.9,94.7c1.3,0,2.2-0.4,2.2-1.4l0,0c0-0.9-0.7-1.4-2-1.4h-3
	v2.9L151.9,94.7L151.9,94.7z M152.7,100.1c1.3,0,2.1-0.5,2.1-1.5l0,0c0-0.9-0.7-1.5-2.2-1.5h-3.5v3H152.7z"/>
<path class="st1" d="M165.5,89.1h2.8l5.8,13.7H171l-1.2-3.1H164l-1.2,3.1h-3.1L165.5,89.1z M168.6,97.1l-1.8-4.4l-1.8,4.4H168.6z"/>
<path class="st1" d="M178.1,91.9H174v-2.8h11.3v2.8h-4.1v10.9h-3L178.1,91.9L178.1,91.9z"/>
<path class="st1" d="M188.1,89.1h3v13.6h-3V89.1z"/>
<path class="st1" d="M195,89.1h2.8l6.4,8.4v-8.4h3v13.6h-2.5l-6.6-8.7v8.7h-3L195,89.1L195,89.1z"/>
<path class="st1" d="M210.3,96L210.3,96c0-3.9,3.1-7.1,6.9-7.1h0.2c2-0.1,3.9,0.6,5.4,1.9l-1.9,2.3c-1-0.9-2.2-1.4-3.6-1.4
	c-2.2,0.1-4,2-3.9,4.2l0,0c-0.1,2.2,1.6,4.2,3.8,4.3h0.3c1,0,2-0.3,2.8-0.8v-1.9h-3v-2.6h5.9v5.9c-1.6,1.4-3.7,2.2-5.8,2.2
	c-3.8,0.2-7-2.7-7.2-6.5C210.3,96.4,210.3,96.2,210.3,96z"/>
<path class="st1" d="M232.9,89.1h5.6c3.2,0,5.2,1.9,5.2,4.7l0,0c0,3.2-2.5,4.8-5.5,4.8h-2.3v4.1h-3V89.1z M238.3,96
	c1.2,0.1,2.2-0.7,2.4-1.8V94l0,0c0-1.3-0.9-2.1-2.4-2.1H236V96H238.3z"/>
<path class="st1" d="M246.4,89.1h6.2c1.5-0.1,2.9,0.4,4,1.4c0.8,0.8,1.2,2,1.2,3.1l0,0c0.1,1.9-1.1,3.6-2.9,4.2l3.3,4.9h-3.5
	l-2.9-4.4h-2.4v4.4h-3V89.1z M252.4,95.8c1.5,0,2.3-0.8,2.3-1.9l0,0c0-1.3-0.9-1.9-2.4-1.9h-3v3.9L252.4,95.8z"/>
<path class="st1" d="M260.3,96L260.3,96c0.1-4,3.4-7.2,7.4-7.1c3.8,0.1,6.9,3.2,7,7l0,0c-0.1,4-3.4,7.1-7.4,7
	C263.6,102.9,260.5,99.8,260.3,96z M271.7,96L271.7,96c0.1-2.3-1.7-4.2-4-4.3h-0.1c-2.2,0-4.1,1.8-4.1,4.1V96l0,0
	c-0.1,2.3,1.7,4.2,4,4.3h0.1c2.2,0,4.1-1.8,4.1-4.1V96z"/>
<path class="st1" d="M276,100.9l1.9-2.1c0.6,0.8,1.5,1.3,2.5,1.4c1.1,0,1.8-0.7,1.8-2.3v-8.8h3.1V98c0.1,1.3-0.4,2.6-1.3,3.6
	c-1,0.9-2.2,1.3-3.5,1.3C278.8,103,277.1,102.3,276,100.9z"/>
<path class="st1" d="M288.8,89.1h10.3v2.7h-7.3v2.8h6.4v2.7h-6.4v2.9h7.4v2.7h-10.4C288.8,102.9,288.8,89.1,288.8,89.1z"/>
<path class="st1" d="M301.8,96L301.8,96c-0.1-3.9,3-7,6.8-7.1h0.3c2-0.1,4,0.7,5.4,2.1l-1.9,2.2c-0.9-0.9-2.2-1.5-3.5-1.5
	c-2.2,0-4,1.9-4,4.1v0.1l0,0c-0.1,2.2,1.6,4.1,3.8,4.3h0.1c1.4,0,2.7-0.6,3.6-1.6l1.9,1.9c-1.4,1.6-3.4,2.5-5.6,2.4
	c-3.8,0.1-6.9-3-7-6.8C301.7,96.2,301.7,96.1,301.8,96z"/>
<path class="st1" d="M320.4,91.9h-4.1v-2.8h11.3v2.8h-4.1v10.9h-3L320.4,91.9z"/>
<g>
	<g>
		<g>
			<g>
				<path d="M103.1,36c1.6,0,3.1-0.3,4.5-1s2.6-1.7,3.6-2.9l4.3,4.4c-3.4,3.8-7.4,5.7-12,5.7c-2.1,0.1-4.2-0.3-6.1-1
					c-2-0.7-3.7-1.9-5.3-3.3c-1.5-1.4-2.6-3.1-3.4-5c-0.8-1.9-1.1-3.9-1-6c-0.1-2.1,0.3-4.1,1.1-6c0.8-1.9,2-3.6,3.4-5.1
					c1.6-1.5,3.5-2.7,5.6-3.4c2.1-0.8,4.3-1.1,6.5-1s4.3,0.7,6.3,1.6c2,1,3.7,2.3,5.2,4l-4.1,4.7c-0.9-1.2-2.1-2.2-3.5-2.9
					c-1.4-0.7-2.9-1-4.4-1c-2.4,0-4.7,0.8-6.5,2.4c-0.9,0.8-1.6,1.9-2.1,3s-0.7,2.4-0.6,3.6c-0.1,1.2,0.1,2.5,0.6,3.6
					c0.4,1.2,1.1,2.2,2,3.1C98.7,35.2,100.9,36,103.1,36z M120.8,41.9V12h6.7v24h12.8v5.9H120.8z M169.5,37.8c-3,2.8-7,4.4-11.2,4.4
					s-8.2-1.6-11.2-4.4c-1.5-1.4-2.6-3.1-3.4-5c-0.8-1.9-1.2-3.9-1.1-6c-0.1-2,0.3-4.1,1.1-6s2-3.6,3.4-5c3-2.8,7-4.4,11.2-4.4
					s8.2,1.6,11.2,4.4c1.5,1.4,2.6,3.1,3.4,5c0.8,1.9,1.2,3.9,1.1,6c0.1,2-0.3,4.1-1.1,6C172.1,34.6,171,36.3,169.5,37.8z
					 M167.2,26.8c0-2.5-0.9-5-2.6-6.9c-0.8-0.9-1.8-1.6-2.9-2.1c-1.1-0.5-2.3-0.7-3.5-0.7s-2.4,0.3-3.5,0.7
					c-1.1,0.5-2.1,1.2-2.9,2.1c-1.7,1.9-2.7,4.3-2.6,6.9c0,2.5,0.9,5,2.6,6.9c0.8,0.9,1.8,1.6,2.9,2.1c1.1,0.5,2.3,0.7,3.5,0.7
					s2.4-0.3,3.5-0.7c1.1-0.5,2.1-1.2,2.9-2.1c0.9-0.9,1.6-2,2-3.2C167,29.3,167.2,28,167.2,26.8z M187.6,34.2
					c0.5,0.7,1.2,1.2,2,1.6c0.8,0.4,1.7,0.5,2.5,0.5c0.9,0,1.7-0.1,2.5-0.5s1.4-0.9,1.9-1.6c1.2-1.6,1.7-3.6,1.6-5.6V12.1h6.7v16.7
					c0,4.3-1.2,7.7-3.6,10c-1.2,1.2-2.7,2.1-4.2,2.7c-1.6,0.6-3.3,0.9-4.9,0.8c-1.7,0.1-3.4-0.2-5-0.8s-3-1.5-4.3-2.7
					c-2.4-2.3-3.6-5.6-3.6-10V12.1h6.7v16.5C185.8,30.6,186.4,32.6,187.6,34.2z M234.7,15.9c2.8,2.6,4.3,6.2,4.3,10.9
					s-1.4,8.4-4.1,11.1c-2.7,2.7-7.1,4-12.7,4h-10.4V12h10.6C227.8,12,231.9,13.3,234.7,15.9z M229.9,33.7c1.6-1.5,2.4-3.8,2.4-6.8
					c0-2.9-0.8-5.2-2.4-6.8c-1.6-1.5-4.1-2.4-7.6-2.4h-3.7V36h4.2C225.4,36.2,227.9,35.4,229.9,33.7z M277.1,12h6.7v29.9h-6.7
					l-14.3-18.7v18.7h-6.7V12h6.3l14.7,19.2V12z M312.5,41.9l-2.8-6.4H297l-2.8,6.4H287L300,12h6.5l12.9,29.9H312.5z M303.5,20.9
					l-3.7,8.7h7.5L303.5,20.9z M333.6,17.8V42H327V17.8h-8.5v-5.7h23.7v5.7H333.6z M347,12h6.7v29.9H347V12z M372.1,31l7.7-19h7.3
					l-12,29.9h-5.6l-12-29.9h7.3C364.8,12,372.1,31,372.1,31z M412.1,12v5.9h-14.9V24h13.4v5.7h-13.4V36h15.4v6h-22.1V12.1h21.6V12z
					 M95.5,67.4c0.9,0,1.7-0.2,2.5-0.6s1.5-1,2-1.7l2.4,2.5c-0.8,1-1.9,1.8-3,2.4c-1.2,0.6-2.4,0.9-3.7,0.9c-1.2,0-2.3-0.1-3.4-0.6
					c-1.1-0.4-2.1-1.1-2.9-1.9s-1.5-1.7-1.9-2.8c-0.4-1.1-0.6-2.2-0.6-3.3c0-1.2,0.2-2.3,0.6-3.4c0.4-1.1,1.1-2,1.9-2.9
					c0.8-0.8,1.8-1.5,2.9-1.9s2.2-0.6,3.4-0.6c1.3,0,2.6,0.2,3.8,0.8c1.2,0.5,2.3,1.3,3.1,2.3l-2.3,2.6c-0.5-0.7-1.2-1.3-1.9-1.7
					c-0.8-0.4-1.6-0.6-2.5-0.6c-1.3,0-2.6,0.5-3.6,1.4c-0.5,0.5-0.9,1.1-1.2,1.7c-0.3,0.6-0.4,1.3-0.3,2c0,0.7,0.1,1.4,0.3,2
					c0.2,0.6,0.6,1.2,1.1,1.7c0.4,0.5,1,0.8,1.6,1.1S94.8,67.4,95.5,67.4z M119.1,68.4c-1.7,1.6-3.9,2.5-6.3,2.5
					c-1.2,0-2.3-0.2-3.4-0.6s-2.1-1.1-2.9-1.9c-1.6-1.6-2.5-3.8-2.5-6.1s0.9-4.5,2.5-6.1c1.7-1.6,3.9-2.5,6.3-2.5
					c1.2,0,2.3,0.2,3.4,0.6c1.1,0.4,2.1,1.1,2.9,1.9c1.6,1.6,2.5,3.8,2.5,6.1C121.6,64.5,120.7,66.7,119.1,68.4z M117.8,62.2
					c0-1.4-0.5-2.8-1.4-3.8c-0.4-0.5-1-0.9-1.6-1.2s-1.3-0.4-1.9-0.4c-0.7,0-1.3,0.1-2,0.4c-0.6,0.3-1.2,0.7-1.6,1.2
					c-0.5,0.5-0.9,1.1-1.1,1.8s-0.3,1.4-0.3,2.1c0,1.4,0.5,2.8,1.4,3.8c0.4,0.5,1,0.9,1.6,1.2c0.6,0.3,1.3,0.4,1.9,0.4
					c0.7,0,1.3-0.1,2-0.4c0.6-0.3,1.2-0.7,1.6-1.2C117.4,65,117.9,63.6,117.8,62.2z M139.8,60.1l-4.5,9.2h-2.2l-4.5-9.2v10.6h-3.7
					V53.9h5l4.3,9.2l4.3-9.2h5v16.8h-3.7L139.8,60.1L139.8,60.1z M159.3,55.5c0.6,0.6,1.1,1.3,1.4,2.1c0.3,0.8,0.4,1.7,0.4,2.5
					c0,2.1-0.6,3.6-1.8,4.5c-1.2,1-3,1.4-5.5,1.4h-2.2v4.6h-3.7V53.9h6C156.3,54,158.1,54.5,159.3,55.5z M156.6,62
					c0.5-0.6,0.7-1.4,0.7-2.2c0-0.4,0-0.8-0.2-1.1c-0.2-0.4-0.4-0.7-0.7-0.9c-0.8-0.5-1.8-0.7-2.7-0.6h-2.1v5.6h2.5
					c0.5,0,0.9,0,1.3-0.1C155.8,62.6,156.2,62.3,156.6,62z M168.5,66.4c0.3,0.4,0.7,0.7,1.1,0.9s0.9,0.3,1.4,0.3s1-0.1,1.4-0.3
					c0.4-0.2,0.8-0.5,1.1-0.9c0.7-0.9,1-2.1,0.9-3.2v-9.3h3.7v9.4c0.1,1-0.1,2.1-0.4,3c-0.3,1-0.9,1.9-1.6,2.6
					c-1.4,1.3-3.3,1.9-5.2,1.9s-3.7-0.7-5.1-2c-0.7-0.8-1.2-1.6-1.6-2.6c-0.3-1-0.5-2-0.4-3v-9.4h3.7V63
					C167.5,64.2,167.8,65.4,168.5,66.4z M189.1,57.2v13.5h-3.7V57.2h-4.7V54H194v3.2H189.1z M196.7,54h3.7v16.8h-3.7V54z M216.3,54
					h3.7v16.8h-3.7l-8-10.5v10.5h-3.7V54h3.5l8.3,10.8V54C216.4,54,216.3,54,216.3,54z M235.1,62.2h3.7v5.9c-0.9,0.9-2,1.7-3.2,2.2
					s-2.5,0.7-3.8,0.7c-2.3,0-4.6-0.8-6.3-2.4c-0.8-0.8-1.5-1.7-1.9-2.8c-0.4-1.1-0.6-2.2-0.6-3.3s0.2-2.3,0.6-3.4
					c0.4-1.1,1.1-2,1.9-2.9s1.8-1.5,2.8-1.9c1.1-0.4,2.2-0.7,3.4-0.7c2.3,0,4.6,0.8,6.3,2.4l-1.9,2.8c-0.6-0.6-1.3-1.1-2.1-1.3
					c-0.6-0.2-1.3-0.4-2-0.4c-1.3,0-2.6,0.5-3.6,1.4c-0.5,0.5-0.9,1.1-1.2,1.8s-0.4,1.4-0.3,2.1c0,1.4,0.5,2.8,1.4,3.8
					c0.4,0.4,0.9,0.8,1.5,1s1.2,0.4,1.8,0.4c1.1,0.1,2.2-0.2,3.2-0.7v-4.7L235.1,62.2L235.1,62.2z M260,54v3.3h-7.8v3.6h7.4v3.3
					h-7.4v6.5h-3.7V54C248.5,54,260,54,260,54z M277.4,68.4c-1.7,1.6-3.9,2.5-6.3,2.5c-1.2,0-2.3-0.2-3.4-0.6s-2.1-1.1-2.9-1.9
					c-1.6-1.6-2.5-3.8-2.5-6.1s0.9-4.5,2.5-6.1c1.7-1.6,3.9-2.5,6.3-2.5c1.2,0,2.3,0.2,3.4,0.6c1.1,0.4,2.1,1.1,2.9,1.9
					c1.6,1.6,2.5,3.8,2.5,6.1C279.9,64.5,279,66.7,277.4,68.4z M276.1,62.2c0-1.4-0.5-2.8-1.4-3.8c-0.4-0.5-1-0.9-1.6-1.2
					s-1.3-0.4-1.9-0.4c-0.7,0-1.3,0.1-2,0.4s-1.2,0.7-1.6,1.2c-0.5,0.5-0.9,1.1-1.1,1.8s-0.3,1.4-0.3,2.1c0,1.4,0.5,2.8,1.4,3.8
					c0.4,0.5,1,0.9,1.6,1.2c0.6,0.3,1.3,0.4,1.9,0.4c0.7,0,1.3-0.1,2-0.4c0.6-0.3,1.2-0.7,1.6-1.2c0.5-0.5,0.9-1.1,1.1-1.8
					C276,63.6,276.1,62.9,276.1,62.2z M287.6,66.4c0.3,0.4,0.7,0.7,1.1,0.9c0.4,0.2,0.9,0.3,1.4,0.3s1-0.1,1.4-0.3
					c0.4-0.2,0.8-0.5,1.1-0.9c0.7-0.9,1-2.1,0.9-3.2v-9.3h3.7v9.4c0.1,1-0.1,2.1-0.4,3c-0.3,1-0.9,1.9-1.6,2.6
					c-1.4,1.3-3.3,1.9-5.2,1.9s-3.7-0.7-5.1-2c-0.7-0.8-1.2-1.6-1.6-2.6c-0.3-1-0.5-2-0.4-3v-9.4h3.7V63
					C286.5,64.2,286.8,65.4,287.6,66.4z M312.9,54h3.7v16.8h-3.7l-8-10.5v10.5h-3.7V54h3.5l8.3,10.8L312.9,54
					C313,54,312.9,54,312.9,54z M333.6,56.2c0.8,0.8,1.5,1.8,1.9,2.8c0.4,1.1,0.6,2.2,0.5,3.3c0.1,1.1-0.1,2.3-0.5,3.3
					c-0.4,1.1-1,2-1.8,2.8c-1.5,1.5-3.9,2.3-7.2,2.3h-5.7V54h5.9C329.7,54,332,54.7,333.6,56.2z M330.8,66.2
					c0.5-0.5,0.8-1.1,1.1-1.7c0.2-0.6,0.4-1.3,0.3-2c0-0.7-0.1-1.4-0.3-2.1c-0.2-0.7-0.6-1.3-1.1-1.8c-0.6-0.5-1.3-0.9-2-1.1
					c-0.7-0.2-1.5-0.3-2.2-0.2h-2.1v10.2h2.4C328.3,67.5,329.7,67,330.8,66.2z M350.7,70.7l-1.5-3.6h-7.1l-1.5,3.6h-4l7.3-16.8h3.6
					l7.3,16.8H350.7z M345.7,58.9l-2.1,4.8h4.2L345.7,58.9z M362.6,57.2v13.5h-3.7V57.2H354V54h13.3v3.2H362.6z M370.1,54h3.7v16.8
					h-3.7V54z M392,68.4c-1.7,1.6-3.9,2.5-6.3,2.5c-1.2,0-2.3-0.2-3.4-0.6s-2.1-1.1-2.9-1.9c-1.6-1.6-2.5-3.8-2.5-6.1
					s0.9-4.5,2.5-6.1c1.7-1.6,3.9-2.5,6.3-2.5c1.2,0,2.3,0.2,3.4,0.6c1.1,0.4,2.1,1.1,2.9,1.9c1.6,1.6,2.5,3.8,2.5,6.1
					C394.6,64.5,393.7,66.7,392,68.4z M390.8,62.2c0-1.4-0.5-2.8-1.4-3.8c-0.4-0.5-1-0.9-1.6-1.2s-1.3-0.4-1.9-0.4
					c-0.7,0-1.3,0.1-2,0.4c-0.6,0.3-1.2,0.7-1.6,1.2c-0.5,0.5-0.9,1.1-1.1,1.8s-0.3,1.4-0.3,2.1c0,1.4,0.5,2.8,1.4,3.8
					c0.4,0.5,1,0.9,1.6,1.2c0.6,0.3,1.3,0.4,1.9,0.4c0.7,0,1.3-0.1,2-0.4c0.6-0.3,1.2-0.7,1.6-1.2C390.4,65,390.9,63.6,390.8,62.2z
					 M409.5,54h3.7v16.8h-3.7l-8-10.5v10.5h-3.7V54h3.5l8.3,10.8C409.6,64.8,409.5,54,409.5,54z"/>
			</g>
		</g>
	</g>
</g>
<g>
	<path class="st0" d="M15.7,50.8H6.5v21.6H28v-9.3H15.7V50.8z"/>
	<path class="st0" d="M62,50.9v12.2H49.6v9.3h21.5V50.8h-9.3L62,50.9z"/>
	<path class="st0" d="M6.5,29.3h9.3l-0.1-0.1V17H28V7.7H6.5V29.3z"/>
	<path class="st0" d="M49.6,7.7V17H62v12.3h9.2V7.7C71.2,7.7,49.6,7.7,49.6,7.7z"/>
	<path class="st2" d="M48.4,29.3L36.1,17h13.5V7.7H28V17l12.3,12.3H48.4z"/>
	<path class="st2" d="M37.3,50.8h-8.1L39.4,61l2,2.1H28v9.3h21.6V63l-6.2-6.1L37.3,50.8z"/>
	<path class="st2" d="M62,29.3v13.4l-2.1-2.1L49.6,30.4v8.2l6.1,6.1l6.2,6.2h9.3V29.3H62L62,29.3z"/>
	<path class="st2" d="M28,41.5L15.8,29.3H6.5v21.5h9.2V37.4L28,49.7V41.5z"/>
</g>
</svg>
