<svg xmlns="http://www.w3.org/2000/svg" xmlns:xlink="http://www.w3.org/1999/xlink" role="img" viewBox="-1.75 18.75 364.00 325.25"><defs><linearGradient id="linear-gradient" x1="1175.098" x2="1426.079" y1="3721.955" y2="3721.955" gradientTransform="scale(1 -1) rotate(45 5396.039 389.048)" gradientUnits="userSpaceOnUse"><stop offset="0" stop-color="#623393"/><stop offset=".574" stop-color="#452b7c"/><stop offset="1" stop-color="#2c256c"/></linearGradient><linearGradient id="linear-gradient-2" x1="1175.098" x2="1426.079" y1="3687.806" y2="3687.806" xlink:href="#linear-gradient"/><linearGradient id="linear-gradient-3" x1="1175.098" x2="1426.079" y1="3675.419" y2="3675.419" xlink:href="#linear-gradient"/><linearGradient id="linear-gradient-4" x1="1151.304" x2="1452.722" y1="3644.626" y2="3644.626" xlink:href="#linear-gradient"/><linearGradient id="linear-gradient-5" x1="1151.304" x2="1452.722" y1="3661.787" y2="3661.787" xlink:href="#linear-gradient"/><linearGradient id="linear-gradient-6" x1="1151.304" x2="1452.722" y1="3705.416" y2="3705.416" xlink:href="#linear-gradient"/><style>.cls-3{fill:#62269e}.cls-4{fill:#fff}.cls-5{fill:#2c256c}.cls-6{fill:#5b2d82}.cls-11{fill:#250671}.cls-12{fill:#8547ad}</style></defs><path fill="url(#linear-gradient)" d="M103.47 189a35.007 35.007 0 0 0-6.068 8.22 35.74 35.74 0 0 1 6.067-8.22z"/><path fill="url(#linear-gradient-2)" d="M205.439 116.878a18.158 18.158 0 0 1 12.82 5.284l10.47 10.471-10.47-10.47a18.327 18.327 0 0 0-12.82-5.285z"/><path d="M103.47 129.404a29.71 29.71 0 0 1 42.079 0l8.71 8.71 27.204-27.205a33.843 33.843 0 0 1 47.854 0l10.47 10.47 26.227-26.226-57.052-57.052a42.29 42.29 0 0 0-59.694 0L31.542 155.924a42.292 42.292 0 0 0-6.263 51.67l.392-.391zm153.737 102.459a29.71 29.71 0 0 1-42.08 0l-10.373-10.373-34.349 34.349a33.843 33.843 0 0 1-47.853 0l-8.808-8.807-25.443 25.443 52.453 52.453a42.29 42.29 0 0 0 59.694 0l117.726-117.725a42.422 42.422 0 0 0 9.296-45.603l-3.816 3.816z" class="cls-3"/><path d="M159.25 244.683a18.073 18.073 0 0 1-25.542 0l-8.808-8.807-10.275-10.276a17.934 17.934 0 0 1-5.284-12.722 17.71 17.71 0 0 1 1.37-6.752 18.031 18.031 0 0 1 3.914-5.97l50.79-50.789 27.204-27.205a18.105 18.105 0 0 1 9.297-4.99 20.237 20.237 0 0 1 3.425-.294 18.158 18.158 0 0 1 12.82 5.284l10.47 10.471 11.157-11.156-10.471-10.47a33.843 33.843 0 0 0-47.854 0l-27.205 27.204-50.789 50.79a35.007 35.007 0 0 0-6.067 8.22 28.55 28.55 0 0 0-1.37 3.034 33.763 33.763 0 0 0 7.437 36.697l10.177 10.177 8.808 8.808a33.843 33.843 0 0 0 47.853 0l34.35-34.349-11.157-11.156z" class="cls-4"/><path d="M323.654 165.416l3.816-3.816a39.847 39.847 0 0 0-5.676-9.884 128.037 128.037 0 0 1 1.86 13.7z" class="cls-5"/><path d="M25.573 207.3l-.392.392c.196.391.49.783.685 1.174a4.057 4.057 0 0 0-.293-1.566z" class="cls-6"/><path fill="url(#linear-gradient-3)" d="M193.304 167.96l35.426-35.424-10.471-10.471a17.991 17.991 0 0 0-12.82-5.285 19.401 19.401 0 0 0-3.425.294 18.105 18.105 0 0 0-9.297 4.99l-27.205 27.206 1.957 1.957a29.71 29.71 0 0 1 0 42.08L124.9 235.876l8.808 8.807a17.991 17.991 0 0 0 12.82 5.284 17.71 17.71 0 0 0 6.752-1.37 18.031 18.031 0 0 0 5.97-3.914l34.348-34.349-.294-.293a29.71 29.71 0 0 1 0-42.08z"/><path d="M193.304 167.96l35.426-35.424-10.471-10.471a17.991 17.991 0 0 0-12.82-5.285 19.401 19.401 0 0 0-3.425.294 18.105 18.105 0 0 0-9.297 4.99l-27.205 27.206 1.957 1.957a29.71 29.71 0 0 1 0 42.08L124.9 235.876l8.808 8.807a17.991 17.991 0 0 0 12.82 5.284 17.71 17.71 0 0 0 6.752-1.37 18.031 18.031 0 0 0 5.97-3.914l34.348-34.349-.294-.293a29.71 29.71 0 0 1 0-42.08z" class="cls-3"/><path d="M159.25 244.683a18.03 18.03 0 0 1-5.97 3.914 16.629 16.629 0 0 0 5.97-3.914z" class="cls-4"/><path fill="url(#linear-gradient-4)" d="M159.25 244.683a18.03 18.03 0 0 1-5.97 3.914 16.629 16.629 0 0 0 5.97-3.914z"/><path d="M124.9 235.876l8.808 8.807a17.991 17.991 0 0 0 12.82 5.284 18.158 18.158 0 0 1-12.82-5.284z" class="cls-4"/><path fill="url(#linear-gradient-5)" d="M124.9 235.876l8.808 8.807a17.991 17.991 0 0 0 12.82 5.284 18.158 18.158 0 0 1-12.82-5.284z"/><path d="M192.62 122.162a18.105 18.105 0 0 1 9.296-4.99 18.492 18.492 0 0 0-9.297 4.99z" class="cls-4"/><path fill="url(#linear-gradient-6)" d="M192.62 122.162a18.105 18.105 0 0 1 9.296-4.99 18.492 18.492 0 0 0-9.297 4.99z"/><path d="M31.542 215.716a40.716 40.716 0 0 1-5.578-6.85 7.299 7.299 0 0 1-.685-1.174l-11.156 11.156a29.71 29.71 0 0 0 0 42.08l21.823 21.822a29.9 29.9 0 0 0 42.08 0l6.948-6.948 2.446-2.446.88-.88z" class="cls-11"/><path d="M103.47 236.756a35.007 35.007 0 0 1-6.068-8.22 34.098 34.098 0 0 1-1.37-28.477c.391-.979.88-2.055 1.37-3.034a34.298 34.298 0 0 1 6.067-8.22l50.79-50.79-8.71-8.709a29.71 29.71 0 0 0-42.08 0l-77.798 77.799c.097.49.195 1.076.293 1.566a37.161 37.161 0 0 0 5.578 6.85l56.759 56.758 25.443-25.443z" class="cls-12"/><path d="M96.13 200.157a34.098 34.098 0 0 0 1.37 28.477 33.772 33.772 0 0 1-1.37-28.477z" class="cls-6"/><path d="M124.9 235.876l42.472-42.472a29.71 29.71 0 0 0 0-42.08l-1.958-1.957-50.789 50.79a18.56 18.56 0 0 0-5.284 12.721 17.77 17.77 0 0 0 5.284 12.722z" class="cls-12"/><path d="M114.625 225.6a17.934 17.934 0 0 1-5.284-12.722 17.934 17.934 0 0 0 5.284 12.722l10.178 10.178zm0-25.541a18.031 18.031 0 0 0-3.914 5.97 18.031 18.031 0 0 1 3.914-5.97z" class="cls-6"/><path d="M228.632 132.536l-35.425 35.425a29.71 29.71 0 0 0 0 42.08l.293.293 43.646-43.645a18.105 18.105 0 0 0 4.99-9.297 20.235 20.235 0 0 0 .294-3.425 18.158 18.158 0 0 0-5.284-12.82z" class="cls-11"/><path d="M237.243 166.689a18.105 18.105 0 0 0 4.991-9.297 18.105 18.105 0 0 1-4.99 9.297z" class="cls-5"/><path fill="#623393" d="M237.243 141.147a17.991 17.991 0 0 1 5.285 12.82 17.991 17.991 0 0 0-5.285-12.82l-8.611-8.611zm11.157 36.698a34.285 34.285 0 0 0 7.437-11.156 33.286 33.286 0 0 1-7.437 11.156z"/><path d="M255.837 166.689a29.417 29.417 0 0 0 1.076-3.132 33.75 33.75 0 0 0-8.514-33.566l-8.611-8.611-11.156 11.156 8.611 8.611a17.991 17.991 0 0 1 5.285 12.82 19.404 19.404 0 0 1-.294 3.425 18.105 18.105 0 0 1-4.99 9.297l-43.646 43.645 11.156 11.156 43.645-43.645a33.285 33.285 0 0 0 7.438-11.156zm90.716-66.251L324.73 78.615a29.758 29.758 0 0 0-39.927-1.957 20.441 20.441 0 0 0-2.153 1.957l-14.09 14.092-2.447 2.446-.098.098 52.16 52.16a50.907 50.907 0 0 1 3.718 4.305 43.703 43.703 0 0 1 5.676 9.884l19.083-19.083a29.798 29.798 0 0 0-.098-42.08z" class="cls-3"/><path d="M248.4 129.991a33.75 33.75 0 0 1 8.513 33.566c-.293 1.077-.685 2.055-1.076 3.132a32.345 32.345 0 0 1-7.437 11.156l-43.646 43.645 10.373 10.373a29.71 29.71 0 0 0 42.08 0l66.447-66.447a128.037 128.037 0 0 0-1.86-13.7 50.915 50.915 0 0 0-3.718-4.306l-52.16-52.159-26.226 26.226z" class="cls-11"/><path d="M248.4 129.991a33.75 33.75 0 0 1 8.513 33.566 33.804 33.804 0 0 0-8.514-33.566l-8.611-8.611z" class="cls-5"/></svg>
