<?xml version="1.0" encoding="UTF-8" standalone="no"?>
<!DOCTYPE svg PUBLIC "-//W3C//DTD SVG 1.1//EN" "http://www.w3.org/Graphics/SVG/1.1/DTD/svg11.dtd">
<svg width="100%" height="100%" viewBox="0 0 408 512" version="1.1" xmlns="http://www.w3.org/2000/svg" xmlns:xlink="http://www.w3.org/1999/xlink" xml:space="preserve" xmlns:serif="http://www.serif.com/" style="fill-rule:evenodd;clip-rule:evenodd;stroke-linejoin:round;stroke-miterlimit:2;">
    <path d="M407.951,324.939L376.111,367.867L407.951,466.798L204.117,512L0,466.798L31.84,367.867L0,324.939L0,204.686L31.84,163.18L31.84,93.246L133.899,56.573L133.899,0L274.052,0L274.052,56.573L376.111,93.246L376.111,163.18L407.951,204.686L407.951,324.939ZM204.118,367.867C260.406,367.867 306.176,322.097 306.176,265.808C306.176,209.519 260.406,163.749 204.118,163.749C147.829,163.749 102.059,209.519 102.059,265.808C102.059,322.097 147.829,367.867 204.118,367.867Z" style="fill:white;fill-rule:nonzero;"/>
</svg>
