<svg xmlns="http://www.w3.org/2000/svg" role="img" viewBox="-6.49 -6.74 316.49 363.74" style="opacity:0.75;"><mask id="a" fill="#fff"><path fill-rule="evenodd" d="M0 0h313.30316v159.86487H0z"/></mask><mask id="b" fill="#fff"><path fill-rule="evenodd" d="M0 0h313.30316v159.86487H0z"/></mask><g fill="none" fill-rule="evenodd"><path fill="#fff" d="M.67857 138h19.78584v26.789h23.9037V138h19.78583v75.25H44.36811v-28.69533H20.4644V213.25H.67857zm86.17384 75.25V138h46.80305v16.35433h-27.01721V166.595h23.9037v16.65533h-23.9037v13.846h27.0172V213.25zm68.49716 0V138h19.78584v55.384h27.11764v19.866zM232.88594 138l30.73333 27.89267L294.25217 138h8.93877v75.25h-19.88627v-38.62833l-19.6854 17.95966-19.78583-17.85933v38.528h-19.88628V138z"/><g fill="#fff" mask="url(#a)" transform="matrix(1 0 0 -1 .958 404)"><path d="M223.65116 143.37643c5.68189 3.9785 18.7822-4.92728 29.26034-19.89163s14.36629-30.32057 8.6844-34.29907c-5.6819-3.9785-18.7822 4.92728-29.26035 19.89163s-14.36629 30.32057-8.6844 34.29907z"/><path d="M88.27749 143.37612c-5.6819 3.9785-18.7822-4.92729-29.26035-19.89164s-14.36628-30.32056-8.68439-34.29907 18.7822 4.92729 29.26035 19.89164 14.36628 30.32056 8.68439 34.29907z"/><path d="M155.89619 119.94527c-6.93632 0-12.5593-14.80922-12.5593-33.07732s5.62298-33.07732 12.5593-33.07732c6.9363 0 12.5593 14.80922 12.5593 33.07732s-5.623 33.07732-12.5593 33.07732z"/></g><path stroke="#fff" stroke-width="20" d="M251.467 173.09985c-20.23007-33.60997-56.88956-56.0679-98.75577-56.0679-40.7208 0-76.51588 21.2459-97.0587 53.33458m2.19811 129.16953c20.8403 30.2327 55.5559 50.0266 94.86059 50.0266 39.3761 0 74.14642-19.8659 94.97405-50.1915" mask="url(#a)" transform="matrix(1 0 0 -1 .958 404)"/><g><g fill="#fff" mask="url(#b)" transform="translate(.958 -51)"><path d="M223.65097 140.91704c5.68189 3.9785 18.7822-4.92728 29.26034-19.89163s14.36629-30.32057 8.6844-34.29907c-5.6819-3.9785-18.7822 4.92728-29.26035 19.89163s-14.36629 30.32057-8.6844 34.29907z"/><path d="M88.27768 140.91673c-5.6819 3.9785-18.7822-4.92729-29.26035-19.89164s-14.36628-30.32056-8.68439-34.29907 18.7822 4.92728 29.26035 19.89163 14.36628 30.32057 8.6844 34.29908z"/><path d="M155.89619 117.48627c-6.93632 0-12.5593-14.80922-12.5593-33.07732s5.62298-33.07732 12.5593-33.07732c6.9363 0 12.5593 14.80922 12.5593 33.07732s-5.623 33.07732-12.5593 33.07732z"/></g><path stroke="#fff" stroke-width="20" d="M251.467 170.64039c-20.23007-33.60997-56.88956-56.0679-98.75577-56.0679-40.7208 0-76.51588 21.2459-97.0587 53.33458m2.19811 129.16953c20.8403 30.2327 55.5559 50.0266 94.86059 50.0266 39.3761 0 74.14642-19.8659 94.97405-50.1915" mask="url(#b)" transform="translate(.958 -51)"/></g></g></svg>
