<svg id="Layer_1" data-name="Layer 1" xmlns="http://www.w3.org/2000/svg" viewBox="0 0 360 360"><defs><style>.cls-1{fill:#006bb8;}</style></defs><path class="cls-1" d="M314.19411,67.43965l-20.07536-9.77213L78.70687,325.55151l13.80845,17.52611c.74353.84974,1.48707,1.69951,2.23059,2.443L317.16822,69.13915A16.53719,16.53719,0,0,0,314.19411,67.43965Z"/><polygon class="cls-1" points="122.363 352 154.653 352 336.181 126.179 329.277 94.632 122.363 352"/><polygon class="cls-1" points="247.382 35.043 147.006 159.85 147.006 159.85 147.006 159.85 46.523 284.763 62.455 305.051 270.538 46.302 247.382 35.043"/><path class="cls-1" d="M247.17,352a23.74259,23.74259,0,0,0,18.37585-8.81615l85.82487-106.85619a23.59769,23.59769,0,0,0,4.67363-19.86293l-12.74627-58.31417L187.36877,352Z"/><path class="cls-1" d="M123.9561,114.81328a20.70259,20.70259,0,1,0,3.18657,29.104h0A20.72928,20.72928,0,0,0,123.9561,114.81328Z"/><path class="cls-1" d="M81.99965,166.96673a46.23267,46.23267,0,0,1,57.99551-72.01639,45.09086,45.09086,0,0,1,13.06492,16.78258l70.848-88.05545L191.93618,8.16952a23.65854,23.65854,0,0,0-20.394,0L48.22205,67.43965A23.327,23.327,0,0,0,39.29966,74.875a24.83693,24.83693,0,0,0-3.9301,8.49751L4.035,216.57094A23.28342,23.28342,0,0,0,8.39,236.43388l21.9873,27.82936,70.848-88.16166A46.52786,46.52786,0,0,1,81.99965,166.96673Z"/></svg>
