<?xml version='1.0' encoding='utf-8'?>
<!-- Generator: imaengine 6.0   -->
<svg xmlns:xlink="http://www.w3.org/1999/xlink" xmlns="http://www.w3.org/2000/svg" viewBox="0,0,735,593" style="enable-background:new 0 0 735 593;" version="1.1">
<defs/>
<g id="layer0">
<path d="M304.031,0C301.801,1.58946e-07 299.56,0.50753 297.5,1.5L65.75,113.094C61.629,115.078 58.645,118.823 57.625,123.281L0.375,374.062C-0.642921,378.52 0.42952,383.207 3.28125,386.781L163.656,587.875C166.508,591.448 170.834,593.529 175.406,593.531L432.625,593.531C437.196,593.531 441.523,591.447 444.375,587.875L604.75,386.781C607.602,383.207 608.674,378.52 607.656,374.062L564.844,191.61L547.586,191.788L547.938,120.219L547.597,120.395C546.142,117.314 545.412,114.599 542.281,113.094L310.531,1.5C308.471,0.507531 306.261,-1.58946e-07 304.031,0ZM221.844,210.531L272.906,210.531L272.906,311.312L273.906,311.312C278.978,302.514 284.397,294.397 289.469,286.281L341.219,210.531L404.438,210.531L329.031,307.562L408.5,438.438L348.312,438.438L292.5,340.031L272.906,364.031L272.906,438.438L221.844,438.438L221.844,210.531Z" fill="#FFFFFF" fill-opacity="0.608393"/>
<path d="M587.906,0.84375C587.037,0.84375 586.142,1.01003 585.312,1.3125L494.219,34.4688C492.56,35.0745 491.164,36.2514 490.281,37.7812L441.812,121.75C440.928,123.281 440.598,125.071 440.906,126.812L457.75,222.281C458.054,224.022 458.958,225.615 460.312,226.75L534.594,289.062C535.946,290.199 537.64,290.812 539.406,290.812L636.375,290.812C638.142,290.812 639.865,290.199 641.219,289.062L715.469,226.75C716.822,225.614 717.757,224.021 718.062,222.281L734.875,126.812C735.18,125.071 734.883,123.281 734,121.75L685.531,37.7812C684.647,36.2509 683.223,35.0741 681.562,34.4688L590.469,1.3125C589.639,1.01003 588.776,0.84375 587.906,0.84375ZM597.5,99.9375C602.41,99.9375 606.765,100.806 610.562,102.5C614.364,104.194 617.554,106.56 620.156,109.594C622.758,112.634 624.716,116.261 626.031,120.469C627.347,124.674 628,129.288 628,134.312L628,191.719L603.906,191.719L603.906,134.312C603.906,129.287 602.738,125.371 600.406,122.594C598.064,119.819 594.596,118.438 590.031,118.438C586.646,118.438 583.487,119.163 580.5,120.625C577.519,122.087 574.684,124.148 572,126.781L572,191.719L547.781,191.719L547.781,101.344L562.688,101.344C565.728,101.344 567.751,102.755 568.75,105.562L570.219,111.875C572.001,110.152 573.892,108.519 575.875,107.031C577.825,105.576 579.932,104.335 582.125,103.281C584.317,102.229 586.677,101.398 589.219,100.812C591.761,100.228 594.52,99.9375 597.5,99.9375Z" fill="#FFFFFF"/>
</g>
</svg>
