<?xml version="1.0"?>
<svg version="1.1" xmlns="http://www.w3.org/2000/svg" xmlns:xlink="http://www.w3.org/1999/xlink" width="480" height="480">
    <desc iVinci="yes" version="4.6" gridStep="20" showGrid="no" snapToGrid="no" codePlatform="0"/>
    <g id="Layer1" name="Layer 1" opacity="1">
        <g id="Shape1">
            <desc shapeID="1" type="0" basicInfo-basicType="0" basicInfo-roundedRectRadius="12" basicInfo-polygonSides="6" basicInfo-starPoints="5" bounding="rect(-7.8775,-25.8965,15.755,51.793)" text="" font-familyName="" font-pixelSize="20" font-bold="0" font-underline="0" font-alignment="1" strokeStyle="0" markerStart="0" markerEnd="0" shadowEnabled="0" shadowOffsetX="0" shadowOffsetY="2" shadowBlur="4" shadowOpacity="160" blurEnabled="0" blurRadius="4" transform="matrix(0.974333,0,0,0.974333,460.034,240.683)" pers-center="0,0" pers-size="0,0" pers-start="0,0" pers-end="0,0" locked="0" mesh="" flag=""/>
            <path id="shapePath1" d="M467.709,233.933 C466.842,246.638 461.706,257.282 452.358,265.915 C452.408,249.096 452.447,232.268 452.499,215.451 C459.226,220.24 464.113,226.562 467.709,233.933 Z" style="stroke:none;fill-rule:evenodd;fill:#ffffff;fill-opacity:1;"/>
        </g>
        <g id="Shape2">
            <desc shapeID="2" type="0" basicInfo-basicType="0" basicInfo-roundedRectRadius="12" basicInfo-polygonSides="6" basicInfo-starPoints="5" bounding="rect(-8.248,-27.1165,16.496,54.233)" text="" font-familyName="" font-pixelSize="20" font-bold="0" font-underline="0" font-alignment="1" strokeStyle="0" markerStart="0" markerEnd="0" shadowEnabled="0" shadowOffsetX="0" shadowOffsetY="2" shadowBlur="4" shadowOpacity="160" blurEnabled="0" blurRadius="4" transform="matrix(0.974333,0,0,0.974333,23.7502,173.554)" pers-center="0,0" pers-size="0,0" pers-start="0,0" pers-end="0,0" locked="0" mesh="" flag=""/>
            <path id="shapePath2" d="M15.7139,180.619 C16.6181,167.315 21.9993,156.169 31.7865,147.134 C31.7339,164.743 31.6949,182.364 31.6423,199.975 C24.5949,194.955 19.4807,188.336 15.7139,180.619 Z" style="stroke:none;fill-rule:evenodd;fill:#ffffff;fill-opacity:1;"/>
        </g>
        <g id="Shape3">
            <desc shapeID="3" type="0" basicInfo-basicType="0" basicInfo-roundedRectRadius="12" basicInfo-polygonSides="6" basicInfo-starPoints="5" bounding="rect(-9.862,-32.372,19.724,64.744)" text="" font-familyName="" font-pixelSize="20" font-bold="0" font-underline="0" font-alignment="1" strokeStyle="0" markerStart="0" markerEnd="0" shadowEnabled="0" shadowOffsetX="0" shadowOffsetY="2" shadowBlur="4" shadowOpacity="160" blurEnabled="0" blurRadius="4" transform="matrix(0.974333,0,0,0.974333,23.3955,306.024)" pers-center="0,0" pers-size="0,0" pers-start="0,0" pers-end="0,0" locked="0" mesh="" flag=""/>
            <path id="shapePath3" d="M13.7867,297.588 C14.8818,313.486 21.3153,326.779 33.0044,337.565 C32.9313,316.544 32.8602,295.496 32.7696,274.483 C24.3738,280.479 18.2559,288.371 13.7867,297.588 Z" style="stroke:none;fill-rule:evenodd;fill:#ffffff;fill-opacity:1;"/>
        </g>
        <g id="Shape4">
            <desc shapeID="4" type="0" basicInfo-basicType="0" basicInfo-roundedRectRadius="12" basicInfo-polygonSides="6" basicInfo-starPoints="5" bounding="rect(-108.885,-181.865,217.771,363.731)" text="" font-familyName="" font-pixelSize="20" font-bold="0" font-underline="0" font-alignment="1" strokeStyle="0" markerStart="0" markerEnd="0" shadowEnabled="0" shadowOffsetX="0" shadowOffsetY="2" shadowBlur="4" shadowOpacity="160" blurEnabled="0" blurRadius="4" transform="matrix(0.974333,0,0,0.974333,136.553,298.618)" pers-center="0,0" pers-size="0,0" pers-start="0,0" pers-end="0,0" locked="0" mesh="" flag=""/>
            <path id="shapePath4" d="M241.749,475.729 C233.727,476.301 226.348,473.995 219.494,470.071 C165.127,438.967 110.782,407.815 56.4703,376.613 C39.8316,367.045 31.3773,352.37 31.276,332.953 C30.9466,271.043 30.7342,209.134 30.4634,147.225 C30.4224,137.972 32.4179,129.296 37.3422,121.42 C38.0641,121.771 38.8056,122.083 39.5052,122.475 C91.7031,151.917 143.91,181.347 196.089,210.824 C211.02,219.255 225.875,227.826 240.762,236.339 C241.017,236.672 241.272,237.016 241.516,237.349 C241.571,238.662 241.673,239.976 241.678,241.291 C242.002,317.742 242.323,394.199 242.644,470.658 C242.649,471.968 242.558,473.277 242.52,474.596 C242.263,474.962 242.006,475.35 241.749,475.729 Z" style="stroke:#ffffff;stroke-opacity:1;stroke-width:4;stroke-linejoin:miter;stroke-miterlimit:2;stroke-linecap:butt;fill:none;"/>
        </g>
        <g id="Shape5">
            <desc shapeID="5" type="0" basicInfo-basicType="0" basicInfo-roundedRectRadius="12" basicInfo-polygonSides="6" basicInfo-starPoints="5" bounding="rect(-108.318,-182.376,216.635,364.752)" text="" font-familyName="" font-pixelSize="20" font-bold="0" font-underline="0" font-alignment="1" strokeStyle="0" markerStart="0" markerEnd="0" shadowEnabled="0" shadowOffsetX="0" shadowOffsetY="2" shadowBlur="4" shadowOpacity="160" blurEnabled="0" blurRadius="4" transform="matrix(0.974333,0,0,0.974333,347.312,298.584)" pers-center="0,0" pers-size="0,0" pers-start="0,0" pers-end="0,0" locked="0" mesh="" flag=""/>
            <path id="shapePath5" d="M241.779,475.041 C241.823,473.722 241.918,472.411 241.918,471.102 C241.92,394.643 241.92,318.187 241.918,241.734 C241.918,240.419 241.823,239.105 241.775,237.792 C241.92,237.512 241.987,237.213 241.972,236.898 C309.884,198.226 377.793,159.56 445.696,120.889 C450.769,128.704 452.744,137.478 452.76,146.652 C452.849,208.728 452.917,270.806 452.736,332.88 C452.681,352.023 444.171,366.698 427.764,376.214 C373.882,407.507 319.941,438.696 266.003,469.888 C258.582,474.178 250.698,476.87 241.988,476.168 C241.917,475.79 241.84,475.406 241.779,475.041 Z" style="stroke:#ffffff;stroke-opacity:1;stroke-width:4;stroke-linejoin:miter;stroke-miterlimit:2;stroke-linecap:butt;fill:none;"/>
        </g>
        <g id="Shape6">
            <desc shapeID="6" type="0" basicInfo-basicType="0" basicInfo-roundedRectRadius="12" basicInfo-polygonSides="6" basicInfo-starPoints="5" bounding="rect(-209.173,-120.03,418.345,240.06)" text="" font-familyName="" font-pixelSize="20" font-bold="0" font-underline="0" font-alignment="1" strokeStyle="0" markerStart="0" markerEnd="0" shadowEnabled="0" shadowOffsetX="0" shadowOffsetY="2" shadowBlur="4" shadowOpacity="160" blurEnabled="0" blurRadius="4" transform="matrix(0.974333,0,0,0.974333,241.891,119.949)" pers-center="0,0" pers-size="0,0" pers-start="0,0" pers-end="0,0" locked="0" mesh="" flag=""/>
            <path id="shapePath6" d="M445.695,120.889 C377.793,159.56 309.883,198.227 241.971,236.898 L241.506,236.768 L241.023,236.777 C226.17,228.203 211.351,219.569 196.457,211.075 C144.401,181.379 92.3218,151.73 40.2466,122.068 C39.549,121.673 38.8075,121.358 38.0875,121.005 C42.2255,113.259 48.4564,107.682 55.8778,103.382 C109.44,72.3605 163.029,41.3904 216.569,10.3335 C233.68,0.406021 250.641,0.650581 267.64,10.503 C320.183,40.949 372.725,71.4076 425.3,101.808 C433.575,106.593 440.976,112.225 445.695,120.889 Z" style="stroke:#ffffff;stroke-opacity:1;stroke-width:4;stroke-linejoin:miter;stroke-miterlimit:2;stroke-linecap:butt;fill:none;"/>
        </g>
        <g id="Shape7">
            <desc shapeID="7" type="0" basicInfo-basicType="0" basicInfo-roundedRectRadius="12" basicInfo-polygonSides="6" basicInfo-starPoints="5" bounding="rect(0,-122.427,0,244.854)" text="" font-familyName="" font-pixelSize="20" font-bold="0" font-underline="0" font-alignment="1" strokeStyle="0" markerStart="0" markerEnd="0" shadowEnabled="0" shadowOffsetX="0" shadowOffsetY="2" shadowBlur="4" shadowOpacity="160" blurEnabled="0" blurRadius="4" transform="matrix(0.974333,0,0,0.974333,241.774,356.73)" pers-center="0,0" pers-size="0,0" pers-start="0,0" pers-end="0,0" locked="0" mesh="" flag=""/>
            <path id="shapePath7" d="M241.774,237.446 L241.774,476.015 " style="stroke:#ffffff;stroke-opacity:1;stroke-width:4;stroke-linejoin:miter;stroke-miterlimit:2;stroke-linecap:butt;fill-rule:nonzero;fill:#cc9966;fill-opacity:1;"/>
        </g>
        <g id="Shape8">
            <desc shapeID="8" type="0" basicInfo-basicType="0" basicInfo-roundedRectRadius="12" basicInfo-polygonSides="6" basicInfo-starPoints="5" bounding="rect(-104.647,-59.991,209.295,119.982)" text="" font-familyName="" font-pixelSize="20" font-bold="0" font-underline="0" font-alignment="1" strokeStyle="0" markerStart="0" markerEnd="0" shadowEnabled="0" shadowOffsetX="0" shadowOffsetY="2" shadowBlur="4" shadowOpacity="160" blurEnabled="0" blurRadius="4" transform="matrix(0.974333,0,0,0.974333,343.335,178.995)" pers-center="0,0" pers-size="0,0" pers-start="0,0" pers-end="0,0" locked="0" mesh="" flag=""/>
            <path id="shapePath8" d="M241.373,237.446 L445.296,120.543 " style="stroke:#ffffff;stroke-opacity:1;stroke-width:4;stroke-linejoin:miter;stroke-miterlimit:2;stroke-linecap:butt;fill:none;"/>
        </g>
        <g id="Shape9">
            <desc shapeID="9" type="0" basicInfo-basicType="0" basicInfo-roundedRectRadius="12" basicInfo-polygonSides="6" basicInfo-starPoints="5" bounding="rect(-104.317,-59.7325,208.634,119.465)" text="" font-familyName="" font-pixelSize="20" font-bold="0" font-underline="0" font-alignment="1" strokeStyle="0" markerStart="0" markerEnd="0" shadowEnabled="0" shadowOffsetX="0" shadowOffsetY="2" shadowBlur="4" shadowOpacity="160" blurEnabled="0" blurRadius="4" transform="matrix(0.974333,0,0,0.974333,140.134,179.246)" pers-center="0,0" pers-size="0,0" pers-start="0,0" pers-end="0,0" locked="0" mesh="" flag=""/>
            <path id="shapePath9" d="M241.774,237.446 L38.4948,121.047 " style="stroke:#ffffff;stroke-opacity:1;stroke-width:4;stroke-linejoin:miter;stroke-miterlimit:2;stroke-linecap:butt;fill:none;"/>
        </g>
        <g id="Shape10">
            <desc shapeID="10" type="0" basicInfo-basicType="0" basicInfo-roundedRectRadius="12" basicInfo-polygonSides="6" basicInfo-starPoints="5" bounding="rect(-116.719,-50.1968,233.439,100.394)" text="" font-familyName="" font-pixelSize="20" font-bold="0" font-underline="0" font-alignment="1" strokeStyle="0" markerStart="0" markerEnd="0" shadowEnabled="0" shadowOffsetX="0" shadowOffsetY="2" shadowBlur="4" shadowOpacity="160" blurEnabled="0" blurRadius="4" transform="matrix(0.974333,0,0,0.974333,123.61,131.711)" pers-center="0,0" pers-size="0,0" pers-start="0,0" pers-end="0,0" locked="0" mesh="" flag=""/>
            <path id="shapePath10" d="M31.8713,101.652 C75.5019,65.6035 114.27,88.3308 153.403,111.242 C176.076,124.503 197.556,141.171 225.788,141.12 C229.632,141.109 233.478,140.388 237.334,139.99 C233.446,142.396 229.792,145.262 225.668,147.144 C195.444,160.917 166.959,154.378 138.428,140.68 C102.014,123.184 65.7293,118.657 31.7875,147.135 C22.0003,156.17 16.6191,167.316 15.7149,180.62 C9.33591,166.437 8.39471,151.839 11.9082,136.747 C15.1079,123.026 22.6044,111.857 31.8713,101.652 Z" style="stroke:none;fill-rule:evenodd;fill:#ffffff;fill-opacity:1;"/>
        </g>
        <g id="Shape11">
            <desc shapeID="11" type="0" basicInfo-basicType="0" basicInfo-roundedRectRadius="12" basicInfo-polygonSides="6" basicInfo-starPoints="5" bounding="rect(-139.358,-59.8922,278.715,119.784)" text="" font-familyName="" font-pixelSize="20" font-bold="0" font-underline="0" font-alignment="1" strokeStyle="0" markerStart="0" markerEnd="0" shadowEnabled="0" shadowOffsetX="0" shadowOffsetY="2" shadowBlur="4" shadowOpacity="160" blurEnabled="0" blurRadius="4" transform="matrix(0.974333,0,0,0.974333,142.781,355.944)" pers-center="0,0" pers-size="0,0" pers-start="0,0" pers-end="0,0" locked="0" mesh="" flag=""/>
            <path id="shapePath11" d="M33.2938,391.855 C85.4323,434.83 131.691,407.666 178.395,380.273 C205.453,364.4 231.095,344.483 264.77,344.509 C269.365,344.524 273.956,345.378 278.562,345.848 C273.909,342.986 269.542,339.577 264.627,337.339 C228.526,320.919 194.529,328.747 160.482,345.148 C117.025,366.063 73.7121,371.506 33.1457,337.566 C21.4566,326.78 15.0231,313.487 13.9279,297.589 C6.32814,314.527 5.22034,331.964 9.43433,349.968 C13.2751,366.341 22.239,379.672 33.2938,391.855 Z" style="stroke:none;fill-rule:evenodd;fill:#ffffff;fill-opacity:1;"/>
        </g>
        <g id="Shape12">
            <desc shapeID="12" type="0" basicInfo-basicType="0" basicInfo-roundedRectRadius="12" basicInfo-polygonSides="6" basicInfo-starPoints="5" bounding="rect(-111.465,-47.9396,222.93,95.8792)" text="" font-familyName="" font-pixelSize="20" font-bold="0" font-underline="0" font-alignment="1" strokeStyle="0" markerStart="0" markerEnd="0" shadowEnabled="0" shadowOffsetX="0" shadowOffsetY="2" shadowBlur="4" shadowOpacity="160" blurEnabled="0" blurRadius="4" transform="matrix(0.974333,0,0,0.974333,364.67,280.641)" pers-center="0,0" pers-size="0,0" pers-start="0,0" pers-end="0,0" locked="0" mesh="" flag=""/>
            <path id="shapePath12" d="M452.278,309.349 C410.61,343.775 373.587,322.074 336.208,300.19 C314.559,287.527 294.044,271.609 267.091,271.658 C263.414,271.668 259.741,272.358 256.066,272.734 C259.768,270.44 263.266,267.703 267.203,265.905 C296.064,252.752 323.269,258.995 350.517,272.075 C385.294,288.784 419.944,293.107 452.359,265.914 C461.707,257.281 466.843,246.637 467.71,233.932 C473.798,247.479 474.7,261.419 471.343,275.831 C468.287,288.933 461.126,299.599 452.278,309.349 Z" style="stroke:none;fill-rule:evenodd;fill:#ffffff;fill-opacity:1;"/>
        </g>
    </g>
</svg>
