<?xml version="1.0"?>
<svg version="1.1" xmlns="http://www.w3.org/2000/svg" xmlns:xlink="http://www.w3.org/1999/xlink" width="480" height="480">
    <desc iVinci="yes" version="4.6" gridStep="20" showGrid="no" snapToGrid="no" codePlatform="0"/>
    <g id="Layer1" name="Layer 1" opacity="1">
        <g id="Shape1">
            <desc shapeID="1" type="0" basicInfo-basicType="0" basicInfo-roundedRectRadius="12" basicInfo-polygonSides="6" basicInfo-starPoints="5" bounding="rect(-7.8775,-25.8965,15.755,51.793)" text="" font-familyName="" font-pixelSize="20" font-bold="0" font-underline="0" font-alignment="1" strokeStyle="0" markerStart="0" markerEnd="0" shadowEnabled="0" shadowOffsetX="0" shadowOffsetY="2" shadowBlur="4" shadowOpacity="160" blurEnabled="0" blurRadius="4" transform="matrix(0.974333,0,0,0.974333,460.034,240.683)" pers-center="0,0" pers-size="0,0" pers-start="0,0" pers-end="0,0" locked="0" mesh="" flag=""/>
            <path id="shapePath1" d="M467.709,233.933 C466.842,246.638 461.706,257.282 452.358,265.915 C452.408,249.096 452.447,232.268 452.499,215.451 C459.226,220.24 464.113,226.562 467.709,233.933 Z" style="stroke:none;fill-rule:evenodd;fill:#ffffff;fill-opacity:1;"/>
        </g>
        <g id="Shape2">
            <desc shapeID="2" type="0" basicInfo-basicType="0" basicInfo-roundedRectRadius="12" basicInfo-polygonSides="6" basicInfo-starPoints="5" bounding="rect(-8.248,-27.1165,16.496,54.233)" text="" font-familyName="" font-pixelSize="20" font-bold="0" font-underline="0" font-alignment="1" strokeStyle="0" markerStart="0" markerEnd="0" shadowEnabled="0" shadowOffsetX="0" shadowOffsetY="2" shadowBlur="4" shadowOpacity="160" blurEnabled="0" blurRadius="4" transform="matrix(0.974333,0,0,0.974333,23.7502,173.554)" pers-center="0,0" pers-size="0,0" pers-start="0,0" pers-end="0,0" locked="0" mesh="" flag=""/>
            <path id="shapePath2" d="M15.7139,180.619 C16.6181,167.315 21.9993,156.169 31.7865,147.134 C31.7339,164.743 31.6949,182.364 31.6423,199.975 C24.5949,194.955 19.4807,188.336 15.7139,180.619 Z" style="stroke:none;fill-rule:evenodd;fill:#ffffff;fill-opacity:1;"/>
        </g>
        <g id="Shape3">
            <desc shapeID="3" type="0" basicInfo-basicType="0" basicInfo-roundedRectRadius="12" basicInfo-polygonSides="6" basicInfo-starPoints="5" bounding="rect(-9.862,-32.372,19.724,64.744)" text="" font-familyName="" font-pixelSize="20" font-bold="0" font-underline="0" font-alignment="1" strokeStyle="0" markerStart="0" markerEnd="0" shadowEnabled="0" shadowOffsetX="0" shadowOffsetY="2" shadowBlur="4" shadowOpacity="160" blurEnabled="0" blurRadius="4" transform="matrix(0.974333,0,0,0.974333,23.3955,306.024)" pers-center="0,0" pers-size="0,0" pers-start="0,0" pers-end="0,0" locked="0" mesh="" flag=""/>
            <path id="shapePath3" d="M13.7867,297.588 C14.8818,313.486 21.3153,326.779 33.0044,337.565 C32.9313,316.544 32.8602,295.496 32.7696,274.483 C24.3738,280.479 18.2559,288.371 13.7867,297.588 Z" style="stroke:none;fill-rule:evenodd;fill:#ffffff;fill-opacity:1;"/>
        </g>
        <g id="Shape4">
            <desc shapeID="4" type="0" basicInfo-basicType="0" basicInfo-roundedRectRadius="12" basicInfo-polygonSides="6" basicInfo-starPoints="5" bounding="rect(-108.885,-181.865,217.771,363.731)" text="" font-familyName="" font-pixelSize="20" font-bold="0" font-underline="0" font-alignment="1" strokeStyle="0" markerStart="0" markerEnd="0" shadowEnabled="0" shadowOffsetX="0" shadowOffsetY="2" shadowBlur="4" shadowOpacity="160" blurEnabled="0" blurRadius="4" transform="matrix(0.974333,0,0,0.974333,136.553,298.618)" pers-center="0,0" pers-size="0,0" pers-start="0,0" pers-end="0,0" locked="0" mesh="" flag=""/>
            <path id="shapePath4" d="M241.749,475.729 C233.727,476.301 226.348,473.995 219.494,470.071 C165.127,438.967 110.782,407.815 56.4703,376.613 C39.8316,367.045 31.3773,352.37 31.276,332.953 C30.9466,271.043 30.7342,209.134 30.4634,147.225 C30.4224,137.972 32.4179,129.296 37.3422,121.42 C38.0641,121.771 38.8056,122.083 39.5052,122.475 C91.7031,151.917 143.91,181.347 196.089,210.824 C211.02,219.255 225.875,227.826 240.762,236.339 C241.017,236.672 241.272,237.016 241.516,237.349 C241.571,238.662 241.673,239.976 241.678,241.291 C242.002,317.742 242.323,394.199 242.644,470.658 C242.649,471.968 242.558,473.277 242.52,474.596 C242.263,474.962 242.006,475.35 241.749,475.729 Z" style="stroke:#ffffff;stroke-opacity:1;stroke-width:4;stroke-linejoin:miter;stroke-miterlimit:2;stroke-linecap:butt;fill:none;"/>
        </g>
        <g id="Shape5">
            <desc shapeID="5" type="0" basicInfo-basicType="0" basicInfo-roundedRectRadius="12" basicInfo-polygonSides="6" basicInfo-starPoints="5" bounding="rect(-108.318,-182.376,216.635,364.752)" text="" font-familyName="" font-pixelSize="20" font-bold="0" font-underline="0" font-alignment="1" strokeStyle="0" markerStart="0" markerEnd="0" shadowEnabled="0" shadowOffsetX="0" shadowOffsetY="2" shadowBlur="4" shadowOpacity="160" blurEnabled="0" blurRadius="4" transform="matrix(0.974333,0,0,0.974333,347.312,298.584)" pers-center="0,0" pers-size="0,0" pers-start="0,0" pers-end="0,0" locked="0" mesh="" flag=""/>
            <path id="shapePath5" d="M241.779,475.041 C241.823,473.722 241.918,472.411 241.918,471.102 C241.92,394.643 241.92,318.187 241.918,241.734 C241.918,240.419 241.823,239.105 241.775,237.792 C241.92,237.512 241.987,237.213 241.972,236.898 C309.884,198.226 377.793,159.56 445.696,120.889 C450.769,128.704 452.744,137.478 452.76,146.652 C452.849,208.728 452.917,270.806 452.736,332.88 C452.681,352.023 444.171,366.698 427.764,376.214 C373.882,407.507 319.941,438.696 266.003,469.888 C258.582,474.178 250.698,476.87 241.988,476.168 C241.917,475.79 241.84,475.406 241.779,475.041 Z" style="stroke:#ffffff;stroke-opacity:1;stroke-width:4;stroke-linejoin:miter;stroke-miterlimit:2;stroke-linecap:butt;fill:none;"/>
        </g>
        <g id="Shape6">
            <desc shapeID="6" type="0" basicInfo-basicType="0" basicInfo-roundedRectRadius="12" basicInfo-polygonSides="6" basicInfo-starPoints="5" bounding="rect(-209.173,-120.03,418.345,240.06)" text="" font-familyName="" font-pixelSize="20" font-bold="0" font-underline="0" font-alignment="1" strokeStyle="0" markerStart="0" markerEnd="0" shadowEnabled="0" shadowOffsetX="0" shadowOffsetY="2" shadowBlur="4" shadowOpacity="160" blurEnabled="0" blurRadius="4" transform="matrix(0.974333,0,0,0.974333,241.891,119.949)" pers-center="0,0" pers-size="0,0" pers-start="0,0" pers-end="0,0" locked="0" mesh="" flag=""/>
            <path id="shapePath6" d="M445.695,120.889 C377.793,159.56 309.883,198.227 241.971,236.898 L241.506,236.768 L241.023,236.777 C226.17,228.203 211.351,219.569 196.457,211.075 C144.401,181.379 92.3218,151.73 40.2466,122.068 C39.549,121.673 38.8075,121.358 38.0875,121.005 C42.2255,113.259 48.4564,107.682 55.8778,103.382 C109.44,72.3605 163.029,41.3904 216.569,10.3335 C233.68,0.406021 250.641,0.650581 267.64,10.503 C320.183,40.949 372.725,71.4076 425.3,101.808 C433.575,106.593 440.976,112.225 445.695,120.889 Z" style="stroke:#ffffff;stroke-opacity:1;stroke-width:4;stroke-linejoin:miter;stroke-miterlimit:2;stroke-linecap:butt;fill:none;"/>
        </g>
        <g id="Shape7">
            <desc shapeID="7" type="0" basicInfo-basicType="0" basicInfo-roundedRectRadius="12" basicInfo-polygonSides="6" basicInfo-starPoints="5" bounding="rect(0,-122.427,0,244.854)" text="" font-familyName="" font-pixelSize="20" font-bold="0" font-underline="0" font-alignment="1" strokeStyle="0" markerStart="0" markerEnd="0" shadowEnabled="0" shadowOffsetX="0" shadowOffsetY="2" shadowBlur="4" shadowOpacity="160" blurEnabled="0" blurRadius="4" transform="matrix(0.974333,0,0,0.974333,241.774,356.73)" pers-center="0,0" pers-size="0,0" pers-start="0,0" pers-end="0,0" locked="0" mesh="" flag=""/>
            <path id="shapePath7" d="M241.774,237.446 L241.774,476.015 " style="stroke:#ffffff;stroke-opacity:1;stroke-width:4;stroke-linejoin:miter;stroke-miterlimit:2;stroke-linecap:butt;fill-rule:nonzero;fill:#cc9966;fill-opacity:1;"/>
        </g>
        <g id="Shape8">
            <desc shapeID="8" type="0" basicInfo-basicType="0" basicInfo-roundedRectRadius="12" basicInfo-polygonSides="6" basicInfo-starPoints="5" bounding="rect(-104.647,-59.991,209.295,119.982)" text="" font-familyName="" font-pixelSize="20" font-bold="0" font-underline="0" font-alignment="1" strokeStyle="0" markerStart="0" markerEnd="0" shadowEnabled="0" shadowOffsetX="0" shadowOffsetY="2" shadowBlur="4" shadowOpacity="160" blurEnabled="0" blurRadius="4" transform="matrix(0.974333,0,0,0.974333,343.335,178.995)" pers-center="0,0" pers-size="0,0" pers-start="0,0" pers-end="0,0" locked="0" mesh="" flag=""/>
            <path id="shapePath8" d="M241.373,237.446 L445.296,120.543 " style="stroke:#ffffff;stroke-opacity:1;stroke-width:4;stroke-linejoin:miter;stroke-miterlimit:2;stroke-linecap:butt;fill:none;"/>
        </g>
        <g id="Shape9">
            <desc shapeID="9" type="0" basicInfo-basicType="0" basicInfo-roundedRectRadius="12" basicInfo-polygonSides="6" basicInfo-starPoints="5" bounding="rect(-104.317,-59.7325,208.634,119.465)" text="" font-familyName="" font-pixelSize="20" font-bold="0" font-underline="0" font-alignment="1" strokeStyle="0" markerStart="0" markerEnd="0" shadowEnabled="0" shadowOffsetX="0" shadowOffsetY="2" shadowBlur="4" shadowOpacity="160" blurEnabled="0" blurRadius="4" transform="matrix(0.974333,0,0,0.974333,140.134,179.246)" pers-center="0,0" pers-size="0,0" pers-start="0,0" pers-end="0,0" locked="0" mesh="" flag=""/>
            <path id="shapePath9" d="M241.774,237.446 L38.4948,121.047 " style="stroke:#ffffff;stroke-opacity:1;stroke-width:4;stroke-linejoin:miter;stroke-miterlimit:2;stroke-linecap:butt;fill:none;"/>
        </g>
        <g id="Shape10">
            <desc shapeID="10" type="0" basicInfo-basicType="0" basicInfo-roundedRectRadius="12" basicInfo-polygonSides="6" basicInfo-starPoints="5" bounding="rect(-116.719,-50.1968,233.439,100.394)" text="" font-familyName="" font-pixelSize="20" font-bold="0" font-underline="0" font-alignment="1" strokeStyle="0" markerStart="0" markerEnd="0" shadowEnabled="0" shadowOffsetX="0" shadowOffsetY="2" shadowBlur="4" shadowOpacity="160" blurEnabled="0" blurRadius="4" transform="matrix(0.974333,0,0,0.974333,123.61,131.711)" pers-center="0,0" pers-size="0,0" pers-start="0,0" pers-end="0,0" locked="0" mesh="" flag=""/>
            <path id="shapePath10" d="M31.8713,101.652 C75.5019,65.6035 114.27,88.3308 153.403,111.242 C176.076,124.503 197.556,141.171 225.788,141.12 C229.632,141.109 233.478,140.388 237.334,139.99 C233.446,142.396 229.792,145.262 225.668,147.144 C195.444,160.917 166.959,154.378 138.428,140.68 C102.014,123.184 65.7293,118.657 31.7875,147.135 C22.0003,156.17 16.6191,167.316 15.7149,180.62 C9.33591,166.437 8.39471,151.839 11.9082,136.747 C15.1079,123.026 22.6044,111.857 31.8713,101.652 Z" style="stroke:none;fill-rule:evenodd;fill:#ffffff;fill-opacity:1;"/>
        </g>
        <g id="Shape11">
            <desc shapeID="11" type="0" basicInfo-basicType="0" basicInfo-roundedRectRadius="12" basicInfo-polygonSides="6" basicInfo-starPoints="5" bounding="rect(-139.358,-59.8922,278.715,119.784)" text="" font-familyName="" font-pixelSize="20" font-bold="0" font-underline="0" font-alignment="1" strokeStyle="0" markerStart="0" markerEnd="0" shadowEnabled="0" shadowOffsetX="0" shadowOffsetY="2" shadowBlur="4" shadowOpacity="160" blurEnabled="0" blurRadius="4" transform="matrix(0.974333,0,0,0.974333,142.781,355.944)" pers-center="0,0" pers-size="0,0" pers-start="0,0" pers-end="0,0" locked="0" mesh="" flag=""/>
            <path id="shapePath11" d="M33.2938,391.855 C85.4323,434.83 131.691,407.666 178.395,380.273 C205.453,364.4 231.095,344.483 264.77,344.509 C269.365,344.524 273.956,345.378 278.562,345.848 C273.909,342.986 269.542,339.577 264.627,337.339 C228.526,320.919 194.529,328.747 160.482,345.148 C117.025,366.063 73.7121,371.506 33.1457,337.566 C21.4566,326.78 15.0231,313.487 13.9279,297.589 C6.32814,314.527 5.22034,331.964 9.43433,349.968 C13.2751,366.341 22.239,379.672 33.2938,391.855 Z" style="stroke:none;fill-rule:evenodd;fill:#ffffff;fill-opacity:1;"/>
        </g>
        <g id="Shape12">
            <desc shapeID="12" type="0" basicInfo-basicType="0" basicInfo-roundedRectRadius="12" basicInfo-polygonSides="6" basicInfo-starPoints="5" bounding="rect(-111.465,-47.9396,222.93,95.8792)" text="" font-familyName="" font-pixelSize="20" font-bold="0" font-underline="0" font-alignment="1" strokeStyle="0" markerStart="0" markerEnd="0" shadowEnabled="0" shadowOffsetX="0" shadowOffsetY="2" shadowBlur="4" shadowOpacity="160" blurEnabled="0" blurRadius="4" transform="matrix(0.974333,0,0,0.974333,364.67,280.641)" pers-center="0,0" pers-size="0,0" pers-start="0,0" pers-end="0,0" locked="0" mesh="" flag=""/>
            <path id="shapePath12" d="M452.278,309.349 C410.61,343.775 373.587,322.074 336.208,300.19 C314.559,287.527 294.044,271.609 267.091,271.658 C263.414,271.668 259.741,272.358 256.066,272.734 C259.768,270.44 263.266,267.703 267.203,265.905 C296.064,252.752 323.269,258.995 350.517,272.075 C385.294,288.784 419.944,293.107 452.359,265.914 C461.707,257.281 466.843,246.637 467.71,233.932 C473.798,247.479 474.7,261.419 471.343,275.831 C468.287,288.933 461.126,299.599 452.278,309.349 Z" style="stroke:none;fill-rule:evenodd;fill:#ffffff;fill-opacity:1;"/>
        </g>
        <g id="Shape13">
            <desc shapeID="13" type="0" basicInfo-basicType="0" basicInfo-roundedRectRadius="12" basicInfo-polygonSides="6" basicInfo-starPoints="5" bounding="rect(-17.7181,-35.368,35.4362,70.736)" text="" font-familyName="" font-pixelSize="20" font-bold="0" font-underline="0" font-alignment="1" strokeStyle="0" markerStart="0" markerEnd="0" shadowEnabled="0" shadowOffsetX="0" shadowOffsetY="2" shadowBlur="4" shadowOpacity="160" blurEnabled="0" blurRadius="4" transform="matrix(0.94984,0,0,0.94984,447.867,240.479)" pers-center="0,0" pers-size="0,0" pers-start="0,0" pers-end="0,0" locked="0" mesh="" flag=""/>
            <path id="shapePath13" d="M440.534,274.073 C439.242,274.073 437.942,273.81 436.713,273.269 C433.253,271.749 431.026,268.322 431.037,264.545 C431.066,255.469 431.09,246.391 431.114,237.313 L431.173,216.355 C431.184,212.805 433.172,209.558 436.329,207.935 C437.698,207.232 439.188,206.885 440.671,206.885 C442.609,206.885 444.537,207.478 446.177,208.643 C453.492,213.846 459.4,220.987 463.734,229.869 C464.463,231.362 464.787,233.022 464.674,234.679 C463.685,249.226 457.731,261.633 446.977,271.557 C445.187,273.207 442.875,274.073 440.534,274.073 Z" style="stroke:none;fill-rule:nonzero;fill:#99ccff;fill-opacity:1;"/>
        </g>
        <g id="Shape14">
            <desc shapeID="14" type="0" basicInfo-basicType="0" basicInfo-roundedRectRadius="12" basicInfo-polygonSides="6" basicInfo-starPoints="5" bounding="rect(-18.0811,-36.5665,36.1622,73.133)" text="" font-familyName="" font-pixelSize="20" font-bold="0" font-underline="0" font-alignment="1" strokeStyle="0" markerStart="0" markerEnd="0" shadowEnabled="0" shadowOffsetX="0" shadowOffsetY="2" shadowBlur="4" shadowOpacity="160" blurEnabled="0" blurRadius="4" transform="matrix(0.94984,0,0,0.94984,32.3325,176.134)" pers-center="0,0" pers-size="0,0" pers-start="0,0" pers-end="0,0" locked="0" mesh="" flag=""/>
            <path id="shapePath14" d="M39.8723,210.867 C37.9309,210.867 35.9998,210.273 34.3595,209.104 C26.7569,203.687 20.621,196.266 16.1206,187.046 C15.3921,185.553 15.0673,183.894 15.1803,182.236 C16.2071,167.121 22.3934,154.23 33.5673,143.919 C35.3568,142.268 37.6678,141.402 40.0101,141.402 C41.3018,141.402 42.6022,141.665 43.8313,142.206 C47.2896,143.726 49.518,147.151 49.5066,150.929 C49.5066,150.929 49.3954,192.496 49.3688,201.399 C49.3584,204.949 47.3675,208.198 44.2084,209.82 C42.8425,210.52 41.355,210.867 39.8723,210.867 Z" style="stroke:none;fill-rule:nonzero;fill:#99ccff;fill-opacity:1;"/>
        </g>
        <g id="Shape15">
            <desc shapeID="15" type="0" basicInfo-basicType="0" basicInfo-roundedRectRadius="12" basicInfo-polygonSides="6" basicInfo-starPoints="5" bounding="rect(-19.6619,-41.7165,39.3237,83.433)" text="" font-familyName="" font-pixelSize="20" font-bold="0" font-underline="0" font-alignment="1" strokeStyle="0" markerStart="0" markerEnd="0" shadowEnabled="0" shadowOffsetX="0" shadowOffsetY="2" shadowBlur="4" shadowOpacity="160" blurEnabled="0" blurRadius="4" transform="matrix(0.94984,0,0,0.94984,33.7594,302.889)" pers-center="0,0" pers-size="0,0" pers-start="0,0" pers-end="0,0" locked="0" mesh="" flag=""/>
            <path id="shapePath15" d="M42.9384,342.513 C40.5952,342.513 38.2842,341.646 36.4947,339.995 C23.5095,328.01 16.3125,313.034 15.1062,295.484 C14.9923,293.832 15.3133,292.18 16.0352,290.689 C21.2213,279.989 28.3394,271.357 37.1891,265.034 C38.8313,263.861 40.7671,263.265 42.7114,263.265 C44.1894,263.265 45.673,263.609 47.0379,264.308 C50.199,265.925 52.1937,269.171 52.2089,272.721 C52.282,289.277 52.34,305.858 52.3979,322.425 L52.4349,332.981 C52.4482,336.76 50.2199,340.186 46.7615,341.708 C45.5324,342.249 44.2312,342.513 42.9384,342.513 Z" style="stroke:none;fill-rule:nonzero;fill:#99ccff;fill-opacity:1;"/>
        </g>
        <g id="Shape16">
            <desc shapeID="16" type="0" basicInfo-basicType="0" basicInfo-roundedRectRadius="12" basicInfo-polygonSides="6" basicInfo-starPoints="5" bounding="rect(-10.5076,-10.568,21.0153,21.136)" text="" font-familyName="" font-pixelSize="20" font-bold="0" font-underline="0" font-alignment="1" strokeStyle="0" markerStart="0" markerEnd="0" shadowEnabled="0" shadowOffsetX="0" shadowOffsetY="2" shadowBlur="4" shadowOpacity="160" blurEnabled="0" blurRadius="4" transform="matrix(0.94984,0,0,0.94984,428.894,204.957)" pers-center="0,0" pers-size="0,0" pers-start="0,0" pers-end="0,0" locked="0" mesh="" flag=""/>
            <path id="shapePath16" d="M428.626,214.995 C428.004,214.995 427.378,214.934 426.752,214.808 C423.029,214.059 420.11,211.165 419.33,207.448 C419.238,207.017 419.154,206.587 419.073,206.154 C418.561,203.395 419.294,200.551 421.077,198.385 C422.86,196.218 425.51,194.951 428.315,194.923 C428.667,194.919 429.018,194.919 429.376,194.919 C432.948,194.919 436.219,196.923 437.84,200.107 C439.461,203.291 439.159,207.115 437.058,210.003 C436.904,210.214 436.759,210.429 436.613,210.641 L436.441,210.889 C434.649,213.491 431.708,214.995 428.626,214.995 Z" style="stroke:none;fill-rule:nonzero;fill:#99ccff;fill-opacity:1;"/>
        </g>
        <g id="Shape17">
            <desc shapeID="17" type="0" basicInfo-basicType="0" basicInfo-roundedRectRadius="12" basicInfo-polygonSides="6" basicInfo-starPoints="5" bounding="rect(-115.998,-188.608,231.995,377.216)" text="" font-familyName="" font-pixelSize="20" font-bold="0" font-underline="0" font-alignment="1" strokeStyle="0" markerStart="0" markerEnd="0" shadowEnabled="0" shadowOffsetX="0" shadowOffsetY="2" shadowBlur="4" shadowOpacity="160" blurEnabled="0" blurRadius="4" transform="matrix(0.94984,0,0,0.94984,138.865,295.82)" pers-center="0,0" pers-size="0,0" pers-start="0,0" pers-end="0,0" locked="0" mesh="" flag=""/>
            <path id="shapePath17" d="M236.483,474.968 C228.539,474.968 220.531,472.664 212.681,468.122 C159.199,437.226 106.933,406.97 57.3418,378.199 C38.6404,367.346 28.744,350.055 28.7213,328.196 C28.6785,288.698 28.6842,248.545 28.6899,209.713 C28.6928,190.074 28.6956,170.435 28.6928,150.797 C28.689,139.656 31.4264,129.665 36.831,121.103 C38.6252,118.261 41.7008,116.673 44.8695,116.673 C46.2914,116.673 47.7304,116.992 49.082,117.663 C49.2615,117.752 49.443,117.836 49.6244,117.922 C50.1705,118.179 50.8506,118.499 51.5915,118.917 L85.2339,138.079 C123.772,160.028 162.308,181.976 200.83,203.952 C210.766,209.616 220.821,215.437 230.544,221.068 C234.841,223.556 239.139,226.044 243.438,228.526 C244.551,229.168 245.521,230.03 246.292,231.058 C246.553,231.408 246.817,231.767 247.071,232.116 C248.182,233.636 248.816,235.452 248.892,237.334 L248.941,238.365 C248.987,239.303 249.039,240.366 249.039,241.484 C249.046,314.507 249.046,387.532 249.039,460.561 C249.039,461.617 248.992,462.622 248.95,463.509 C248.932,463.89 248.914,464.273 248.901,464.656 C248.835,466.521 248.222,468.325 247.138,469.842 C247.017,470.012 246.899,470.186 246.782,470.361 L246.494,470.782 C244.85,473.173 242.202,474.68 239.306,474.876 C238.37,474.936 237.419,474.968 236.483,474.968 Z" style="stroke:none;fill-rule:nonzero;fill:#99ccff;fill-opacity:1;"/>
        </g>
        <g id="Shape18">
            <desc shapeID="18" type="0" basicInfo-basicType="0" basicInfo-roundedRectRadius="12" basicInfo-polygonSides="6" basicInfo-starPoints="5" bounding="rect(-116.125,-188.68,232.249,377.361)" text="" font-familyName="" font-pixelSize="20" font-bold="0" font-underline="0" font-alignment="1" strokeStyle="0" markerStart="0" markerEnd="0" shadowEnabled="0" shadowOffsetX="0" shadowOffsetY="2" shadowBlur="4" shadowOpacity="160" blurEnabled="0" blurRadius="4" transform="matrix(0.94984,0,0,0.94984,340.204,295.784)" pers-center="0,0" pers-size="0,0" pers-start="0,0" pers-end="0,0" locked="0" mesh="" flag=""/>
            <path id="shapePath18" d="M242.242,475 C241.116,475 239.974,474.954 238.849,474.863 C234.597,474.52 231.096,471.386 230.287,467.199 C230.209,466.798 230.132,466.39 230.062,465.999 C229.942,465.334 229.893,464.659 229.918,463.984 C229.934,463.526 229.955,463.069 229.977,462.615 C230.009,461.927 230.045,461.243 230.045,460.558 C230.051,387.53 230.051,314.507 230.045,241.483 C230.045,240.833 230.007,240.088 229.969,239.301 C229.949,238.902 229.929,238.503 229.913,238.104 C229.873,237.13 229.984,236.158 230.237,235.225 C230.721,232.476 232.401,230.033 234.893,228.615 L429.474,117.814 C430.955,116.97 432.57,116.568 434.166,116.568 C437.284,116.568 440.329,118.104 442.141,120.896 C447.615,129.33 450.4,139.342 450.421,150.653 C450.509,216.623 450.562,271.608 450.396,328.569 C450.336,350.194 440.451,367.339 421.811,378.151 C369.704,408.406 317.643,438.508 267.297,467.62 C258.717,472.585 250.52,475 242.242,475 Z" style="stroke:none;fill-rule:nonzero;fill:#99ccff;fill-opacity:1;"/>
        </g>
        <g id="Shape19">
            <desc shapeID="19" type="0" basicInfo-basicType="0" basicInfo-roundedRectRadius="12" basicInfo-polygonSides="6" basicInfo-starPoints="5" bounding="rect(-214.936,-127.599,429.872,255.198)" text="" font-familyName="" font-pixelSize="20" font-bold="0" font-underline="0" font-alignment="1" strokeStyle="0" markerStart="0" markerEnd="0" shadowEnabled="0" shadowOffsetX="0" shadowOffsetY="2" shadowBlur="4" shadowOpacity="160" blurEnabled="0" blurRadius="4" transform="matrix(0.94984,0,0,0.94984,239.52,125.167)" pers-center="0,0" pers-size="0,0" pers-start="0,0" pers-end="0,0" locked="0" mesh="" flag=""/>
            <path id="shapePath19" d="M239.593,246.366 C239.035,246.366 238.475,246.317 237.92,246.218 C236.522,246.104 235.162,245.682 233.942,244.976 C229.636,242.491 225.333,239.999 221.03,237.508 C211.332,231.893 201.303,226.087 191.42,220.452 C152.902,198.48 114.373,176.536 75.8418,154.591 L42.2242,135.443 C42.0247,135.33 41.7758,135.223 41.5317,135.107 C41.2354,134.969 40.939,134.828 40.6455,134.683 C38.3431,133.541 36.6021,131.517 35.8175,129.069 C35.0339,126.623 35.2751,123.962 36.4862,121.696 C40.9799,113.286 47.7209,106.557 57.092,101.124 C75.9872,90.181 94.8833,79.2445 113.78,68.309 C146.048,49.6352 178.316,30.9613 210.564,12.2552 C220.044,6.75654 229.782,3.96877 239.509,3.96877 C249.325,3.96877 259.206,6.81068 268.875,12.4147 L291.293,25.4057 C333.291,49.7434 376.719,74.9104 419.451,99.6176 C427.019,103.994 436.483,110.438 442.517,121.523 C444.991,126.068 443.373,131.757 438.875,134.318 L244.294,245.122 C242.848,245.945 241.227,246.366 239.593,246.366 Z" style="stroke:none;fill-rule:nonzero;fill:#99ccff;fill-opacity:1;"/>
        </g>
        <g id="Shape20">
            <desc shapeID="20" type="0" basicInfo-basicType="0" basicInfo-roundedRectRadius="12" basicInfo-polygonSides="6" basicInfo-starPoints="5" bounding="rect(-10,-129.947,20,259.894)" text="" font-familyName="" font-pixelSize="20" font-bold="0" font-underline="0" font-alignment="1" strokeStyle="0" markerStart="0" markerEnd="0" shadowEnabled="0" shadowOffsetX="0" shadowOffsetY="2" shadowBlur="4" shadowOpacity="160" blurEnabled="0" blurRadius="4" transform="matrix(0.94984,0,0,0.94984,239.404,351.32)" pers-center="0,0" pers-size="0,0" pers-start="0,0" pers-end="0,0" locked="0" mesh="" flag=""/>
            <path id="shapePath20" d="M239.404,474.749 C234.158,474.749 229.906,470.496 229.906,465.251 L229.906,237.39 C229.906,232.144 234.158,227.892 239.404,227.892 C244.65,227.892 248.903,232.144 248.903,237.39 L248.903,465.252 C248.903,470.497 244.649,474.749 239.404,474.749 Z" style="stroke:none;fill-rule:nonzero;fill:#99ccff;fill-opacity:1;"/>
        </g>
        <g id="Shape21">
            <desc shapeID="21" type="0" basicInfo-basicType="0" basicInfo-roundedRectRadius="12" basicInfo-polygonSides="6" basicInfo-starPoints="5" bounding="rect(-112.528,-68.7781,225.056,137.556)" text="" font-familyName="" font-pixelSize="20" font-bold="0" font-underline="0" font-alignment="1" strokeStyle="0" markerStart="0" markerEnd="0" shadowEnabled="0" shadowOffsetX="0" shadowOffsetY="2" shadowBlur="4" shadowOpacity="160" blurEnabled="0" blurRadius="4" transform="matrix(0.94984,0,0,0.94984,336.407,181.561)" pers-center="0,0" pers-size="0,0" pers-start="0,0" pers-end="0,0" locked="0" mesh="" flag=""/>
            <path id="shapePath21" d="M239.033,246.889 C235.74,246.889 232.539,245.175 230.784,242.114 C228.174,237.562 229.749,231.758 234.3,229.149 L429.067,117.493 C433.62,114.883 439.423,116.458 442.032,121.009 C444.64,125.561 443.066,131.364 438.515,133.973 L243.749,245.63 C242.259,246.484 240.635,246.889 239.033,246.889 Z" style="stroke:none;fill-rule:nonzero;fill:#99ccff;fill-opacity:1;"/>
        </g>
        <g id="Shape22">
            <desc shapeID="22" type="0" basicInfo-basicType="0" basicInfo-roundedRectRadius="12" basicInfo-polygonSides="6" basicInfo-starPoints="5" bounding="rect(-112.204,-68.5237,224.408,137.047)" text="" font-familyName="" font-pixelSize="20" font-bold="0" font-underline="0" font-alignment="1" strokeStyle="0" markerStart="0" markerEnd="0" shadowEnabled="0" shadowOffsetX="0" shadowOffsetY="2" shadowBlur="4" shadowOpacity="160" blurEnabled="0" blurRadius="4" transform="matrix(0.94984,0,0,0.94984,142.327,181.804)" pers-center="0,0" pers-size="0,0" pers-start="0,0" pers-end="0,0" locked="0" mesh="" flag=""/>
            <path id="shapePath22" d="M239.395,246.89 C237.794,246.89 236.172,246.485 234.684,245.633 L40.5315,134.46 C35.9799,131.852 34.4022,126.05 37.0086,121.497 C39.6149,116.946 45.4175,115.368 49.971,117.974 L244.123,229.147 C248.675,231.755 250.252,237.557 247.646,242.11 C245.893,245.174 242.69,246.89 239.395,246.89 Z" style="stroke:none;fill-rule:nonzero;fill:#99ccff;fill-opacity:1;"/>
        </g>
        <g id="Shape23">
            <desc shapeID="23" type="0" basicInfo-basicType="0" basicInfo-roundedRectRadius="12" basicInfo-polygonSides="6" basicInfo-starPoints="5" bounding="rect(-124.348,-59.179,248.696,118.358)" text="" font-familyName="" font-pixelSize="20" font-bold="0" font-underline="0" font-alignment="1" strokeStyle="0" markerStart="0" markerEnd="0" shadowEnabled="0" shadowOffsetX="0" shadowOffsetY="2" shadowBlur="4" shadowOpacity="160" blurEnabled="0" blurRadius="4" transform="matrix(0.94984,0,0,0.94984,127.718,136.167)" pers-center="0,0" pers-size="0,0" pers-start="0,0" pers-end="0,0" locked="0" mesh="" flag=""/>
            <path id="shapePath23" d="M24.6531,192.378 C20.9686,192.378 17.5473,190.229 15.9943,186.775 C9.2666,171.815 7.84564,155.683 11.7694,138.825 C14.8336,125.69 21.5974,113.695 33.0563,101.073 C33.3612,100.737 33.6898,100.423 34.0394,100.135 C50.4735,86.5573 67.3389,79.9569 85.6005,79.9569 C112.348,79.9569 137.034,94.4106 160.909,108.388 C164.637,110.569 168.297,112.82 171.837,114.997 C189.107,125.62 205.42,135.654 225.171,135.654 L225.282,135.654 C227.213,135.649 229.389,135.367 231.693,135.068 C232.909,134.911 234.127,134.754 235.346,134.628 C235.677,134.594 236.007,134.576 236.334,134.576 C240.356,134.576 243.993,137.13 245.317,141.004 C246.748,145.194 245.096,149.817 241.332,152.149 C240.288,152.796 239.224,153.51 238.097,154.264 C235.48,156.017 232.513,158.004 229.135,159.548 C217.276,164.951 204.871,167.69 192.259,167.691 C175.525,167.692 158.204,163.118 137.751,153.299 C120.308,144.918 105.059,140.844 91.1304,140.844 C74.8112,140.844 60.141,146.467 46.2904,158.031 C38.8028,165.006 34.8258,173.347 34.1344,183.525 C33.839,187.872 30.6228,191.461 26.3343,192.231 C25.771,192.33 25.2087,192.378 24.6531,192.378 Z" style="stroke:none;fill-rule:nonzero;fill:#99ccff;fill-opacity:1;"/>
        </g>
        <g id="Shape24">
            <desc shapeID="24" type="0" basicInfo-basicType="0" basicInfo-roundedRectRadius="12" basicInfo-polygonSides="6" basicInfo-starPoints="5" bounding="rect(-146.526,-68.68,293.052,137.36)" text="" font-familyName="" font-pixelSize="20" font-bold="0" font-underline="0" font-alignment="1" strokeStyle="0" markerStart="0" markerEnd="0" shadowEnabled="0" shadowOffsetX="0" shadowOffsetY="2" shadowBlur="4" shadowOpacity="160" blurEnabled="0" blurRadius="4" transform="matrix(0.94984,0,0,0.94984,147.66,350.567)" pers-center="0,0" pers-size="0,0" pers-start="0,0" pers-end="0,0" locked="0" mesh="" flag=""/>
            <path id="shapePath24" d="M97.369,415.802 C76.0384,415.8 56.3036,408.079 37.0342,392.197 C36.6809,391.905 36.3484,391.588 36.0407,391.249 C22.5824,376.414 14.6389,362.362 11.0428,347.026 C6.42467,327.307 8.06409,308.439 15.9155,290.943 C17.4666,287.485 20.8907,285.332 24.5771,285.332 C25.1308,285.332 25.6893,285.381 26.2497,285.48 C30.5392,286.246 33.7582,289.832 34.0574,294.179 C34.9275,306.832 39.8847,317.203 49.2121,325.879 C66.1012,339.952 83.9943,346.793 103.909,346.793 C120.844,346.792 139.335,341.854 160.436,331.697 C184.606,320.053 205.051,314.629 224.776,314.629 C239.537,314.629 254.066,317.834 267.958,324.153 C271.831,325.914 275.142,328.122 278.345,330.257 C279.721,331.175 281.021,332.042 282.314,332.836 C286.087,335.158 287.755,339.778 286.333,343.973 C285.016,347.86 281.374,350.426 277.342,350.426 C277.022,350.426 276.699,350.409 276.374,350.376 C274.896,350.226 273.42,350.038 271.945,349.848 C269.16,349.49 266.531,349.153 264.119,349.142 C239.963,349.142 220.241,361.305 199.362,374.181 C195.164,376.77 190.824,379.447 186.473,381.998 C158.098,398.64 128.833,415.801 97.3756,415.801 C97.3728,415.802 97.3728,415.802 97.369,415.802 Z" style="stroke:none;fill-rule:nonzero;fill:#99ccff;fill-opacity:1;"/>
        </g>
        <g id="Shape25">
            <desc shapeID="25" type="0" basicInfo-basicType="0" basicInfo-roundedRectRadius="12" basicInfo-polygonSides="6" basicInfo-starPoints="5" bounding="rect(-119.201,-56.968,238.402,113.936)" text="" font-familyName="" font-pixelSize="20" font-bold="0" font-underline="0" font-alignment="1" strokeStyle="0" markerStart="0" markerEnd="0" shadowEnabled="0" shadowOffsetX="0" shadowOffsetY="2" shadowBlur="4" shadowOpacity="160" blurEnabled="0" blurRadius="4" transform="matrix(0.94984,0,0,0.94984,356.778,278.645)" pers-center="0,0" pers-size="0,0" pers-start="0,0" pers-end="0,0" locked="0" mesh="" flag=""/>
            <path id="shapePath25" d="M396.996,332.756 C371.338,332.756 347.712,318.924 324.864,305.548 C321.292,303.459 317.795,301.308 314.413,299.227 C297.971,289.113 282.442,279.558 263.707,279.558 L263.602,279.558 C261.804,279.563 259.754,279.83 257.583,280.112 C256.401,280.266 255.217,280.419 254.034,280.541 C253.704,280.575 253.376,280.593 253.051,280.593 C249.029,280.593 245.393,278.039 244.068,274.167 C242.637,269.98 244.285,265.36 248.045,263.025 C249.026,262.415 250.03,261.743 251.093,261.031 C253.619,259.338 256.481,257.42 259.753,255.927 C271.129,250.743 283.032,248.116 295.135,248.116 C311.184,248.116 327.784,252.496 347.378,261.903 C363.98,269.878 378.482,273.756 391.719,273.756 C407.195,273.756 421.112,268.419 434.254,257.447 C441.318,250.864 445.069,242.993 445.722,233.39 C446.017,229.043 449.231,225.454 453.521,224.685 C454.083,224.584 454.647,224.535 455.202,224.535 C458.886,224.535 462.306,226.684 463.86,230.136 C470.326,244.505 471.693,260.004 467.922,276.202 C464.979,288.817 458.488,300.333 447.493,312.449 C447.188,312.785 446.86,313.1 446.509,313.389 C430.734,326.42 414.538,332.756 396.996,332.756 Z" style="stroke:none;fill-rule:nonzero;fill:#99ccff;fill-opacity:1;"/>
        </g>
        <g id="Shape26">
            <desc shapeID="26" type="0" basicInfo-basicType="0" basicInfo-roundedRectRadius="12" basicInfo-polygonSides="6" basicInfo-starPoints="5" bounding="rect(-7.71851,-25.3685,15.437,50.737)" text="" font-familyName="" font-pixelSize="20" font-bold="0" font-underline="0" font-alignment="1" strokeStyle="0" markerStart="0" markerEnd="0" shadowEnabled="0" shadowOffsetX="0" shadowOffsetY="2" shadowBlur="4" shadowOpacity="160" blurEnabled="0" blurRadius="4" transform="matrix(0.94984,0,0,0.94984,447.866,240.478)" pers-center="0,0" pers-size="0,0" pers-start="0,0" pers-end="0,0" locked="0" mesh="" flag=""/>
            <path id="shapePath26" d="M455.197,234.033 C454.373,246.165 449.466,256.334 440.535,264.574 C440.585,248.513 440.623,232.443 440.671,216.382 C447.099,220.953 451.763,226.996 455.197,234.033 Z" style="stroke:none;fill-rule:evenodd;fill:#0256d1;fill-opacity:1;"/>
        </g>
        <g id="Shape27">
            <desc shapeID="27" type="0" basicInfo-basicType="0" basicInfo-roundedRectRadius="12" basicInfo-polygonSides="6" basicInfo-starPoints="5" bounding="rect(-8.0815,-26.567,16.163,53.134)" text="" font-familyName="" font-pixelSize="20" font-bold="0" font-underline="0" font-alignment="1" strokeStyle="0" markerStart="0" markerEnd="0" shadowEnabled="0" shadowOffsetX="0" shadowOffsetY="2" shadowBlur="4" shadowOpacity="160" blurEnabled="0" blurRadius="4" transform="matrix(0.94984,0,0,0.94984,32.334,176.135)" pers-center="0,0" pers-size="0,0" pers-start="0,0" pers-end="0,0" locked="0" mesh="" flag=""/>
            <path id="shapePath27" d="M24.6578,182.88 C25.5212,170.174 30.6608,159.527 40.0101,150.9 C39.9607,167.718 39.9227,184.549 39.8724,201.369 C33.1389,196.572 28.2558,190.251 24.6578,182.88 Z" style="stroke:none;fill-rule:evenodd;fill:#0256d1;fill-opacity:1;"/>
        </g>
        <g id="Shape28">
            <desc shapeID="28" type="0" basicInfo-basicType="0" basicInfo-roundedRectRadius="12" basicInfo-polygonSides="6" basicInfo-starPoints="5" bounding="rect(-9.662,-31.717,19.324,63.434)" text="" font-familyName="" font-pixelSize="20" font-bold="0" font-underline="0" font-alignment="1" strokeStyle="0" markerStart="0" markerEnd="0" shadowEnabled="0" shadowOffsetX="0" shadowOffsetY="2" shadowBlur="4" shadowOpacity="160" blurEnabled="0" blurRadius="4" transform="matrix(0.94984,0,0,0.94984,33.7601,302.887)" pers-center="0,0" pers-size="0,0" pers-start="0,0" pers-end="0,0" locked="0" mesh="" flag=""/>
            <path id="shapePath28" d="M24.5828,294.832 C25.6267,310.016 31.7731,322.709 42.9375,333.013 C42.8663,312.938 42.7998,292.831 42.7114,272.761 C34.6929,278.491 28.8495,286.028 24.5828,294.832 Z" style="stroke:none;fill-rule:evenodd;fill:#0256d1;fill-opacity:1;"/>
        </g>
        <g id="Shape29">
            <desc shapeID="29" type="0" basicInfo-basicType="0" basicInfo-roundedRectRadius="12" basicInfo-polygonSides="6" basicInfo-starPoints="5" bounding="rect(-0.508026,-0.567505,1.01602,1.13499)" text="" font-familyName="" font-pixelSize="20" font-bold="0" font-underline="0" font-alignment="1" strokeStyle="0" markerStart="0" markerEnd="0" shadowEnabled="0" shadowOffsetX="0" shadowOffsetY="2" shadowBlur="4" shadowOpacity="160" blurEnabled="0" blurRadius="4" transform="matrix(0.94984,0,0,0.94984,428.894,204.957)" pers-center="0,0" pers-size="0,0" pers-start="0,0" pers-end="0,0" locked="0" mesh="" flag=""/>
            <path id="shapePath29" d="M428.625,205.496 C428.55,205.139 428.479,204.781 428.412,204.421 C428.732,204.418 429.051,204.418 429.377,204.418 C429.118,204.774 428.872,205.138 428.625,205.496 Z" style="stroke:none;fill-rule:evenodd;fill:#683dfe;fill-opacity:1;"/>
        </g>
        <g id="Shape30">
            <desc shapeID="30" type="0" basicInfo-basicType="0" basicInfo-roundedRectRadius="12" basicInfo-polygonSides="6" basicInfo-starPoints="5" bounding="rect(-105.998,-178.607,211.995,357.214)" text="" font-familyName="" font-pixelSize="20" font-bold="0" font-underline="0" font-alignment="1" strokeStyle="0" markerStart="0" markerEnd="0" shadowEnabled="0" shadowOffsetX="0" shadowOffsetY="2" shadowBlur="4" shadowOpacity="160" blurEnabled="0" blurRadius="4" transform="matrix(0.94984,0,0,0.94984,138.866,295.822)" pers-center="0,0" pers-size="0,0" pers-start="0,0" pers-end="0,0" locked="0" mesh="" flag=""/>
            <path id="shapePath30" d="M238.67,465.396 C231.005,465.912 223.97,463.681 217.438,459.901 C165.637,429.976 113.858,400.006 62.109,369.984 C46.2534,360.782 38.2396,346.73 38.2206,328.187 C38.156,269.054 38.2016,209.924 38.1921,150.797 C38.1892,141.959 40.1279,133.679 44.8647,126.174 C45.5533,126.515 46.26,126.815 46.9268,127.192 C96.6652,155.524 146.406,183.841 196.125,212.202 C210.352,220.313 224.507,228.564 238.69,236.752 C238.929,237.071 239.171,237.4 239.403,237.719 C239.455,238.973 239.542,240.228 239.542,241.483 C239.549,314.508 239.549,387.531 239.542,460.559 C239.542,461.811 239.454,463.059 239.409,464.32 C239.16,464.67 238.918,465.036 238.67,465.396 Z" style="stroke:none;fill-rule:evenodd;fill:url(#linearGradientFill30);fill-opacity:1;"/><defs><linearGradient id="linearGradientFill30" gradientUnits="userSpaceOnUse" x1="138.866" y1="126.173" x2="138.866" y2="465.47"><stop offset="0" stop-color="#00223d" stop-opacity="1"/><stop offset="0.1241" stop-color="#002542" stop-opacity="1"/><stop offset="0.5866" stop-color="#002d4f" stop-opacity="1"/><stop offset="1" stop-color="#003054" stop-opacity="1"/><stop offset="1" stop-color="#005699" stop-opacity="1"/></linearGradient></defs>
        </g>
        <g id="Shape31">
            <desc shapeID="31" type="0" basicInfo-basicType="0" basicInfo-roundedRectRadius="12" basicInfo-polygonSides="6" basicInfo-starPoints="5" bounding="rect(-106.124,-178.681,212.248,357.362)" text="" font-familyName="" font-pixelSize="20" font-bold="0" font-underline="0" font-alignment="1" strokeStyle="0" markerStart="0" markerEnd="0" shadowEnabled="0" shadowOffsetX="0" shadowOffsetY="2" shadowBlur="4" shadowOpacity="160" blurEnabled="0" blurRadius="4" transform="matrix(0.94984,0,0,0.94984,340.205,295.783)" pers-center="0,0" pers-size="0,0" pers-start="0,0" pers-end="0,0" locked="0" mesh="" flag=""/>
            <path id="shapePath31" d="M239.41,464.319 C239.455,463.058 239.543,461.81 239.543,460.558 C239.55,387.53 239.55,314.507 239.543,241.482 C239.543,240.227 239.455,238.972 239.404,237.718 C239.55,237.45 239.613,237.164 239.594,236.868 C304.456,199.93 369.319,162.999 434.175,126.065 C439.019,133.529 440.908,141.908 440.923,150.669 C441.002,209.963 441.071,269.251 440.898,328.539 C440.847,346.823 432.72,360.841 417.047,369.932 C365.583,399.813 314.062,429.605 262.544,459.395 C255.457,463.497 247.929,466.066 239.612,465.395 C239.543,465.036 239.474,464.67 239.41,464.319 Z" style="stroke:none;fill-rule:evenodd;fill:url(#linearGradientFill31);fill-opacity:1;"/><defs><linearGradient id="linearGradientFill31" gradientUnits="userSpaceOnUse" x1="287.104" y1="209.438" x2="389.198" y2="386.271"><stop offset="0" stop-color="#003366" stop-opacity="1"/><stop offset="0.4667" stop-color="#003468" stop-opacity="1"/><stop offset="0.6674" stop-color="#00396f" stop-opacity="1"/><stop offset="0.8171" stop-color="#00427c" stop-opacity="1"/><stop offset="0.9406" stop-color="#004e8d" stop-opacity="1"/><stop offset="1" stop-color="#005699" stop-opacity="1"/></linearGradient></defs>
        </g>
        <g id="Shape32">
            <desc shapeID="32" type="0" basicInfo-basicType="0" basicInfo-roundedRectRadius="12" basicInfo-polygonSides="6" basicInfo-starPoints="5" bounding="rect(-204.934,-117.598,409.868,235.197)" text="" font-familyName="" font-pixelSize="20" font-bold="0" font-underline="0" font-alignment="1" strokeStyle="0" markerStart="0" markerEnd="0" shadowEnabled="0" shadowOffsetX="0" shadowOffsetY="2" shadowBlur="4" shadowOpacity="160" blurEnabled="0" blurRadius="4" transform="matrix(0.94984,0,0,0.94984,239.52,125.169)" pers-center="0,0" pers-size="0,0" pers-start="0,0" pers-end="0,0" locked="0" mesh="" flag=""/>
            <path id="shapePath32" d="M434.175,126.066 C369.319,163 304.456,199.931 239.594,236.869 L239.151,236.742 L238.691,236.752 C224.508,228.564 210.352,220.313 196.126,212.202 C146.407,183.841 96.6661,155.523 46.9277,127.191 C46.261,126.815 45.5543,126.515 44.8657,126.174 C48.8189,118.777 54.7706,113.452 61.8573,109.344 C113.013,79.7156 164.198,50.1348 215.332,20.4732 C231.679,10.9919 247.881,11.2255 264.113,20.6346 C314.298,49.7149 364.485,78.8095 414.697,107.842 C422.6,112.411 429.669,117.789 434.175,126.066 Z" style="stroke:none;fill-rule:evenodd;fill:url(#linearGradientFill32);fill-opacity:1;"/><defs><linearGradient id="linearGradientFill32" gradientUnits="userSpaceOnUse" x1="239.519" y1="13.4682" x2="239.519" y2="236.868"><stop offset="0" stop-color="#003366" stop-opacity="1"/><stop offset="0.3992" stop-color="#004580" stop-opacity="1"/><stop offset="0.644" stop-color="#004d8c" stop-opacity="1"/><stop offset="1" stop-color="#005699" stop-opacity="1"/></linearGradient></defs>
        </g>
        <g id="Shape33">
            <desc shapeID="33" type="0" basicInfo-basicType="0" basicInfo-roundedRectRadius="12" basicInfo-polygonSides="6" basicInfo-starPoints="5" bounding="rect(0,-119.947,0,239.894)" text="" font-familyName="" font-pixelSize="20" font-bold="0" font-underline="0" font-alignment="1" strokeStyle="0" markerStart="0" markerEnd="0" shadowEnabled="0" shadowOffsetX="0" shadowOffsetY="2" shadowBlur="4" shadowOpacity="160" blurEnabled="0" blurRadius="4" transform="matrix(0.94984,0,0,0.94984,239.404,351.32)" pers-center="0,0" pers-size="0,0" pers-start="0,0" pers-end="0,0" locked="0" mesh="" flag=""/>
            <path id="shapePath33" d="M239.404,237.39 L239.404,465.251 " style="stroke:#336699;stroke-opacity:1;stroke-width:0.5;stroke-linejoin:miter;stroke-miterlimit:2;stroke-linecap:butt;fill:none;"/>
        </g>
        <g id="Shape34">
            <desc shapeID="34" type="0" basicInfo-basicType="0" basicInfo-roundedRectRadius="12" basicInfo-polygonSides="6" basicInfo-starPoints="5" bounding="rect(-102.526,-58.7765,205.053,117.553)" text="" font-familyName="" font-pixelSize="20" font-bold="0" font-underline="0" font-alignment="1" strokeStyle="0" markerStart="0" markerEnd="0" shadowEnabled="0" shadowOffsetX="0" shadowOffsetY="2" shadowBlur="4" shadowOpacity="160" blurEnabled="0" blurRadius="4" transform="matrix(0.94984,0,0,0.94984,336.408,181.562)" pers-center="0,0" pers-size="0,0" pers-start="0,0" pers-end="0,0" locked="0" mesh="" flag=""/>
            <path id="shapePath34" d="M239.024,237.39 L433.792,125.733 " style="stroke:#336699;stroke-opacity:1;stroke-width:0.5;stroke-linejoin:miter;stroke-miterlimit:2;stroke-linecap:butt;fill:none;"/>
        </g>
        <g id="Shape35">
            <desc shapeID="35" type="0" basicInfo-basicType="0" basicInfo-roundedRectRadius="12" basicInfo-polygonSides="6" basicInfo-starPoints="5" bounding="rect(-102.203,-58.522,204.406,117.044)" text="" font-familyName="" font-pixelSize="20" font-bold="0" font-underline="0" font-alignment="1" strokeStyle="0" markerStart="0" markerEnd="0" shadowEnabled="0" shadowOffsetX="0" shadowOffsetY="2" shadowBlur="4" shadowOpacity="160" blurEnabled="0" blurRadius="4" transform="matrix(0.94984,0,0,0.94984,142.328,181.803)" pers-center="0,0" pers-size="0,0" pers-start="0,0" pers-end="0,0" locked="0" mesh="" flag=""/>
            <path id="shapePath35" d="M239.404,237.39 L45.2513,126.217 " style="stroke:#336699;stroke-opacity:1;stroke-width:0.5;stroke-linejoin:miter;stroke-miterlimit:2;stroke-linecap:butt;fill:none;"/>
        </g>
        <g id="Shape36">
            <desc shapeID="36" type="0" basicInfo-basicType="0" basicInfo-roundedRectRadius="12" basicInfo-polygonSides="6" basicInfo-starPoints="5" bounding="rect(-114.355,-49.1795,228.711,98.359)" text="" font-familyName="" font-pixelSize="20" font-bold="0" font-underline="0" font-alignment="1" strokeStyle="0" markerStart="0" markerEnd="0" shadowEnabled="0" shadowOffsetX="0" shadowOffsetY="2" shadowBlur="4" shadowOpacity="160" blurEnabled="0" blurRadius="4" transform="matrix(0.94984,0,0,0.94984,127.71,136.167)" pers-center="0,0" pers-size="0,0" pers-start="0,0" pers-end="0,0" locked="0" mesh="" flag=""/>
            <path id="shapePath36" d="M40.0899,107.457 C81.7612,73.0278 118.79,94.7336 156.167,116.618 C177.822,129.283 198.337,145.203 225.302,145.152 C228.978,145.143 232.649,144.458 236.33,144.075 C232.618,146.375 229.129,149.109 225.191,150.907 C196.32,164.062 169.113,157.818 141.863,144.735 C107.084,128.025 72.4281,123.702 40.0101,150.9 C30.6608,159.527 25.5212,170.175 24.6578,182.88 C18.5655,169.333 17.667,155.391 21.0209,140.978 C24.0784,127.873 31.2402,117.205 40.0899,107.457 Z" style="stroke:none;fill-rule:evenodd;fill:#0091fc;fill-opacity:1;"/>
        </g>
        <g id="Shape37">
            <desc shapeID="37" type="0" basicInfo-basicType="0" basicInfo-roundedRectRadius="12" basicInfo-polygonSides="6" basicInfo-starPoints="5" bounding="rect(-136.535,-58.6793,273.07,117.359)" text="" font-familyName="" font-pixelSize="20" font-bold="0" font-underline="0" font-alignment="1" strokeStyle="0" markerStart="0" markerEnd="0" shadowEnabled="0" shadowOffsetX="0" shadowOffsetY="2" shadowBlur="4" shadowOpacity="160" blurEnabled="0" blurRadius="4" transform="matrix(0.94984,0,0,0.94984,147.652,350.567)" pers-center="0,0" pers-size="0,0" pers-start="0,0" pers-end="0,0" locked="0" mesh="" flag=""/>
            <path id="shapePath37" d="M43.0762,384.867 C92.8744,425.912 137.06,399.967 181.668,373.806 C207.508,358.645 231.997,339.621 264.163,339.643 C268.553,339.663 272.936,340.478 277.338,340.926 C272.895,338.193 268.724,334.935 264.027,332.799 C229.549,317.115 197.077,324.588 164.557,340.256 C123.052,360.234 81.6843,365.432 42.9375,333.013 C31.7731,322.709 25.6267,310.016 24.5828,294.832 C17.3241,311.008 16.2641,327.66 20.2914,344.858 C23.9578,360.496 32.5168,373.228 43.0762,384.867 Z" style="stroke:none;fill-rule:evenodd;fill:#0091fc;fill-opacity:1;"/>
        </g>
        <g id="Shape38">
            <desc shapeID="38" type="0" basicInfo-basicType="0" basicInfo-roundedRectRadius="12" basicInfo-polygonSides="6" basicInfo-starPoints="5" bounding="rect(-109.208,-46.9687,218.415,93.9375)" text="" font-familyName="" font-pixelSize="20" font-bold="0" font-underline="0" font-alignment="1" strokeStyle="0" markerStart="0" markerEnd="0" shadowEnabled="0" shadowOffsetX="0" shadowOffsetY="2" shadowBlur="4" shadowOpacity="160" blurEnabled="0" blurRadius="4" transform="matrix(0.94984,0,0,0.94984,356.784,278.645)" pers-center="0,0" pers-size="0,0" pers-start="0,0" pers-end="0,0" locked="0" mesh="" flag=""/>
            <path id="shapePath38" d="M440.459,306.065 C400.662,338.946 365.302,318.216 329.6,297.315 C308.926,285.222 289.325,270.012 263.583,270.061 C260.077,270.07 256.568,270.73 253.054,271.093 C256.591,268.897 259.933,266.284 263.694,264.568 C291.259,252.006 317.244,257.972 343.266,270.464 C376.48,286.422 409.578,290.553 440.534,264.573 C449.464,256.333 454.371,246.164 455.197,234.032 C461.018,246.969 461.874,260.282 458.67,274.047 C455.75,286.565 448.912,296.75 440.459,306.065 Z" style="stroke:none;fill-rule:evenodd;fill:#0091fc;fill-opacity:1;"/>
        </g>
    </g>
</svg>
