<svg id="Layer_1" data-name="Layer 1" xmlns="http://www.w3.org/2000/svg" viewBox="0 0 500 500"><defs><style>.cls-1{fill:#cfcfcf;opacity:0.3;}.cls-2{fill:#fff;}</style></defs><title>Kubearmor_logo_updated</title><path class="cls-1" d="M345.91,450.12A44.51,44.51,0,0,1,311.71,466H162.31a44.56,44.56,0,0,1-35-16.85L34.14,332.33a44.58,44.58,0,0,1-8.66-37.89L58.74,148.79A44.49,44.49,0,0,1,83,118.41l14-6.75a44.48,44.48,0,0,0-12.26,22L51.47,279.31a44.6,44.6,0,0,0,8.66,37.89L153.27,434a44.56,44.56,0,0,0,35,16.87H337.7A44.78,44.78,0,0,0,345.91,450.12Z"/><path class="cls-2" d="M474.51,279.31,441.27,133.64A44.59,44.59,0,0,0,417,103.26L282.43,38.45a44.78,44.78,0,0,0-38.88,0L109,103.26a44.94,44.94,0,0,0-12,8.4,44.48,44.48,0,0,0-12.26,22L51.47,279.31a44.6,44.6,0,0,0,8.66,37.89L153.27,434a44.56,44.56,0,0,0,35,16.87H337.7a44.63,44.63,0,0,0,35-16.87l93.14-116.8A44.53,44.53,0,0,0,474.51,279.31ZM345.76,412.51a10.35,10.35,0,0,1-8.06,3.88H188.3a10.36,10.36,0,0,1-8.08-3.88L87.08,295.69a10.3,10.3,0,0,1-2-8.71l33.23-145.65a8.7,8.7,0,0,1,.7-2,10.29,10.29,0,0,1,4.87-5L258.52,69.49c.35-.16.72-.31,1.08-.45s.73-.23,1.12-.31a10.52,10.52,0,0,1,4.56,0c.37.08.73.2,1.11.31s.72.29,1.07.45l134.62,64.83a10.34,10.34,0,0,1,5.57,7L440.9,287a10.24,10.24,0,0,1-2,8.71Z"/><path class="cls-2" d="M259.44,218.85l-16.44-18-11.94-96.75h56.63l-10.3,96.85Zm-6.82-22.46,7.16,7.86,8-8,8.74-82.14h-34Z"/><path class="cls-2" d="M341.39,243.09l-.12-1.37c-2.25-25.73-5-43.29-12.62-56.87-8.26-14.79-21.79-23.92-43.88-29.6L282.25,165c38.88,10,44.73,30,48.84,76.22-16.19,34.35-17.54,50.68-13.25,73.16-12.95,7.72-22.61,15-30.63,23.54,5.07-14.22,9.6-26.58,13.6-37.51,12.28-33.5,18.44-50.31,18.06-60.74l-4,.14v-6.29H209.8v6.59l-5.7-.18c-.33,10.29,5,27,15.62,60.41,3.31,10.41,7,22.11,11.18,35.49-6.56-7.57-14.41-14.16-24.6-21.16,3.76-22.48,2.63-38.71-11.46-73.1,3.57-46.36,8.58-66.33,42-76.24L234,155.68c-19.37,5.74-31.22,14.92-38.41,29.76-6.55,13.49-9,31-10.89,56.58l-.09,1.19.46,1.12c14,34,15,48.34,10.74,71.81l-.59,3.26,2.76,1.84c24.61,16.4,34.6,29.16,46.47,59.35l9.53-3.27c-9.91-33.75-18.08-59.4-24.64-80-8.78-27.61-14.07-44.26-15-53.66h94.26c-1.21,9.55-7.54,26.83-17.25,53.32-7.57,20.65-17,46.35-28.43,80.16l9.37,3.7c13.7-30.24,25.25-43,53.74-59.52l3.16-1.82-.74-3.58c-4.51-21.51-4.76-35.59,12.36-71.57Z"/></svg>