<svg id="Layer_1" data-name="Layer 1" xmlns="http://www.w3.org/2000/svg" viewBox="0 0 500 500"><defs><style>.cls-1{fill:#00d1ff;opacity:0.3;}.cls-2{fill:#082d75;}.cls-3{fill:#5398ff;}.cls-4{fill:#fff;}</style></defs><title>Kubearmor_logo_updated</title><path class="cls-1" d="M345.91,450.12A44.51,44.51,0,0,1,311.71,466H162.31a44.56,44.56,0,0,1-35-16.85L34.14,332.33a44.58,44.58,0,0,1-8.66-37.89L58.74,148.79A44.49,44.49,0,0,1,83,118.41l14-6.75a44.48,44.48,0,0,0-12.26,22L51.47,279.31a44.6,44.6,0,0,0,8.66,37.89L153.27,434a44.56,44.56,0,0,0,35,16.87H337.7A44.78,44.78,0,0,0,345.91,450.12Z"/><path class="cls-2" d="M465.85,317.2,372.71,434a44.63,44.63,0,0,1-35,16.87H188.3a44.56,44.56,0,0,1-35-16.87L60.13,317.2a44.6,44.6,0,0,1-8.66-37.89L84.71,133.64a44.48,44.48,0,0,1,12.26-22,44.94,44.94,0,0,1,12-8.4l134.6-64.83a44.82,44.82,0,0,1,38.88,0L417,103.26a44.59,44.59,0,0,1,24.23,30.38l33.24,145.67A44.53,44.53,0,0,1,465.85,317.2Z"/><path class="cls-3" d="M474.51,279.31,441.27,133.64A44.59,44.59,0,0,0,417,103.26L282.43,38.44a44.82,44.82,0,0,0-38.88,0L109,103.26a44.94,44.94,0,0,0-12,8.4,44.48,44.48,0,0,0-12.26,22L51.47,279.31a44.6,44.6,0,0,0,8.66,37.89L153.27,434a44.56,44.56,0,0,0,35,16.87H337.7a44.63,44.63,0,0,0,35-16.87l93.14-116.8A44.53,44.53,0,0,0,474.51,279.31ZM345.76,412.51a10.35,10.35,0,0,1-8.06,3.88H188.3a10.36,10.36,0,0,1-8.08-3.88L87.08,295.69a10.3,10.3,0,0,1-2-8.71l33.23-145.65a8.7,8.7,0,0,1,.7-2,10.29,10.29,0,0,1,4.87-5L258.52,69.49c.35-.16.72-.31,1.08-.45s.73-.23,1.12-.31a10.52,10.52,0,0,1,4.56,0c.37.08.73.2,1.11.31s.72.29,1.07.45l134.62,64.83a10.34,10.34,0,0,1,5.57,7L440.9,287a10.24,10.24,0,0,1-2,8.71Z"/><path class="cls-4" d="M259.44,218.85l-16.44-18-11.95-96.76h56.64l-10.3,96.85Zm-6.82-22.46,7.16,7.85,8-8,8.74-82.15h-34Z"/><path class="cls-4" d="M341.39,243.08l-.12-1.36c-2.25-25.74-5-43.29-12.62-56.88-8.26-14.78-21.79-23.91-43.89-29.59L282.25,165C321.13,175,327,195,331.09,241.24c-16.19,34.35-17.54,50.68-13.25,73.16-12.95,7.71-22.61,15-30.63,23.54,5.07-14.23,9.6-26.58,13.6-37.51,12.28-33.5,18.44-50.32,18.06-60.75l-4,.15v-6.29H209.8v6.59l-5.7-.18c-.33,10.29,5,27,15.62,60.41,3.31,10.41,7,22.11,11.18,35.48-6.56-7.56-14.41-14.16-24.6-21.15,3.76-22.49,2.63-38.71-11.46-73.11,3.57-46.35,8.58-66.32,42-76.23L234,155.67c-19.37,5.75-31.22,14.92-38.42,29.77-6.54,13.49-8.94,31-10.88,56.57l-.09,1.2.46,1.11c14,34,15,48.35,10.74,71.82l-.6,3.26,2.77,1.84c24.61,16.4,34.6,29.15,46.46,59.34l9.54-3.26c-9.91-33.75-18.08-59.41-24.64-80-8.78-27.61-14.07-44.26-15-53.67h94.26c-1.21,9.55-7.54,26.84-17.25,53.32-7.57,20.66-17,46.36-28.43,80.17l9.37,3.7c13.7-30.24,25.25-43,53.74-59.52l3.16-1.83-.74-3.57c-4.51-21.52-4.76-35.59,12.36-71.58Z"/></svg>