<?xml version='1.0' encoding='utf-8'?>
<!-- Generator: imaengine 6.0   -->
<svg xmlns:xlink="http://www.w3.org/1999/xlink" xmlns="http://www.w3.org/2000/svg" viewBox="0,0,135,135" style="enable-background:new 0 0 135 135;" version="1.1">
<defs/>
<g id="layer0">
<g transform="matrix(1 0 0 1 14 0)">
<path d="M49.8504,48.2496L38.4363,53.7464L35.1218,55.3426L34.3032,58.9293L31.4841,71.2804L30.6655,74.8671L32.9592,77.7433L40.858,87.6485L43.1517,90.5245L46.8306,90.5245L59.499,90.5245L63.178,90.5245L65.472,87.6485L73.371,77.7433L75.665,74.8671L74.846,71.2804L72.027,58.9293L71.208,55.3426L67.894,53.7464L56.48,48.2496L53.165,46.6534L49.8504,48.2496L49.8504,48.2496L49.8504,48.2496L49.8504,48.2496ZM64.579,60.6293L67.398,72.9803L59.499,82.8854L46.8306,82.8854L38.9318,72.9803L41.7509,60.6293L53.165,55.1324L64.579,60.6293L64.579,60.6293L64.579,60.6293L64.579,60.6293Z" fill="#fff"/>
<path d="M91.276,28.2552L59.715,12.9354L53.165,9.75624L46.6149,12.9354L15.0535,28.2552L6.6037,32.3568L6.6037,41.7496L6.6037,80.0267C6.6037,92.3385 14.0005,103.935 28.5889,114.495C37.4762,120.928 46.0834,124.853 47.0356,125.279L53.165,128.023L59.295,125.279C60.247,124.853 68.854,120.928 77.741,114.495C92.329,103.935 99.7263,92.3385 99.7263,80.0267L99.7263,41.7496L99.7263,32.3568L91.276,28.2552L91.276,28.2552L91.276,28.2552L91.276,28.2552ZM84.726,80.0267C84.726,97.4575 53.165,111.589 53.165,111.589C53.165,111.589 21.6037,97.4575 21.6037,80.0267L21.6037,41.7496L53.165,26.4298L84.726,41.7496L84.726,80.0267L84.726,80.0267L84.726,80.0267L84.726,80.0267Z" fill="#fff"/>
<path d="M91.276,28.2552L59.715,12.9354L53.165,9.75624L46.6149,12.9354L15.0535,28.2552L6.6037,32.3568L6.6037,41.7496L6.6037,80.0267C6.6037,92.3385 14.0005,103.935 28.5889,114.495C37.4762,120.928 46.0834,124.853 47.0356,125.279L53.165,128.023L59.295,125.279C60.247,124.853 68.854,120.928 77.741,114.495C92.329,103.935 99.7263,92.3385 99.7263,80.0267L99.7263,41.7496L99.7263,32.3568L91.276,28.2552L91.276,28.2552L91.276,28.2552L91.276,28.2552ZM84.726,80.0267C84.726,97.4575 53.165,111.589 53.165,111.589C53.165,111.589 21.6037,97.4575 21.6037,80.0267L21.6037,41.7496L53.165,26.4298L84.726,41.7496L84.726,80.0267L84.726,80.0267L84.726,80.0267L84.726,80.0267Z" fill="#fff"/>
</g>
</g>
</svg>
