<svg width="905" height="822" viewBox="0 0 905 822" fill="none" xmlns="http://www.w3.org/2000/svg">
<g opacity="0.4">
<path d="M54.4854 579.082C54.4854 579.082 147.955 441.87 318.467 483.898C488.978 525.927 487.637 360.092 659.423 333.346C831.209 306.668 894.103 393.138 894.103 393.138L904.898 504.611L857.56 625.803L768.717 689.684L728.888 722.06L705.622 793.448L633.407 798.408L596.864 792.577L590.226 735.332L553.683 712.474L479.658 725.344L451.564 760.201L433.326 798.408H343.678L328.726 731.98L272.939 707.715L175.915 652.28L135.215 619.904L92.9058 624.865L58.8437 619.033L54.4854 578.948V579.082Z" fill="#416A5D"/>
</g>
<path d="M315.717 808.06H285.343C253.828 808.06 227.41 784.465 223.923 753.095L219.9 716.697C218.76 706.441 226.136 697.191 236.395 696.051C246.654 694.845 255.907 702.285 257.047 712.541L261.07 748.939C262.478 761.34 272.871 770.657 285.343 770.657H315.717C326.043 770.657 334.424 779.036 334.424 789.292C334.424 799.547 326.043 807.993 315.717 807.993" fill="#023927"/>
<path d="M574.804 808.061H548.318C521.162 808.061 497.493 790.7 489.38 764.826L480.596 736.874C477.512 727.02 483.01 716.563 492.8 713.48C502.656 710.396 513.116 715.826 516.201 725.68L524.984 753.632C528.203 763.887 537.59 770.724 548.318 770.724H574.804C585.13 770.724 593.511 779.103 593.511 789.359C593.511 799.615 585.13 808.061 574.804 808.061Z" fill="#023927"/>
<path d="M521.833 60.5959C521.833 64.8859 524.247 68.0364 528.94 70.0473V52.8203C524.18 53.6917 521.833 56.3059 521.833 60.5959Z" fill="#63E892"/>
<path d="M532.293 0C487.972 0 452.032 35.9287 452.032 80.2363C452.032 124.544 487.972 160.473 532.293 160.473C576.614 160.473 612.553 124.544 612.553 80.2363C612.553 35.9287 576.614 0 532.293 0Z" fill="#023927"/>
<g opacity="0.3">
<path d="M110.338 625.065C110.338 625.065 62.866 353.589 408.114 330.932C753.361 308.276 631.864 137.548 772.404 223.28C912.944 309.013 866.678 374.369 866.678 374.369L878.68 538.729L791.245 669.909L712.661 721.322L705.688 793.514L638.167 794.989L587.476 783.862L567.562 721.322L508.288 715.557L457.933 735.666L426.352 794.855L379.617 814.227L307.671 799.011C307.671 799.011 311.828 744.582 311.828 739.487C311.828 734.393 257.986 715.892 257.986 715.892L248.867 690.018L136.891 637.064L110.338 624.864V625.065Z" fill="#7F9C93"/>
</g>
<path d="M675.783 821.332H601.289C582.246 821.332 566.02 807.725 562.667 789.023L555.895 751.352C554.889 745.721 549.995 741.632 544.228 741.632H471.88C466.583 741.632 461.889 745.252 460.481 750.346L449.082 792.308C444.456 809.401 428.9 821.265 411.198 821.265H342.269C323.897 821.265 307.738 808.194 303.916 790.163L293.322 740.493C258.388 732.985 161.432 707.178 118.72 645.107C115.166 639.879 108.595 637.6 102.494 639.41L82.6465 645.308C71.583 648.593 59.6478 646.984 49.7913 640.884C40.0018 634.852 33.1625 624.864 31.151 613.469L0.642593 442.003C-1.5701 429.535 1.98362 417.067 10.4991 407.683C19.0147 398.299 31.0839 393.405 43.7566 394.478L50.9311 395.014C57.9045 395.483 64.2744 391.193 66.1518 384.691C78.8245 340.585 113.356 260.416 203.875 204.378C191.404 196.267 174.641 191.038 153.788 188.826L139.104 187.285L135.081 157.657L149.229 152.294L321.484 88.4137C334.357 83.5874 348.572 84.794 360.507 91.6982C372.309 98.5354 380.355 110.199 382.634 123.672C388.535 158.997 399.934 183.33 413.21 189.027C464.906 203.975 608.128 229.782 663.982 174.348C680.007 158.461 705.755 156.048 725.2 168.583C779.914 204.109 906.842 305.863 904.093 484.233C903.892 491.472 896.986 653.084 734.654 723.601L713.399 793.581C708.37 810.205 693.284 821.399 675.85 821.399M472.014 704.363H544.362C568.233 704.363 588.549 721.389 592.774 744.85L599.546 782.521C599.68 783.393 600.484 784.063 601.423 784.063H675.917C676.789 784.063 677.459 783.527 677.728 782.722L704.146 695.783L712.46 692.431C859.772 633.243 866.611 489.461 866.813 483.361C869.226 324.028 754.434 232.061 704.95 199.953C700.19 196.87 694.088 197.272 690.467 200.892C607.123 283.541 410.327 227.101 402.012 224.621L400.537 224.152C372.912 213.561 354.54 181.788 345.89 129.772C345.354 126.487 343.141 124.745 341.867 124.007C340.593 123.27 337.911 122.197 334.626 123.404L215.14 167.711C229.757 175.353 241.558 185.408 250.409 197.943C275.822 233.804 266.3 275.632 265.898 277.374C263.484 287.429 253.426 293.596 243.436 291.25C233.445 288.904 227.209 278.916 229.556 268.861C229.69 268.325 233.177 251.567 227.209 233.938C144.669 283.541 113.49 355.6 102.158 395.014C95.3862 418.475 72.7228 434.227 48.115 432.216L40.9405 431.68C39.7336 431.613 38.7948 432.216 38.2584 432.753C37.7891 433.289 37.2527 434.16 37.4538 435.501L68.0293 607.101C68.2304 608.24 68.968 608.91 69.5044 609.246C70.0408 609.581 70.9795 609.916 72.1194 609.581L91.9666 603.682C113.624 597.247 136.757 605.425 149.564 623.992C192.141 685.929 310.889 705.972 312.096 706.173L324.702 708.251L340.459 782.454C340.66 783.326 341.398 783.929 342.269 783.929H411.198C412.07 783.929 412.808 783.325 413.009 782.521L424.407 740.56C430.174 719.177 449.686 704.229 471.88 704.229" fill="#023927"/>
<path d="M238.474 382.278C238.474 402.253 222.314 418.408 202.333 418.408C182.352 418.408 166.192 402.253 166.192 382.278C166.192 362.303 182.352 346.148 202.333 346.148C222.314 346.148 238.474 362.303 238.474 382.278Z" fill="#023927"/>
</svg>
