<?xml version="1.0" encoding="UTF-8"?>
<svg id="Layer_1" data-name="Layer 1" xmlns="http://www.w3.org/2000/svg" viewBox="0 0 903.71 903.71">
  <defs>
    <style>
      .cls-1 {
        fill: none;
      }

      .cls-2 {
        fill: #bb311e;
      }

      .cls-3 {
        fill: #c74325;
      }

      .cls-4 {
        fill: #da4c2a;
      }
    </style>
  </defs>
  <path class="cls-3" d="m673.37,451.86c0-59.65-23.62-113.75-61.96-153.57l-116.95,126.65c11.91,18.83,10.29,43.99-5.54,61.14-18.9,20.46-50.81,21.74-71.27,2.84-20.46-18.9-21.74-50.81-2.84-71.27,15.55-16.84,39.89-20.65,59.43-10.96l117.13-126.84c-34.52-28.03-77.62-45.84-124.76-48.95.03-.01.05-.02.08-.03-.39-.03-.78-.02-1.17-.04-4.52-.28-9.07-.47-13.66-.47-7.65,0-15.2.39-22.65,1.14-7.45.76-14.78,1.88-21.99,3.36-14.42,2.95-28.33,7.3-41.58,12.91-13.25,5.6-25.84,12.46-37.63,20.42-14.73,9.95-28.2,21.63-40.12,34.74-4.77,5.24-9.29,10.72-13.54,16.41-8.5,11.37-15.94,23.59-22.16,36.5-4.14,8.59-7.69,17.52-10.71,26.68-1.78,5.4-3.37,10.89-4.73,16.47-4.15,16.95-6.4,34.65-6.4,52.89h0c0,19.12,2.42,37.67,6.97,55.36,9.1,35.39,26.74,67.35,50.57,93.58,7.15,7.87,14.86,15.22,23.06,21.99,5.47,4.51,11.16,8.77,17.05,12.75,4.64,3.13,9.44,6.05,14.32,8.83,3.03,1.73,6.1,3.39,9.22,4.97,30.12,15.34,64.19,24.03,100.31,24.03,1.31,0,2.61-.02,3.91-.05,3.31-.07,6.6-.22,9.88-.42.35-.02.7-.01,1.04-.04-.03-.01-.06-.02-.09-.04,115.46-7.59,206.78-103.59,206.78-220.97Z"/>
  <g>
    <path class="cls-4" d="m274.35,319.32c4.25-5.69,8.77-11.16,13.54-16.41-4.77,5.24-9.29,10.72-13.54,16.41Z"/>
    <path class="cls-4" d="m241.48,382.5c3.02-9.16,6.57-18.09,10.71-26.68-4.14,8.59-7.69,17.52-10.71,26.68Z"/>
    <path class="cls-4" d="m252.19,355.82c6.22-12.91,13.66-25.13,22.16-36.5-8.5,11.37-15.94,23.59-22.16,36.5Z"/>
    <path class="cls-4" d="m328.01,635.54c-5.89-3.98-11.58-8.24-17.05-12.75,5.47,4.51,11.16,8.77,17.05,12.75Z"/>
    <path class="cls-4" d="m287.89,600.8c-23.84-26.22-41.47-58.19-50.57-93.58,9.1,35.39,26.74,67.36,50.57,93.58Z"/>
    <path class="cls-4" d="m236.75,398.97c-4.15,16.95-6.4,34.65-6.4,52.89s2.42,37.66,6.97,55.36c-4.55-17.69-6.97-36.24-6.97-55.36s2.25-35.93,6.4-52.89Z"/>
    <path class="cls-4" d="m451.86,230.35c4.59,0,9.14.19,13.66.47-4.52-.28-9.07-.47-13.66-.47Z"/>
    <path class="cls-4" d="m342.33,644.37c32.31,18.42,69.67,29,109.53,29,4.63,0,9.22-.19,13.79-.47-4.56.28-9.15.47-13.79.47-39.86,0-77.22-10.58-109.53-29Z"/>
    <path class="cls-2" d="m466.69,230.85c-.39-.03-.78-.02-1.17-.04.36.02.73.05,1.09.07.03-.01.05-.02.08-.03Z"/>
    <path class="cls-2" d="m342.33,644.37c-4.88-2.78-9.68-5.69-14.32-8.83,4.64,3.13,9.44,6.05,14.32,8.83Z"/>
    <path class="cls-2" d="m466.69,672.86s-.06-.02-.09-.04c-.32.02-.63.05-.95.07.35-.02.7-.01,1.04-.04Z"/>
    <path class="cls-2" d="m407.22,234.85c7.21-1.48,14.55-2.6,21.99-3.36-7.45.76-14.78,1.88-21.99,3.36Z"/>
    <path class="cls-2" d="m236.75,398.97c1.37-5.58,2.95-11.06,4.73-16.47-1.78,5.4-3.37,10.89-4.73,16.47Z"/>
    <path class="cls-2" d="m328.01,268.18c11.78-7.96,24.38-14.82,37.63-20.42-13.25,5.6-25.84,12.46-37.63,20.42Z"/>
    <path class="cls-4" d="m311.94,451.86c0-101.59,64.44-188.12,154.67-220.97-.36-.02-.73-.05-1.09-.07-4.52-.28-9.07-.47-13.66-.47-7.65,0-15.2.39-22.65,1.14-7.45.76-14.78,1.88-21.99,3.36-14.42,2.95-28.33,7.3-41.58,12.91-13.25,5.6-25.84,12.46-37.63,20.42-14.73,9.95-28.2,21.63-40.12,34.74-4.77,5.24-9.29,10.72-13.54,16.41-8.5,11.37-15.94,23.59-22.16,36.5-4.14,8.59-7.69,17.52-10.71,26.68-1.78,5.4-3.37,10.89-4.73,16.47-4.15,16.95-6.4,34.65-6.4,52.89s2.42,37.67,6.97,55.36c9.1,35.39,26.74,67.36,50.57,93.58,7.15,7.87,14.86,15.22,23.06,21.99,5.47,4.51,11.16,8.77,17.05,12.75,4.64,3.13,9.44,6.04,14.32,8.83,32.31,18.42,69.67,29,109.53,29,4.63,0,9.22-.19,13.79-.47.32-.02.63-.05.95-.07-90.22-32.85-154.66-119.38-154.66-220.97Z"/>
  </g>
  <rect class="cls-1" width="903.71" height="903.71"/>
</svg>