<?xml version="1.0"?>
<svg version="1.1" xmlns="http://www.w3.org/2000/svg" xmlns:xlink="http://www.w3.org/1999/xlink" width="200" height="200">
    <desc iVinci="yes" version="4.6" gridStep="20" showGrid="no" snapToGrid="no" codePlatform="0"/>
    <g id="Layer1" name="Layer 1" opacity="1">
        <g id="Shape1">
            <desc shapeID="1" type="0" basicInfo-basicType="0" basicInfo-roundedRectRadius="12" basicInfo-polygonSides="6" basicInfo-starPoints="5" bounding="rect(-90.5947,-96.7,181.189,193.4)" text="" font-familyName="" font-pixelSize="20" font-bold="0" font-underline="0" font-alignment="1" strokeStyle="0" markerStart="0" markerEnd="0" shadowEnabled="0" shadowOffsetX="0" shadowOffsetY="2" shadowBlur="4" shadowOpacity="160" blurEnabled="0" blurRadius="4" transform="matrix(1,0,0,1,100.595,99.7)" pers-center="0,0" pers-size="0,0" pers-start="0,0" pers-end="0,0" locked="0" mesh="" flag=""/>
            <path id="shapePath1" d="M83.5502,88.8 L83.5502,90.7 M133.55,150.3 L135.25,149.9 L135.45,151.2 C136.35,157.1 135.95,162.2 133.55,167.4 C137.25,167.9 140.45,169.7 142.15,173.4 C143.35,176.1 144.55,179.1 144.55,182.1 C144.55,184.3 143.85,186.5 142.15,187.9 C141.15,188.7 139.85,189.2 138.55,189.2 L119.25,189.2 C118.15,192.2 115.95,195 112.75,195.9 C111.85,196.1 110.95,196.2 110.05,196.3 C109.05,196.3 108.15,196.4 107.15,196.4 C104.65,196.4 102.15,196.4 99.6502,196.4 C95.7502,196.4 91.8502,196.3 87.9502,196.2 C85.5502,196.1 83.4502,194.7 82.4502,192.6 C81.4502,194.7 79.3502,196.1 76.9502,196.2 C73.0502,196.3 69.1502,196.4 65.2502,196.4 C62.7502,196.4 60.2502,196.4 57.7502,196.4 C56.7502,196.4 55.8502,196.4 54.8502,196.3 C53.9502,196.2 53.0502,196.2 52.1502,195.9 C48.9502,195.1 46.7502,192.3 45.6502,189.2 L26.5502,189.2 C25.2502,189.2 23.9502,188.7 22.9502,187.9 C21.2502,186.5 20.5502,184.3 20.5502,182.1 C20.5502,179.2 21.7502,176.1 22.9502,173.4 C23.5502,172 24.5502,170.7 25.7502,169.7 C27.3502,168.4 29.3502,167.7 31.3502,167.4 C28.9502,162.2 28.5502,157.1 29.4502,151.2 L29.6502,149.9 L31.5502,150.4 C31.7502,149.3 32.0502,148.2 32.4502,147.1 C33.7502,143.2 36.0502,139.7 39.2502,137.2 C40.4502,136.3 41.6502,135.5 42.9502,134.9 C43.1502,131.4 43.5502,127.9 44.3502,124.4 C45.0502,119.7 46.3502,115.2 48.4502,110.9 C47.4502,109.7 46.6502,108.4 45.9502,107 C45.8502,106.8 45.7502,106.6 45.6502,106.3 C39.6502,102.9 34.1502,98.4 29.3502,92.5 C26.6502,89.2 22.6502,84 22.3502,79.7 C22.1502,78.2 22.1502,76.7 22.1502,75.1 C22.0502,71.4 22.3502,67.8 22.7502,64.2 C23.0502,62.1 23.3502,60 23.7502,57.9 C20.9502,54.7 18.4502,51.1 16.4502,47.4 C13.2502,41.5 11.1502,35 10.3502,28.3 C9.55021,21.7 10.1502,15 11.8502,8.5 C12.7502,5.3 15.6502,3 18.9502,3 C31.5502,3 42.4502,8.1 52.5502,14.8 C71.4502,3.2 95.4502,3.1 114.45,14.8 C124.55,8.2 135.45,3 148.05,3 C151.45,3 154.35,5.2 155.25,8.5 C156.95,15 157.55,21.6 156.75,28.3 C155.95,35 153.85,41.4 150.65,47.4 C148.65,51.2 146.15,54.7 143.35,57.9 C143.75,59.9 144.05,61.9 144.35,63.9 C144.85,67.6 145.05,71.3 144.95,75.1 C144.95,76.7 144.85,78.2 144.75,79.7 C144.35,84.2 140.55,89.2 137.75,92.6 C132.95,98.5 127.45,103 121.45,106.4 C121.35,106.6 121.25,106.8 121.15,107.1 C120.65,108.2 120.05,109.3 119.45,110.3 C118.85,111.3 118.15,112.1 117.45,112.9 C117.95,114.1 118.45,115.3 118.85,116.6 C119.75,119.2 120.35,121.9 120.75,124.7 C121.05,126.1 121.35,127.5 121.55,128.9 C127.15,119.5 134.55,111.1 143.85,105.9 C149.35,102.8 155.55,100.9 161.85,101.1 C168.55,101.3 175.15,104.4 180.25,108.7 C185.85,113.4 190.35,120.1 191.15,127.5 C191.25,128.7 191.15,129.9 190.95,131.1 C189.95,135.1 186.95,138.2 183.35,139.9 C178.75,142.1 172.95,142 169.05,138.3 C166.85,136.2 166.15,133.9 165.05,131.2 C164.35,129.6 163.65,128.4 162.35,127.4 C160.45,126 158.15,125.3 155.85,125.4 C152.55,125.6 149.55,127.5 147.25,129.8 C145.95,131.1 144.75,132.5 143.55,133.9 C141.35,136.6 139.35,139.5 137.55,142.5 C136.15,144.8 134.95,147.2 133.95,149.7 C133.85,149.8 133.85,150 133.75,150.1 C133.55,150.1 133.55,150.2 133.55,150.3 M138.65,129.3 C138.95,129.3 139.25,129.3 139.55,129.5 C140.65,128.2 141.85,126.9 143.05,125.7 C143.45,125.3 143.85,125 144.25,124.6 C142.75,123.6 141.45,122.1 140.55,120.5 C139.75,119.2 139.15,117.6 138.95,116 C136.55,118.1 134.25,120.5 132.05,123.2 C131.95,124.9 133.55,126.9 134.75,127.8 C135.85,128.7 137.25,129.4 138.65,129.3 M136.95,132.8 C135.35,132.5 133.85,131.8 132.55,130.7 C131.35,129.7 130.15,128.4 129.35,126.9 C127.25,129.9 125.25,133.2 123.45,136.8 C124.05,137.2 124.65,137.6 125.25,138 C127.25,139.6 128.95,141.6 130.15,143.9 C131.75,140.7 134.05,136.7 136.95,132.8 M166.95,123.3 C166.95,123.5 166.85,123.7 166.85,123.9 C170.55,127.6 170.45,131.8 172.75,134.1 C176.85,138 185.95,133.6 185.45,128 C184.95,123.1 182.15,118.2 178.15,114.4 C178.15,114.4 178.15,114.4 178.05,114.3 C177.45,113.7 176.75,113.5 175.95,113.5 C170.95,113.3 167.15,118.5 166.95,123.3 M163.45,121.5 C163.65,120.3 164.05,119 164.55,117.9 C166.15,114.3 169.15,111.3 172.85,110.2 C169.35,108 165.35,106.7 161.65,106.6 C160.55,106.6 159.45,106.6 158.35,106.7 C158.05,106.9 157.65,107.2 157.55,107.3 C157.35,107.5 157.15,107.7 156.95,107.8 C154.45,110.6 154.75,116 156.85,118.9 C156.95,119.1 157.05,119.3 157.15,119.5 C159.45,119.8 161.55,120.5 163.45,121.5 M153.05,120 C152.05,118.1 151.45,115.9 151.45,113.7 C151.45,111.8 151.75,109.8 152.55,108 C150.55,108.7 148.45,109.6 146.45,110.7 C145.25,111.3 144.15,112.1 142.95,112.9 C142.95,112.9 142.95,112.9 142.95,113 C141.85,114.6 142.85,117.3 143.75,118.8 C144.55,120.1 145.65,121.5 147.05,122.1 C147.25,122.2 147.35,122.3 147.45,122.4 C149.35,121.1 151.25,120.4 153.05,120 M78.1502,18.9 C79.1502,18.9 79.8502,19.7 79.8502,20.6 C79.8502,21.6 79.0502,22.3 78.1502,22.3 C77.1502,22.3 76.4502,21.5 76.4502,20.6 C76.4502,19.7 77.2502,18.9 78.1502,18.9 M78.1502,26.6 C79.1502,26.6 79.8502,27.4 79.8502,28.3 C79.8502,29.2 79.0502,30 78.1502,30 C77.1502,30 76.4502,29.2 76.4502,28.3 C76.4502,27.4 77.2502,26.6 78.1502,26.6 M88.9502,18.9 C89.9502,18.9 90.6502,19.7 90.6502,20.6 C90.6502,21.6 89.8502,22.3 88.9502,22.3 C87.9502,22.3 87.2502,21.5 87.2502,20.6 C87.2502,19.7 88.0502,18.9 88.9502,18.9 M88.9502,26.6 C89.9502,26.6 90.6502,27.4 90.6502,28.3 C90.6502,29.2 89.8502,30 88.9502,30 C87.9502,30 87.2502,29.2 87.2502,28.3 C87.2502,27.4 88.0502,26.6 88.9502,26.6 M85.0502,13.2 L85.0502,34.1 C96.2502,34.3 107.15,37.4 113.95,43.4 C121.75,50.3 126.95,62.1 126.35,68.4 C125.85,73.9 116.85,77.7 104.95,79.7 C105.55,80.8 105.95,81.9 106.15,83.2 C106.45,84.9 106.45,86.7 106.15,88.3 C110.65,87.8 114.75,87.1 118.35,86.3 C127.15,84.4 133.35,82.1 137.15,80.6 C137.35,80 137.55,79.4 137.55,78.9 C137.55,78.9 140.15,55.4 126.75,36.1 C116.55,21.2 100.85,13.6 85.0502,13.2 M82.1502,34 L82.1502,13.2 C66.0502,13.7 50.1502,21.6 39.9502,36.9 C27.1502,56 29.6502,79 29.6502,79 C29.6502,79 29.6502,79.6 30.1502,80.8 C33.9502,82.2 40.1502,84.6 48.8502,86.4 C52.4502,87.2 56.5502,87.9 61.0502,88.4 C60.7502,86.7 60.7502,85 61.0502,83.3 C61.2502,82 61.6502,80.9 62.2502,79.8 C50.3502,77.8 41.3502,74 40.8502,68.4 C40.2502,62.1 45.4502,50.3 53.2502,43.4 C59.9502,37.4 70.9502,34.3 82.1502,34 M61.9502,91.3 C56.8502,90.8 52.2502,90 48.1502,89.1 C41.2502,87.6 35.9502,85.9 32.0502,84.5 C32.7502,85.6 33.5502,86.8 34.6502,88.1 C41.1502,96 49.2502,101.4 59.0502,104.8 C62.1502,105.9 65.3502,106.7 68.5502,107.4 L68.5502,107.3 C68.2502,106.4 68.1502,105.5 68.2502,104.6 C68.6502,102.3 70.3502,100.9 72.5502,100 C68.4502,98.6 64.7502,96.3 62.5502,92.5 C62.3502,92.1 62.1502,91.7 61.9502,91.3 M72.4502,105.8 C72.9502,107 74.4502,107.9 76.4502,108.6 C78.7502,108.9 81.1502,109.1 83.5502,109.2 C85.9502,109 88.3502,108.8 90.7502,108.6 C92.5502,108 94.0502,107.2 94.6502,106.1 C97.0502,101.3 70.8502,101.4 72.4502,105.8 M134.95,84.6 C131.05,86 125.75,87.7 118.95,89.2 C114.95,90.1 110.35,90.8 105.15,91.4 C104.95,91.8 104.75,92.2 104.55,92.6 C102.35,96.3 98.6502,98.7 94.5502,100 C96.6502,100.9 98.3502,102.3 98.7502,104.5 C98.9502,105.5 98.8502,106.5 98.4502,107.4 C106.45,105.8 113.85,103.1 120.55,98.8 C125.35,95.7 129.25,91.6 132.95,87.2 C133.65,86.3 134.35,85.5 134.95,84.6 M82.5502,92.2 C81.4502,94.1 79.1502,97.1 74.3502,96.1 C68.4502,94.2 64.1502,90.2 65.2502,83.8 C66.2502,78 75.7502,74.5 83.6502,74.5 C91.4502,74.4 101.05,78 102.05,83.8 C102.95,89.3 99.8502,93 95.2502,95.2 C88.2502,97.8 85.8502,94.4 84.7502,92.3 C84.2502,91.3 84.0502,90.7 83.7502,90.7 C83.7502,90.7 83.7502,90.7 83.6502,90.7 C83.3502,90.8 83.0502,91.3 82.5502,92.2 M83.5502,77.2 C78.8502,77.2 73.0502,78.6 72.4502,81.5 C71.5502,86.4 78.7502,88.8 83.5502,88.8 L83.6502,88.8 C88.3502,88.8 95.5502,86.4 94.6502,81.5 C94.1502,78.6 88.3502,77.2 83.5502,77.2 M70.3502,67.6 C70.3502,68.6 69.5502,69.4 68.5502,69.4 C67.5502,69.4 66.7502,68.6 66.7502,67.6 C66.7502,65.6 66.0502,63.7 64.8502,62.4 C63.7502,61.1 62.2502,60.4 60.5502,60.4 C59.4502,60.4 58.3502,60.8 57.4502,61.4 C56.4502,62.1 55.6502,63 55.1502,64.2 C54.7502,65.1 53.6502,65.5 52.8502,65 C51.9502,64.6 51.5502,63.5 52.0502,62.7 C52.8502,61 54.0502,59.5 55.5502,58.5 C57.0502,57.5 58.7502,56.9 60.5502,56.9 C63.2502,56.9 65.6502,58.1 67.4502,60.1 C69.2502,62.1 70.3502,64.7 70.3502,67.6 M96.8502,67.6 C96.8502,68.6 97.6502,69.4 98.6502,69.4 C99.6502,69.4 100.45,68.6 100.45,67.6 C100.45,65.6 101.15,63.7 102.35,62.4 C103.45,61.1 104.95,60.4 106.65,60.4 C107.75,60.4 108.85,60.8 109.75,61.4 C110.75,62.1 111.55,63 112.05,64.2 C112.45,65.1 113.55,65.5 114.35,65 C115.25,64.6 115.65,63.5 115.25,62.7 C114.45,61 113.25,59.5 111.75,58.5 C110.25,57.5 108.55,56.9 106.75,56.9 C104.05,56.9 101.65,58.1 99.8502,60.1 C97.8502,62.1 96.8502,64.7 96.8502,67.6 M98.2502,114.7 C94.4502,115.9 90.5502,116.6 86.6502,116.9 C81.7502,117.2 76.9502,116.8 72.1502,115.6 C68.0502,114.6 64.1502,113.1 60.4502,111.1 C58.9502,110.7 57.3502,110.1 55.8502,109.6 C59.1502,114 63.9502,118 70.5502,120.2 C64.5502,119.2 58.5502,117.4 53.8502,114.1 C50.8502,120.6 48.9502,129.8 50.4502,142.2 C50.7502,145 51.2502,147.7 51.7502,150.2 C59.6502,146.6 65.1502,148 71.9502,152.6 C72.7502,141.8 75.0502,133.7 76.0502,130.4 C76.5502,129 77.1502,128.3 77.9502,128.2 C78.8502,128.1 80.3502,128.2 80.2502,130.8 C79.9502,131.9 79.7502,133.1 79.5502,134 C79.0502,136.4 78.7502,138.9 78.3502,141.3 C77.9502,143.7 77.6502,146.1 77.3502,148.5 C77.1502,150.1 76.9502,151.6 76.8502,153.2 C76.7502,154.1 76.7502,155 76.7502,155.9 C80.4502,156.3 84.1502,156.3 87.8502,155.8 C87.8502,154.9 87.7502,154.1 87.7502,153.2 C87.4502,149.3 86.8502,145.2 86.3502,141.4 C86.0502,139.1 85.6502,136.8 85.1502,134.5 C84.8502,133.2 84.5502,131.5 84.1502,130.3 C84.2502,127.7 87.6502,127.2 88.5502,130 C89.5502,133.1 92.0502,141.5 92.8502,152.9 C99.0502,149.4 107.15,146.7 113.05,150 C113.55,147.5 113.95,144.9 114.35,142.2 C115.75,130.7 114.25,122 111.65,115.7 C106.95,118.5 100.95,120 95.1502,120.7 C102.45,118.6 107.55,114.4 111.15,109.7 C109.65,110.3 108.15,110.8 106.55,111.2 C104.35,112.5 101.45,113.7 98.2502,114.7 M29.5502,11.8 C35.7502,13.5 41.6502,16.5 47.1502,20 C44.9502,21.8 42.7502,23.8 40.7502,26 C39.6502,24.2 38.5502,22.5 37.3502,20.9 C35.1502,17.7 32.5502,14.5 29.5502,11.8 M19.2502,10.3 C19.4502,10.3 19.6502,10.3 19.8502,10.3 C26.8502,14.1 33.0502,21.9 37.6502,29.7 C36.7502,30.9 35.8502,32.2 34.9502,33.4 C31.5502,38.5 28.9502,44.1 27.1502,49.9 C21.5502,42.3 14.3502,28.4 19.1502,10.4 C19.0502,10.4 19.1502,10.4 19.2502,10.3 M147.95,10.3 C147.75,10.3 147.55,10.3 147.35,10.3 C140.35,14.1 134.15,21.9 129.55,29.7 C130.35,30.7 131.05,31.7 131.75,32.7 C135.45,38 138.15,43.8 140.15,49.9 C145.75,42.3 152.95,28.4 148.15,10.4 C148.05,10.4 148.05,10.4 147.95,10.3 M137.55,11.8 C131.35,13.5 125.45,16.5 119.95,20 C122.15,21.8 124.35,23.8 126.35,26 C127.45,24.2 128.55,22.5 129.75,20.9 C132.05,17.7 134.65,14.5 137.55,11.8 M53.0502,155.6 C55.2502,163.9 58.1502,170.2 60.1502,174 C60.5502,174.8 60.8502,175 61.6502,175.5 C64.0502,177 67.5502,178.6 68.1502,184.7 C65.3502,181.2 62.7502,178.6 58.6502,177.7 C56.6502,177.7 54.3502,178.1 52.8502,179.7 C49.4502,183.2 51.9502,189.2 53.9502,189.8 C55.9502,190.4 76.9502,189.8 76.9502,189.8 C76.9502,189.8 77.8502,185.9 76.1502,183.7 C74.5502,181.5 72.0502,170.4 71.8502,158.5 C66.9502,154.2 59.3502,151.3 53.0502,155.6 M111.95,155.6 C109.75,163.9 106.85,170.2 104.85,174 C104.45,174.8 104.15,175 103.35,175.5 C100.95,177 97.4502,178.6 96.8502,184.7 C99.6502,181.2 102.25,178.6 106.35,177.7 C108.35,177.7 110.65,178.1 112.15,179.7 C115.55,183.2 113.05,189.2 111.05,189.8 C109.05,190.4 88.0502,189.8 88.0502,189.8 C88.0502,189.8 87.1502,185.9 88.8502,183.7 C90.4502,181.5 92.9502,170.4 93.1502,158.5 C98.0502,154.2 105.65,151.3 111.95,155.6 M84.4502,182 C83.8502,182 83.1502,182 82.5502,182 C82.0502,182 81.5502,182 81.0502,182 C80.8502,181.6 80.5502,181.1 80.2502,180.7 C79.9502,180.2 79.6502,179.1 79.4502,178.5 C78.8502,176.4 78.3502,174.2 78.0502,172.1 C77.3502,168.1 76.9502,164.1 76.9502,160 C80.7502,160.5 84.6502,160.5 88.4502,159.9 C88.3502,164.6 87.8502,169.3 87.0502,173.9 C86.7502,175.5 85.9502,179.5 85.0502,180.9 C84.8502,181.3 84.6502,181.6 84.4502,182 M130.25,156.6 C130.45,167.9 123.25,172.4 119.05,175.8 C138.05,167.2 140.25,181.9 138.35,183.5 L118.65,183.5 C118.55,180.9 117.55,178.4 115.65,176.5 C114.15,175 112.35,174 110.45,173.5 C111.95,170.3 113.25,167 114.25,163.7 C119.85,160.7 126.35,157.6 130.25,156.6 M119.85,140 C124.65,142.2 127.65,147.3 128.25,152.9 C124.35,154 120.15,156 116.55,157.8 C117.85,152.9 118.85,147.9 119.45,142.8 C119.65,141.9 119.75,140.9 119.85,140 M45.2502,140.1 C40.5502,142.4 37.6502,147.4 36.9502,153 C40.7502,154.2 44.9502,156.1 48.4502,157.9 C47.1502,153 46.1502,148 45.5502,142.9 C45.4502,141.9 45.3502,141 45.2502,140.1 M34.8502,156.6 C34.6502,167.9 41.8502,172.4 46.0502,175.8 C26.9502,167.2 24.8502,181.9 26.7502,183.5 L46.1502,183.5 C46.2502,180.8 47.2502,178.2 49.2502,176.2 C50.6502,174.7 52.3502,173.8 54.2502,173.2 C53.8502,172.4 53.4502,171.6 53.1502,170.7 C52.0502,168.3 51.1502,165.8 50.2502,163.3 C44.7502,160.4 38.5502,157.6 34.8502,156.6 " style="stroke:none;fill-rule:evenodd;fill:url(#linearGradientFill1);fill-opacity:1;"/><defs><linearGradient id="linearGradientFill1" gradientUnits="userSpaceOnUse" x1="13.0545" y1="14.7332" x2="152.479" y2="166.69"><stop offset="0" stop-color="#a677b4" stop-opacity="1"/><stop offset="0.3626" stop-color="#f0515a" stop-opacity="1"/><stop offset="1" stop-color="#2b338c" stop-opacity="1"/></linearGradient></defs>
        </g>
    </g>
</svg>
