<?xml version="1.0"?>
<svg version="1.1" xmlns="http://www.w3.org/2000/svg" xmlns:xlink="http://www.w3.org/1999/xlink" width="109" height="26">
    <desc iVinci="yes" version="4.6" gridStep="20" showGrid="no" snapToGrid="no" codePlatform="0"/>
    <g id="Layer1" name="Layer 1" opacity="1">
        <g id="Shape1">
            <desc shapeID="1" type="0" basicInfo-basicType="0" basicInfo-roundedRectRadius="12" basicInfo-polygonSides="6" basicInfo-starPoints="5" bounding="rect(-38.7845,-7.0872,77.569,14.1744)" text="" font-familyName="" font-pixelSize="20" font-bold="0" font-underline="0" font-alignment="1" strokeStyle="0" markerStart="0" markerEnd="0" shadowEnabled="0" shadowOffsetX="0" shadowOffsetY="2" shadowBlur="4" shadowOpacity="160" blurEnabled="0" blurRadius="4" transform="matrix(1,0,0,1,68.6615,13.5832)" pers-center="0,0" pers-size="0,0" pers-start="0,0" pers-end="0,0" locked="0" mesh="" flag=""/>
            <path id="shapePath1" d="M33.75,12.356 C34.55,12.356 35.164,12.056 35.667,11.422 L36.673,12.476 C35.858,13.376 34.923,13.842 33.823,13.842 C32.723,13.842 31.823,13.507 31.116,12.812 C30.409,12.117 30.062,11.255 30.062,10.2 C30.062,9.145 30.422,8.26 31.14,7.564 C31.858,6.868 32.745,6.5 33.8,6.5 C34.974,6.5 35.956,6.955 36.723,7.842 L35.741,8.968 C35.238,8.345 34.615,8.034 33.871,8.034 C33.271,8.034 32.769,8.226 32.338,8.609 C31.907,8.992 31.691,9.509 31.691,10.189 C31.691,10.869 31.883,11.387 32.291,11.794 C32.698,12.129 33.177,12.344 33.753,12.344 L33.75,12.356 M37.943,13.756 L37.943,6.64 L39.523,6.64 L39.523,12.342 L42.566,12.342 L42.566,13.756 L37.943,13.756 M49.515,12.774 C48.795,13.469 47.91,13.828 46.855,13.828 C45.8,13.828 44.915,13.468 44.195,12.774 C43.475,12.08 43.117,11.194 43.117,10.162 C43.117,9.13 43.477,8.245 44.195,7.55 C44.913,6.855 45.8,6.496 46.855,6.496 C47.91,6.496 48.795,6.856 49.515,7.55 C50.235,8.244 50.593,9.13 50.593,10.162 C50.593,11.194 50.233,12.079 49.515,12.774 M48.965,10.162 C48.965,9.539 48.749,8.988 48.365,8.532 C47.958,8.077 47.465,7.862 46.865,7.862 C46.2864,7.84631 45.7316,8.09248 45.355,8.532 C44.9452,8.97443 44.722,9.55801 44.732,10.161 C44.722,10.764 44.9452,11.3476 45.355,11.79 C45.762,12.245 46.255,12.46 46.855,12.46 C47.4336,12.4757 47.9884,12.2295 48.365,11.79 C48.773,11.336 48.965,10.808 48.965,10.16 L48.965,10.162 M53.829,11.935 C54.093,12.27 54.452,12.438 54.907,12.438 C55.362,12.438 55.722,12.27 55.961,11.935 C56.225,11.6 56.344,11.135 56.344,10.593 L56.344,6.64 L57.924,6.64 L57.924,10.617 C57.924,11.647 57.636,12.437 57.061,12.989 C56.486,13.541 55.767,13.829 54.881,13.829 C53.995,13.829 53.251,13.541 52.677,12.989 C52.103,12.437 51.814,11.647 51.814,10.617 L51.814,6.64 L53.394,6.64 L53.394,10.57 C53.418,11.145 53.562,11.6 53.824,11.936 L53.829,11.935 M65.029,7.575 C65.699,8.198 66.059,9.06 66.059,10.163 C66.059,11.266 65.724,12.163 65.077,12.799 C64.407,13.446 63.4,13.757 62.057,13.757 L59.58,13.757 L59.58,6.64 L62.096,6.64 C63.366,6.64 64.348,6.94 65.019,7.574 L65.029,7.575 M63.879,11.815 C64.262,11.455 64.454,10.915 64.454,10.21 C64.454,9.505 64.262,8.964 63.879,8.605 C63.496,8.222 62.897,8.03 62.082,8.03 L61.196,8.03 L61.196,12.367 L62.202,12.367 C62.922,12.367 63.472,12.175 63.879,11.817 L63.879,11.815 M75.082,6.64 L76.687,6.64 L76.687,13.756 L75.082,13.756 L71.704,9.3 L71.704,13.756 L70.1,13.756 L70.1,6.64 L71.6,6.64 L75.074,11.24 L75.082,6.64 M83.482,13.756 L82.812,12.223 L79.824,12.223 L79.154,13.756 L77.454,13.756 L80.52,6.64 L82.053,6.64 L85.12,13.756 L83.482,13.756 M81.35,8.772 L80.464,10.832 L82.244,10.832 L81.35,8.772 M88.514,8.029 L88.514,13.755 L86.914,13.755 L86.914,8.03 L84.914,8.03 L84.914,6.63 L90.544,6.63 L90.544,8.03 L88.514,8.029 M91.677,6.629 L93.257,6.629 L93.257,13.745 L91.677,13.745 L91.677,6.629 M97.643,11.157 L99.463,6.629 L101.188,6.629 L98.313,13.745 L96.97,13.745 L94.12,6.63 L95.845,6.63 L97.643,11.157 M107.155,6.629 L107.155,8.043 L103.609,8.043 L103.609,9.528 L106.796,9.528 L106.796,10.87 L103.609,10.87 L103.609,12.355 L107.275,12.355 L107.275,13.755 L102.028,13.755 L102.028,6.64 L107.155,6.629 M31.93,19.808 C32.36,19.808 32.73,19.64 33.008,19.281 L33.583,19.881 C33.128,20.384 32.601,20.648 31.978,20.648 C31.355,20.648 30.852,20.456 30.478,20.073 C30.071,19.69 29.878,19.187 29.878,18.611 C29.8599,18.0536 30.0778,17.5144 30.478,17.126 C30.8685,16.7289 31.4062,16.5116 31.963,16.526 C32.61,16.526 33.161,16.766 33.616,17.269 L33.066,17.892 C32.8224,17.5541 32.4285,17.3572 32.012,17.365 C31.6922,17.3631 31.3837,17.4829 31.149,17.7 C30.909,17.915 30.789,18.203 30.789,18.586 C30.789,18.969 30.909,19.256 31.124,19.472 C31.34,19.712 31.627,19.807 31.939,19.807 L31.93,19.808 M37.536,20.048 C37.129,20.431 36.636,20.648 36.051,20.648 C35.466,20.648 34.973,20.456 34.566,20.048 C34.159,19.665 33.966,19.162 33.966,18.586 C33.966,18.01 34.158,17.508 34.566,17.124 C34.974,16.74 35.466,16.524 36.051,16.524 C36.636,16.524 37.129,16.716 37.536,17.124 C37.943,17.507 38.136,18.01 38.136,18.586 C38.136,19.162 37.944,19.664 37.536,20.048 M37.248,18.586 C37.2563,18.2541 37.1363,17.9317 36.913,17.686 C36.673,17.446 36.41,17.303 36.073,17.303 C35.736,17.303 35.45,17.423 35.233,17.686 C34.993,17.926 34.898,18.236 34.898,18.586 C34.8956,18.9169 35.0148,19.2372 35.233,19.486 C35.473,19.726 35.736,19.869 36.073,19.869 C36.41,19.869 36.696,19.749 36.913,19.486 C37.1337,19.2387 37.2533,18.9174 37.248,18.586 M42.471,18.083 L41.395,20.288 L40.868,20.288 L39.79,18.084 L39.79,20.6 L38.904,20.6 L38.904,16.623 L40.1,16.623 L41.13,18.803 L42.16,16.623 L43.358,16.623 L43.358,20.6 L42.472,20.6 L42.471,18.083 M47.095,16.981 C47.383,17.221 47.525,17.581 47.525,18.083 C47.525,18.585 47.381,18.946 47.095,19.161 C46.807,19.401 46.375,19.496 45.777,19.496 L45.25,19.496 L45.25,20.598 L44.364,20.598 L44.364,16.62 L45.778,16.62 C46.378,16.62 46.808,16.74 47.096,16.98 L47.095,16.981 M46.448,18.538 C46.544,18.418 46.616,18.25 46.616,18.011 C46.616,17.772 46.544,17.628 46.4,17.531 C46.256,17.434 46.04,17.387 45.753,17.387 L45.25,17.387 L45.25,18.729 L45.85,18.729 C46.138,18.729 46.33,18.657 46.45,18.537 L46.448,18.538 M49.275,19.568 C49.419,19.76 49.635,19.856 49.875,19.856 C50.1097,19.8621 50.3329,19.7549 50.475,19.568 C50.62,19.376 50.691,19.138 50.691,18.801 L50.691,16.598 L51.577,16.598 L51.577,18.826 C51.577,19.401 51.409,19.856 51.097,20.168 C50.785,20.48 50.377,20.623 49.875,20.623 C49.373,20.623 48.975,20.455 48.653,20.143 C48.331,19.831 48.173,19.376 48.173,18.801 L48.173,16.573 L49.059,16.573 L49.059,18.825 C49.059,19.125 49.131,19.4 49.275,19.568 M54.187,17.388 L54.187,20.588 L53.3,20.588 L53.3,17.388 L52.174,17.388 L52.174,16.621 L55.314,16.621 L55.314,17.388 L54.187,17.388 M55.984,16.621 L56.87,16.621 L56.87,20.621 L55.984,20.621 L55.984,16.621 M60.632,16.621 L61.518,16.621 L61.518,20.598 L60.632,20.598 L58.739,18.106 L58.739,20.598 L57.853,20.598 L57.853,16.62 L58.668,16.62 L60.633,19.184 L60.632,16.621 M65.112,18.586 L65.998,18.586 L65.998,20 C65.591,20.43 65.064,20.67 64.345,20.67 C63.7937,20.6807 63.2603,20.4742 62.86,20.095 C62.453,19.712 62.26,19.209 62.26,18.633 C62.2419,18.0756 62.4598,17.5364 62.86,17.148 C63.2424,16.7531 63.7724,16.5359 64.322,16.549 C64.8733,16.5383 65.4067,16.7448 65.807,17.124 L65.352,17.794 C65.184,17.626 65.017,17.53 64.849,17.494 C64.6954,17.4369 64.5337,17.4045 64.37,17.398 C64.0502,17.3961 63.7417,17.5159 63.507,17.733 C63.2658,17.969 63.1351,18.2957 63.147,18.633 C63.147,19.006 63.267,19.303 63.482,19.533 C63.698,19.749 63.962,19.868 64.282,19.868 C64.602,19.868 64.857,19.82 65.049,19.7 L65.112,18.586 M71.03,16.621 L71.03,17.388 L69.185,17.388 L69.185,18.251 L70.958,18.251 L70.958,19.051 L69.185,19.051 L69.185,20.608 L68.299,20.608 L68.299,16.62 L71.03,16.621 M75.15,20.047 C74.743,20.43 74.25,20.647 73.665,20.647 C73.1076,20.6651 72.5684,20.4472 72.18,20.047 C71.773,19.664 71.58,19.161 71.58,18.585 C71.58,18.009 71.772,17.507 72.18,17.123 C72.588,16.739 73.08,16.523 73.665,16.523 C74.2224,16.5049 74.7616,16.7228 75.15,17.123 C75.557,17.506 75.75,18.009 75.75,18.585 C75.75,19.161 75.558,19.663 75.15,20.047 M74.85,18.585 C74.8583,18.2531 74.7383,17.9307 74.515,17.685 C74.275,17.445 74.012,17.302 73.675,17.302 C73.338,17.302 73.052,17.422 72.835,17.685 C72.595,17.925 72.5,18.235 72.5,18.585 C72.4976,18.9159 72.6168,19.2362 72.835,19.485 C73.075,19.725 73.338,19.868 73.675,19.868 C74.012,19.868 74.298,19.748 74.515,19.485 C74.755,19.245 74.85,18.935 74.85,18.585 M77.58,19.567 C77.724,19.759 77.94,19.855 78.18,19.855 C78.4147,19.8611 78.6379,19.7539 78.78,19.567 C78.925,19.375 78.996,19.137 78.996,18.8 L78.996,16.598 L79.882,16.598 L79.882,18.826 C79.882,19.401 79.714,19.856 79.402,20.168 C79.09,20.48 78.682,20.623 78.18,20.623 C77.678,20.623 77.28,20.455 76.958,20.143 C76.636,19.831 76.478,19.376 76.478,18.801 L76.478,16.573 L77.364,16.573 L77.364,18.825 C77.34,19.125 77.436,19.4 77.58,19.568 L77.58,19.567 M83.594,16.62 L84.48,16.62 L84.48,20.597 L83.594,20.597 L81.7,18.105 L81.7,20.597 L80.814,20.597 L80.814,16.62 L81.629,16.62 L83.594,19.184 L83.594,16.62 M88.506,17.147 C88.889,17.507 89.081,17.987 89.081,18.609 C89.081,19.231 88.889,19.711 88.531,20.071 C88.173,20.431 87.597,20.621 86.831,20.621 L85.455,20.621 L85.455,16.621 L86.869,16.621 C87.589,16.621 88.139,16.789 88.499,17.148 L88.506,17.147 M87.859,19.519 C88.075,19.303 88.194,19.016 88.194,18.633 C88.194,18.25 88.074,17.938 87.859,17.733 C87.644,17.528 87.309,17.433 86.853,17.433 L86.35,17.433 L86.35,19.853 L86.925,19.853 C87.332,19.829 87.645,19.733 87.859,19.553 L87.859,19.519 M92.579,20.597 L92.219,19.734 L90.545,19.734 L90.185,20.597 L89.227,20.597 L90.952,16.597 L91.815,16.597 L93.54,20.597 L92.579,20.597 M91.381,17.794 L90.878,18.944 L91.884,18.944 L91.381,17.794 M95.406,17.387 L95.406,20.587 L94.506,20.587 L94.506,17.387 L93.37,17.387 L93.37,16.62 L96.533,16.62 L96.533,17.387 L95.406,17.387 M97.179,16.62 L98.065,16.62 L98.065,20.62 L97.179,20.62 L97.179,16.62 M102.402,20.046 C101.995,20.429 101.502,20.646 100.917,20.646 C100.36,20.6641 99.8204,20.4462 99.432,20.046 C99.025,19.663 98.832,19.16 98.832,18.584 C98.832,18.008 99.024,17.506 99.432,17.122 C99.84,16.738 100.332,16.522 100.917,16.522 C101.474,16.5039 102.014,16.7218 102.402,17.122 C102.809,17.505 103.002,18.008 103.002,18.584 C103.002,19.16 102.81,19.662 102.402,20.046 M102.114,18.584 C102.122,18.2521 102.002,17.9297 101.779,17.684 C101.539,17.444 101.276,17.301 100.939,17.301 C100.602,17.301 100.316,17.421 100.099,17.684 C99.859,17.924 99.764,18.234 99.764,18.584 C99.7616,18.9149 99.8808,19.2352 100.099,19.484 C100.339,19.724 100.602,19.867 100.939,19.867 C101.276,19.867 101.562,19.747 101.779,19.484 C102,19.2367 102.119,18.9154 102.114,18.584 M106.546,16.619 L107.446,16.619 L107.446,20.596 L106.546,20.596 L104.656,18.108 L104.656,20.6 L103.77,20.6 L103.77,16.623 L104.61,16.623 L106.55,19.187 L106.546,16.619 Z" style="stroke:none;fill-rule:nonzero;fill:#000000;fill-opacity:1;"/>
        </g>
        <g id="Shape2">
            <desc shapeID="2" type="0" basicInfo-basicType="0" basicInfo-roundedRectRadius="12" basicInfo-polygonSides="6" basicInfo-starPoints="5" bounding="rect(-12.3765,-12.3975,24.753,24.795)" text="" font-familyName="" font-pixelSize="20" font-bold="0" font-underline="0" font-alignment="1" strokeStyle="0" markerStart="0" markerEnd="0" shadowEnabled="0" shadowOffsetX="0" shadowOffsetY="2" shadowBlur="4" shadowOpacity="160" blurEnabled="0" blurRadius="4" transform="matrix(1,0,0,1,12.3765,12.3975)" pers-center="0,0" pers-size="0,0" pers-start="0,0" pers-end="0,0" locked="0" mesh="" flag=""/>
            <path id="shapePath2" d="M3.52,16.518 L0,16.518 L0,24.794 L8.238,24.794 L8.238,21.236 L3.52,21.236 L3.52,16.518 M21.233,16.558 L21.233,21.238 L16.513,21.238 L16.513,21.198 L16.513,24.795 L24.751,24.795 L24.751,16.518 L21.193,16.518 L21.233,16.558 M0.0010004,8.278 L3.56,8.278 L3.52,8.238 L3.52,3.558 L8.238,3.558 L8.238,0 L0.0010004,0 L0.0010004,8.278 M16.515,0.00199986 L16.515,3.56 L21.233,3.56 L21.233,8.278 L24.753,8.278 L24.753,0.00199986 L16.515,0.00199986 Z" style="stroke:none;fill-rule:nonzero;fill:#446ca9;fill-opacity:1;"/>
        </g>
        <g id="Shape3">
            <desc shapeID="3" type="0" basicInfo-basicType="0" basicInfo-roundedRectRadius="12" basicInfo-polygonSides="6" basicInfo-starPoints="5" bounding="rect(-12.376,-12.395,24.752,24.79)" text="" font-familyName="" font-pixelSize="20" font-bold="0" font-underline="0" font-alignment="1" strokeStyle="0" markerStart="0" markerEnd="0" shadowEnabled="0" shadowOffsetX="0" shadowOffsetY="2" shadowBlur="4" shadowOpacity="160" blurEnabled="0" blurRadius="4" transform="matrix(1,0,0,1,12.377,12.397)" pers-center="0,0" pers-size="0,0" pers-start="0,0" pers-end="0,0" locked="0" mesh="" flag=""/>
            <path id="shapePath3" d="M16.05,8.278 L11.333,3.56 L16.515,3.56 L16.515,0.00199986 L8.24,0.00199986 L8.24,3.56 L12.958,8.278 L16.05,8.278 M11.796,16.516 L8.704,16.516 L12.61,20.422 L13.383,21.234 L8.24,21.234 L8.24,24.792 L16.516,24.792 L16.516,21.198 L14.156,18.878 L11.796,16.516 M21.233,8.278 L21.233,13.422 L16.515,8.704 L16.515,11.837 L21.195,16.517 L24.753,16.517 L24.753,8.277 L21.233,8.278 M8.24,12.958 L3.56,8.278 L0.0010004,8.278 L0.0010004,16.516 L3.521,16.516 L3.521,11.372 L8.24,16.1 L8.24,12.958 Z" style="stroke:none;fill-rule:nonzero;fill:#76c4d5;fill-opacity:1;"/>
        </g>
    </g>
</svg>
